<svg xmlns="http://www.w3.org/2000/svg" xml:space="preserve" id="Layer_1" x="0" y="0" viewBox="0 0 463.2 186.7"><style>.st0{fill:#b2db21}.st0,.st1,.st2,.st3,.st4{fill-rule:evenodd;clip-rule:evenodd}.st1{fill:#fff}.st2{fill:#a37442}.st3{fill:#231f20}.st4{fill:#bf1c2d}</style><path d="M90.6 139.9c.4-.2.8-.5 1.3-.6.8.2.3-.1 1.1-.1.3.4-.3.6 0 1 .2.3.5.6.6 1 2.1 1.2 6.4 1 8.9.1 1.8-1.5 2.6-4 4-6.2 1.2-1.9 2.7-3.6 3.8-5.3 3.2-4.8 5.5-10.5 5.1-17.7-2-4.9-6-7.8-10.5-10.2-4.5-1.8-10.2-.9-14.1 1.1-.4.2.1.5-.3.6h-.6c-2.4 1.7-4.5 3.5-6.5 5.4-2.1 2-3.6 4.3-5.5 6.4-3.8 4.2-7.4 8.7-10 14.1-1.6 2-2.7 4.6-4.1 7.1-.7 1.1-1.5 2.3-2.1 3.5-.6 1.3-1.5 2.4-2.1 3.6-1.3 2.8-2.6 6.3-2.8 9.7-.3 4.8 1.4 9.4 3.4 13.1 2.2 2.3 4.8 4.4 7.2 6.5 5.2 3.1 10.4 6.2 18.1 6.5 2.5.1 5.2.2 7.8.1 8.4-.4 15.7-3 22.5-5.4 2.5-1.8 6.1-2.6 8.3-4.8 1.3-.8 2.6-1.7 3.9-2.6s2.7-1.7 3.5-2.8c-2.9 1.1-6.1 3.2-9.5 3.1-1.2 0-2.2-.1-3.4-.2-1.8 1.8-3.1 4.1-4.8 6 0-.3-.4-.2-.4-.4.2-1.1 1.5-2.6 1.4-4.2 0-.7-.6-1.2-.6-1.8-.6-.1-.8-.6-1.4-.7-2 3.7-5 6.3-7.8 9.2-1 .5-1.7 2.8-3 1.9-.2-1.1 1.3-.7 1.2-2.1-.2-.4-.8-.5-.9-1.1.5-.3 1.2-.3 1.8-.4.6-.3 1.1-.7 1.8-.9 1.7-1.9 5.3-5 3.5-8.7-3.4 3.2-6.4 6.7-10.9 8.7-2.3 2-5.5 3-8.4 4.5-1.4.4-3.1 1.3-4.8 1.3-.7 0-1.5-.2-2.2-.3-.6-.1-1.6.2-1.8-.5.9-.7 2.6-.1 4 0 2.8-.8 5.9-1.8 7.5-4.2.1-.6-.6-.9-.1-1.3.7-.3 1 .2 1.6.3 1.9.3 3.7-.9 4.8-1.7 2.5-1.9 5.9-4.5 7.2-6.9.2-1.3.4-1.6.3-2.7-.3-.6-.6-1.2-1-1.8-2.5 2.4-5.7 4.6-9.3 6.4-1.8.9-3.8 1.5-5.8 2.4-4.2 1.8-9.1 2.6-14.1 1.8-2.6.6-5.4-.4-8.4 0-.9-.5-1.9-.1-3-.4-.3.1-.9.5-1.1.3.4-2.1 4.2-.4 5.8-1.5.6-.5.2-1.4 1-1.6 1 .8 1.7 1.8 3 2.2.9.3 2.3.2 3.6.2 3.7 0 7.8-1 10.6-1.8.2-.3.5-.6.7-.8.3-.6 0-1.1.6-1.5 1.1.2 2.4.7 3.4.5.8-.2 1.8-.9 2.7-1.3 1-.4 2-.8 2.8-1.2 2.5-1.1 4.2-2.8 5.4-4.6.1-.7.3-1.6-.3-2.1-.1.2-.3-.3-.6-.3-3.9 2.5-9.4 3.3-14.5 4.1-2.3 0-5.3.7-7.8.6-2.2-.1-3.9-.6-5.8-1-1.2-.2-2.4-.2-3.5-.4-1.8-.4-3.4-1.4-5.1-1.8-1.3-.4-2.6-.7-3.8-1.1-.4-1.3-3.3-1.6-2.3-3.3 1.1-.2.6.6 1.2 1 1.7 1.1 3.5 2.2 5.9 2.6 1.2-.3 1.6-1.4 2.8-1.8.5.3.5 1 .8 1.4.6.6 1.5 1 2.1 1.6 2.5 1 7.2 1.9 10.7 1.7.4-.1 1.2-.2 1.3-.2.7-.5 1.8-.7 2.3-1.3.5-.5.4-1.1 1.1-1.5 1 .3 1.3 1.5 2.3 1.8 5.3-.6 9.8-2.2 12.3-5.7.1-.9.4-1.5.4-2.5-4.5 1.5-8.1 1.6-13.6 1.2-5.6-.4-11.2-1.9-15.2-3.6-.6-.6-1.7-.8-2.5-1.5-1.5-.1-2.7-1-4-1.5-.8-.4-2.1-.8-1.6-1.8 2.5.5 3.7 2.3 6.6 2.3.7-.2 1.1-.7 1.8-.9.4.6-.1.7 0 1.5 2.5 2.5 6.8 3.5 11 3.7 1-.3 1.2-1.4 2.1-1.8.6.3.6 1.3 1.3 1.8 2.3 1.5 7.6.4 10-.2 3.4-.9 4.3-2.5 4.5-6.1-2.4.7-5.3.4-7.5.5-8.6-1.3-14.5-6-21.9-8.7-.6-.8-2.6-1.2-2.2-2.3 1.8.2 3.4 2.1 5.4 2.3 1.2.2 1.8-.4 2.9-.3 1 2.9 7.3 5 10.5 5.3" class="st0"/><path d="M100.8 172.4c-5-1.7-6.5-10.8-7-15.5-.6-5.7.2-12.1 2.1-17.4-10 7.2-6.4 29.1 4.9 32.9m-29.3-40.2c-1.3 3.4-1.7 5-3.7 8.1-2 3.2-4.5 6.9-4.5 10.9 0 7-2.2 11.6 5.2 20.1-1.4-.4-5.4-3.8-6.2-5.3-1.5-2.7-2.3-5.4-2.5-8.5-.3-5.6.2-11.9 4-16.3z" class="st1"/><path d="M121.4 158.5c-.6-.2-1.3-.8-2.1-1.3-2.1-1.4-4-3.4-5-5.4-2.6-5.5-.6-12.1 1.2-17.1 1.5-4.1 3.8-7.1 4.1-11.9.2-2.8 0-4.6-.4-6.7-.4-2.3-1-5.2-2.1-7.1-.5-.9-1.4-1.9-2.3-2.9-2.3-2.6-6-5.2-9-6.4-.7-.3-1.8-.2-2.5-.4-1.1-.2-2.1-.8-3.3-.6-3.3.3-6.6 1.6-8.9 3.3 4.4-1.8 9.6-2.7 14-.9 1.1.5 2.3 1.3 3.5 2.1 3.5 2.2 6.3 5 7.8 8.8 1.9 4.7.3 10.6-1.5 14.1-.7 1.3-1.2 2.4-1.8 3.5-1.8 3.7-4.1 6.8-5.8 10.2-.3 1.3-.5 2.7-1 3.8-1 5.3.9 10.3 2.7 13.9 1 2 2 3.7 3.5 4.9 2.5 2 6.1 2.1 9.6 2.7 1.5-.2 2.6-.8 4.2-.9 2.1-1.2 5.3-1.6 7.5-3.3 9.5-3.3 15.2-11 27.9-10.8 1.8-.2 3.8-1.1 5.4-.9-1.1.6-2.5 1.4-3.9 1.6-1.5.3-3 .1-4.5.3-2.7.5-5.1 1.8-6.6 3 4.1.5 9.4 1.8 13.3 3.5 3 .6 5.9 1.3 8.5 2.2 2.3.8 4.9 1.5 7.7 2.1 3.2.6 6.2 1.3 10.3.7.8-.4 1.6-.3 2.4-.4 1.6-.3 2.8-1.2 4.1-2 1-.6 2.1-.9 3-1.6 2.2-1.7 4.2-3.7 5.9-6 1.7-2.2 3.5-4.4 5.2-6.6 3.6-4.5 6.5-9.5 9.9-14 1.8-1.6 4.2-3.4 6.7-4.3.5-.2 1.4-.6 1.7.1-.7 1-2.8.6-2.7 2.3 2.4-.5 4.4-.1 6.9 0 .1-1.6-1.1-2.3-2-3-1.3-1.2-3.2-2.8-5.1-3.6-1.2-.5-2.5-1.1-3.7-1.4-3.4-.9-6.9.4-9.9 1-1.4.6-3 1.6-4.3 1.8-.8 1-2 1.5-3 2.3-2.8 2.4-5.6 5-9.7 6.5 1.6 1.5 4.7 1 6.6 1 .5-.2 1-.8 1.5-.6.5 1.3-1 1.3-1.8 1.6-.4.2-.6.5-.9.6-1.4.6-3.6.6-5.2.4-3.8-.4-7.4-2.4-10-4-4.8-3-8.2-7.5-12.4-10.1-1.7-.7-3.1-1.6-4.5-2.6-7.7-3-17.8-3.5-26.4-.4-9.7 2.3-17.9 6.1-24.5 11.4-.1 1.2-1.2 1.9-1.6 3-.6 1.6-.6 3.4-1.5 4.9-.3 2.4-1.6 4.6-1.5 7.6.6 5 3 8.3 6.2 10.7.7.2 1.8.2 1.9 1-.4.8-1.2.5-1.8.3" class="st0"/><path d="M122.5 157.8h1c-3-1.9-4.2-9.8.2-7.5-.1-3 3.5-4.2 5.5-2.3-.2-1.5.2-2.5 1.4-3.4 1.5-1.2 4.6-.9 4.6-.9s1-4.3 4.7-3.1c-.1-2 .6-4.1 2.7-4.3.2-1.5-.8-3.2-.9-4.8 0-1 .2-2 .3-3 .2-1.6.3-3.2.9-4.7.2-.4 1.8-4.1 2-4-1.9-.1-4.8 1.2-6.7 1.8-2.3.7-4.5 1.6-6.7 2.6s-4.3 2.1-6.3 3.4c-.9.5-5.1 2.7-5.2 3.7-.1 1.2-1.2 1.9-1.6 3-.6 1.6-.6 3.4-1.5 4.9-.3 2.4-1.6 4.6-1.5 7.6.4 3.7 2.9 10.7 7.1 11" class="st2"/><path d="M153.4 119.7c-1.6-.1-2.8.7-3.9 1.1-1 .4-2.1.7-2.8 1.2-.1.8-.2 1 0 1.5 2.2 1 6.1.6 8.4 1.7 1.3-.4 2.7-.7 3.9-1.2.3-.8.1-1.7.2-2.7-1.4-1.4-3.5-1.4-5.8-1.6m6.2 5c-1.5.6-3 1.1-4.7 1.5-1.5-.6-4.3-.9-6.2-1.2-2.4-.3-3.7-.7-3.1-3.3.5-.8 1.9-1.3 3.3-1.8 1.1-.4 2.5-1.2 3.7-1.3 1-.1 2.3.2 3.4.3 1.5.2 3.5.8 3.9 1.6s.3 3.4-.3 4.2m4.1-4.7c-.2.4-.5.7-.6 1.3 1.1.3 2.1.8 3.3 1.1.5-1.6-1.4-2.1-2.7-2.4m3.2 3.3c-1.5.1-3.8-.6-4.8-1.8-.4-4.5 7.5-1.4 4.8 1.8m51.6.7c-.1.9.2 1.4.4 2 1.8.2 3.4-.4 5.1.3.5-.3.8-.7.9-1.4-1.4-1-4.3-1.7-6.4-.9m7.2.4c.1 1.5-.8 2.1-1.5 2.7-2.2-.6-3.9 0-6-.5-.4-.7-.5-1.8-.6-2.7.8-2.2 6.8-.9 8.1.5m-45.8 4.9c-2.1-2-5-4.1-7.5-5.2-.2-.3-.3.5-.6.5.2.8.8 1.4 1.2 2.2.9 2 .7 4.6 1.8 6.5 1.4 1.6 5.5 1.6 7.7 1.1.7-2.3-1.3-3.8-2.6-5.1m-7.8-6.1c4.3 1.5 7.3 4.3 10.2 7.2.3.6.7 1.2 1.1 1.8 0 .7.2 1.3.1 2.1-.8 1.6-2.3 1.3-4.5 1.2-1.8-.1-3.8-.2-4.9-1.4-1.6-1.7-.9-4.4-1.8-6.6-.9-1.3-2-3.5-.2-4.3m-37.5 12.6c2.1-1.1 4-3.2 7-2.6 1.2-1.6 3.4-2.1 3.4-4.9-.9-1.4-1.2-4.1-3-4.1h-.1c-1.4.7-3.5.5-4.8 1.4-.5.4-1 1.4-1.4 2.2-.5.8-1 1.6-1.3 2.3-.9 1.7-1.8 3.4-2.2 4.9.5.5 1.4.7 2.4.8m8.7-12.4c.8 1.6 2.2 3.3 2.5 5.1.2 1.4-.3 1.5-1.1 2.4-.9 1-1.9 2.6-3.2 3.4-3.2-.8-4.8 1.6-7 2.5-1.3-.4-3.2-.5-3.5-1.8-.2-1 1-2.1 1.4-3 .5-1 .9-2.2 1.5-3.3.8-1.4 1.5-2.4 2.1-3.5.4-.1.6-.3.9-.6 2.2-.3 4.4-1.4 6.4-1.2m19.6 1.8c-.6.7-3.3 2.9-3.4 3.9-.1 1.5 2.5 2.8 3.4 4.4.3.5.2 1 .9 1.3 2.4 0 3.6-2.2 5.4-3.2.4-.6.8-1.2 1.1-2.1-.4-1-.6-2.1-1.2-3-2.4-.1-4-1-6.2-1.3m6.7.7c.6 1.1 1.5 2.5 1.4 3.8-.2 2.7-3.7 3.9-5.1 5.5-.6.2-1.3.4-1.8.6-.2-.2-1 0-1.2-.2-.5-.3-.5-1-.8-1.5-.5-1.4-3.8-3-3.7-4.9 0-.9 1.2-1.8 1.9-2.6.9-.9 1.5-1.9 2.3-2.3.2 0 .3-.2.3 0 2.5.4 4.4 1.2 6.7 1.6m37.3 4.6c-.1 1.6.6 3.2 1.8 3.8 1.2-.3 2-1 3.3-1.2 1.2-1.6 1.5-4.1 2.6-5.8-.3-.4-.3-1.1-.5-1.2-2.7 1.2-5.1 2.6-7.2 4.4m8.6-5c.2.6-.5 1.1 0 1.7-.7 2-1.7 3.8-2.3 6-1.2 1-3.1 1.4-4.5 2.2-1.7-.8-2.9-2.6-2.6-5.1.2.1.2-.2.2-.3 2-1.7 5.1-3.3 7.5-4.6.3-.2 1.2-.3 1.7.1m-62.3 3.1c-1-.3-2.1-.8-3.2-.3-1.8.7-3 3.6-2.7 5.4 1.9.4 3.4 1.1 6 1.1.2-2.2 1.1-3.6 2.1-5-.2-1-1.4-.9-2.2-1.2m.6 7c-1.4.7-3.7-.3-5.2-.6-1.1-.3-2.2-.2-2.5-1.3.3-2.8 2-6.9 6-6.4 1.4.2 3.1.7 3.8 1.5 1 1 0 2.3-.9 3-.6 1-.5 2.8-1.2 3.8m-31.4-4.4c-.3.8-.2 1.9-.1 2.6 1 .9 2.8 1.1 4.5 1.4 1.8-1.5 2.8-3.6 3.6-6-2.6-2-6 .7-8 2m8.9-2.1c-1 2.9-2.2 5.4-4.3 7.1-2.4-.3-4.6-.7-5.7-2.3 0-1.2-.1-2.8.7-3.6.7-.3 1.6-.7 2.5-1.2.8-.4 1.6-1.1 2.3-1.3 1.8-.6 3.5 0 4.5 1.3m85.5.5c0 1 .1 1.3 0 2.5 1.4 1.2 3-.3 3.5-1.4-.2-.7-.3-1.5-.9-1.9-1.1.1-2 .3-2.6.8m3.4-1.3c.6.6.8 1.6 1 2.6-.6 1.6-3.9 4.1-5.4 1.3.3-1 .1-1.5.1-2.8.6-1.1 2.7-1.6 4.3-1.1m-49.5 7.4c-1.4 1.3-3.5 2.7-3 4.9.8.9 2.2 1.1 3.2 1.8 1.2-.1 1.8-.8 2.6-1.3 0-2.3-.7-4.7-2.8-5.4m-.2-.7c0-.1 0-.1.1-.1 2 0 2.3 1.1 3 2.8.5 1.2 1 2.1.8 3.7-.8 1.1-2 1.8-3.5 2.2-1.4-.6-2.8-1.3-3.9-2.2-1.1-2.7 1-4.4 2.4-5.9.4-.1.7-.4 1.1-.5m-49.2 2.8c-.2.8-.9 1.2-1.3 1.9.6 1 1.5 1.7 2.6 2.2 1-.4 2.1-.8 2.7-1.5 0-.5 0-1 .1-1.4-1.2-.6-2.7-1.1-4.1-1.2m4.9.6c.3.9-.3 1.4-.1 2.5-1 1-2.4 1.6-4 2-.9-1.1-2.9-1.6-2.9-3s1.7-1.4 1.5-3c2.3-.1 3.8.8 5.5 1.5" class="st3"/><path d="M155.5 139.9c.4.6.9 1.2 1.6 1.5.5-.3 1.1-.6 1.3-1.2-.2-1.8-2.6-2.5-2.9-.3m1.4 2.4c-1.1-.5-1.8-1.4-2.5-2.3.3-1.2 1.2-1.8 1.7-2.7 2.2 0 3.3 1.7 3.1 3.7-.8.4-1.4 1.1-2.3 1.3m48.2-3.6c-.5.2-.9.5-1.3.8-.2 1 .3 1.3.6 1.7.7-.5 1.6 0 2.3-.4-.3-.9-.8-1.7-1.6-2.1m2.6 1.9c-.2 1.5-2.3 1.1-3.8 1.4-1-.7-1.4-2.2-.6-3.4 1.9-1.8 3.7.2 4.4 2m-27.6 7.5c-.1.9.4 1.2.8 1.6.4 0 .5-.2.9-.2.1-.4.1-.8.3-1.1-.5-.6-1.5-1.1-2-.3m1.7 2.5c-1.5.2-2.6-.7-2.8-2.4.4-.6 1-1.1 1.5-1.6.9.2 1.3.7 2.1 1 .6.8.1 2.5-.8 3m-60.4 7.9c-.6-.2-1.3-.8-2.1-1.3-2.1-1.4-4-3.4-5-5.4-2.6-5.5-.6-12.1 1.2-17.1 1.5-4.1 3.8-7.1 4.1-11.9.2-2.8 0-4.6-.4-6.7-.4-2.3-1-5.2-2.1-7.1-.5-.9-1.4-1.9-2.3-2.9-2.3-2.6-6-5.2-9-6.4-.7-.3-1.8-.2-2.5-.4-1.1-.2-2.1-.8-3.3-.6-3.3.3-6.6 1.6-8.9 3.3 4.4-1.8 9.6-2.7 14-.9 1.1.5 2.3 1.3 3.5 2.1 3.5 2.2 6.3 5 7.8 8.8 1.9 4.7.3 10.6-1.5 14.1-.7 1.3-1.2 2.4-1.8 3.5-1.8 3.7-4.1 6.8-5.8 10.2-.3 1.3-.5 2.7-1 3.8-1 5.3.9 10.3 2.7 13.9 1 2 2 3.7 3.5 4.9 2.5 2 6.1 2.1 9.6 2.7 1.5-.2 2.6-.8 4.2-.9 2.1-1.2 5.3-1.6 7.5-3.3 9.5-3.3 15.2-11 27.9-10.8 1.8-.2 3.8-1.1 5.4-.9-1.1.6-2.5 1.4-3.9 1.6-1.5.3-3 .1-4.5.3-2.7.5-5.1 1.8-6.6 3 4.1.5 9.4 1.8 13.3 3.5 3 .6 5.9 1.3 8.5 2.2 2.3.8 4.9 1.5 7.7 2.1 3.2.6 6.2 1.3 10.3.7.8-.4 1.6-.3 2.4-.4 1.6-.3 2.8-1.2 4.1-2 1-.6 2.1-.9 3-1.6 2.2-1.7 4.2-3.7 5.9-6 1.7-2.2 3.5-4.4 5.2-6.6 3.6-4.5 6.5-9.5 9.9-14 1.8-1.6 4.2-3.4 6.7-4.3.5-.2 1.4-.6 1.7.1-.7 1-2.8.6-2.7 2.3 2.4-.5 4.4-.1 6.9 0 .1-1.6-1.1-2.3-2-3-1.3-1.2-3.2-2.8-5.1-3.6-1.2-.5-2.5-1.1-3.7-1.4-3.4-.9-6.9.4-9.9 1-1.4.6-3 1.6-4.3 1.8-.8 1-2 1.5-3 2.3-2.8 2.4-5.6 5-9.7 6.5 1.6 1.5 4.7 1 6.6 1 .5-.2 1-.8 1.5-.6.5 1.3-1 1.3-1.8 1.6-.4.2-.6.5-.9.6-1.4.6-3.6.6-5.2.4-3.8-.4-7.4-2.4-10-4-4.8-3-8.2-7.5-12.4-10.1-1.7-.7-3.1-1.6-4.5-2.6-7.7-3-17.8-3.5-26.4-.4-9.7 2.3-17.9 6.1-24.5 11.4-.1 1.2-1.2 1.9-1.6 3-.6 1.6-.6 3.4-1.5 4.9-.3 2.4-1.6 4.6-1.5 7.6.6 5 3 8.3 6.2 10.7.7.2 1.8.2 1.9 1-.4.8-1.2.5-1.8.3m-30.8-18.6c.4-.2.8-.5 1.3-.6.8.2.3-.1 1.1-.1.3.4-.3.6 0 1 .2.3.5.6.6 1 2.1 1.2 6.4 1 8.9.1 1.8-1.5 2.6-4 4-6.2 1.2-1.9 2.7-3.6 3.8-5.3 3.2-4.8 5.5-10.5 5.1-17.7-2-4.9-6-7.8-10.5-10.2-4.5-1.8-10.2-.9-14.1 1.1-.4.2.1.5-.3.6h-.6c-2.4 1.7-4.5 3.5-6.5 5.4-2.1 2-3.6 4.3-5.5 6.4-3.8 4.2-7.4 8.7-10 14.1-1.6 2-2.7 4.6-4.1 7.1-.7 1.1-1.5 2.3-2.1 3.5-.6 1.3-1.5 2.4-2.1 3.6-1.3 2.8-2.6 6.3-2.8 9.7-.3 4.8 1.4 9.4 3.4 13.1 2.2 2.3 4.8 4.4 7.2 6.5 5.2 3.1 10.4 6.2 18.1 6.5 2.5.1 5.2.2 7.8.1 8.4-.4 15.7-3 22.5-5.4 2.5-1.8 6.1-2.6 8.3-4.8 1.3-.8 2.6-1.7 3.9-2.6s2.7-1.7 3.5-2.8c-2.9 1.1-6.1 3.2-9.5 3.1-1.2 0-2.2-.1-3.4-.2-1.8 1.8-3.1 4.1-4.8 6 0-.3-.4-.2-.4-.4.2-1.1 1.5-2.6 1.4-4.2 0-.7-.6-1.2-.6-1.8-.6-.1-.8-.6-1.4-.7-2 3.7-5 6.3-7.8 9.2-1 .5-1.7 2.8-3 1.9-.2-1.1 1.3-.7 1.2-2.1-.2-.4-.8-.5-.9-1.1.5-.3 1.2-.3 1.8-.4.6-.3 1.1-.7 1.8-.9 1.7-1.9 5.3-5 3.5-8.7-3.4 3.2-6.4 6.7-10.9 8.7-2.3 2-5.5 3-8.4 4.5-1.4.4-3.1 1.3-4.8 1.3-.7 0-1.5-.2-2.2-.3-.6-.1-1.6.2-1.8-.5.9-.7 2.6-.1 4 0 2.8-.8 5.9-1.8 7.5-4.2.1-.6-.6-.9-.1-1.3.7-.3 1 .2 1.6.3 1.9.3 3.7-.9 4.8-1.7 2.5-1.9 5.9-4.5 7.2-6.9.2-1.3.4-1.6.3-2.7-.3-.6-.6-1.2-1-1.8-2.5 2.4-5.7 4.6-9.3 6.4-1.8.9-3.8 1.5-5.8 2.4-4.2 1.8-9.1 2.6-14.1 1.8-2.6.6-5.4-.4-8.4 0-.9-.5-1.9-.1-3-.4-.3.1-.9.5-1.1.3.4-2.1 4.2-.4 5.8-1.5.6-.5.2-1.4 1-1.6 1 .8 1.7 1.8 3 2.2.9.3 2.3.2 3.6.2 3.7 0 7.8-1 10.6-1.8.2-.3.5-.6.7-.8.3-.6 0-1.1.6-1.5 1.1.2 2.4.7 3.4.5.8-.2 1.8-.9 2.7-1.3 1-.4 2-.8 2.8-1.2 2.5-1.1 4.2-2.8 5.4-4.6.1-.7.3-1.6-.3-2.1-.1.2-.3-.3-.6-.3-3.9 2.5-9.4 3.3-14.5 4.1-2.3 0-5.3.7-7.8.6-2.2-.1-3.9-.6-5.8-1-1.2-.2-2.4-.2-3.5-.4-1.8-.4-3.4-1.4-5.1-1.8-1.3-.4-2.6-.7-3.8-1.1-.4-1.3-3.3-1.6-2.3-3.3 1.1-.2.6.6 1.2 1 1.7 1.1 3.5 2.2 5.9 2.6 1.2-.3 1.6-1.4 2.8-1.8.5.3.5 1 .8 1.4.6.6 1.5 1 2.1 1.6 2.5 1 7.2 1.9 10.7 1.7.4-.1 1.2-.2 1.3-.2.7-.5 1.8-.7 2.3-1.3.5-.5.4-1.1 1.1-1.5 1 .3 1.3 1.5 2.3 1.8 5.3-.6 9.8-2.2 12.3-5.7.1-.9.4-1.5.4-2.5-4.5 1.5-8.1 1.6-13.6 1.2-5.6-.4-11.2-1.9-15.2-3.6-.6-.6-1.7-.8-2.5-1.5-1.5-.1-2.7-1-4-1.5-.8-.4-2.1-.8-1.6-1.8 2.5.5 3.7 2.3 6.6 2.3.7-.2 1.1-.7 1.8-.9.4.6-.1.7 0 1.5 2.5 2.5 6.8 3.5 11 3.7 1-.3 1.2-1.4 2.1-1.8.6.3.6 1.3 1.3 1.8 2.3 1.5 7.6.4 10-.2 3.4-.9 4.3-2.5 4.5-6.1-2.4.7-5.3.4-7.5.5-8.6-1.3-14.5-6-21.9-8.7-.6-.8-2.6-1.2-2.2-2.3 1.8.2 3.4 2.1 5.4 2.3 1.2.2 1.8-.4 2.9-.3 1 2.9 7.3 5 10.5 5.3m33.5-18.8c6.9-3.2 15.4-7.2 24.8-7.9 4.5-.4 8.9-1.1 13.3-.5.9.2 1.9.6 2.9.6 4.6 1.3 8 3.9 11.9 5.9 3 2.2 6.8 5.2 9.8 7.8 1.2 1 2.5 2.9 4.1 3.2 1.9.3 4.1-.5 5.8-1.1 4.7-1.6 8.7-5.4 13.7-7.3 5.3-2 10.6-3.4 16.2-1.6 3.4 1.1 5.3 3.2 8.6 5 .8 1.5 3.2 3.2 3.2 5.7 0 1.5-1.2 2.6-2.3 3-2 .5-4.7-.8-7.1-.5-3 .5-4.9 3.2-6.7 4.8-1.3 2.3-2.8 4.6-4.4 6.9-1.5 2.2-2.6 4.8-4.1 7s-3 4.6-4.6 6.6c-1.6 2.1-3.7 3.5-5.7 5.2-3.8 1.7-8.1 3.1-12.6 3.7-2.8-.2-5.7-.1-8.6-.6-2.6-.4-5-1.7-7.3-2.3-4.6-1.8-9.7-3-14.8-4.4-3-.4-5.7-.7-8.8-.6-4.2.1-8 2.3-11 4-1.3.7-2.5 1.8-3.8 2.6-1.3.9-2.8 1.4-3.8 2.6-3.4 1.8-6.3 4-9.8 5.7-2.4 1.4-4.8 2.9-7.4 4.2-.8.4-1.5 1-2.4 1.4-1 .5-2.2.7-3.3 1.1-.4.2-.7.5-1.1.6-1.1.5-2.5.8-3.7 1.2-1.6.5-3.1 1.2-4.8 1.5-2.3.5-4.6.5-7.1.8-5.6.5-10.5 1.2-16.1.3-.9-.1-1.8-.4-2.6-.6-3.1-.7-5.4-1.5-8.2-3-3.5-2.5-7.4-5.2-10.2-9.1-4.1-5.9-7.1-15.4-4.6-24.4 1.9-5 5-9.7 7.6-14.6 4.5-8.4 9.9-16.1 16.1-23 .9-1 1.9-1.9 2.8-2.7 4.6-3.8 8.8-7.7 14.5-10.1 4.5-1.9 10.6-2.1 15.4-.4 2 .7 4.1 2.3 6 3.9 1.8 1.6 3.6 3.2 4.9 5.1.6 1 1.2 2.1 1.8 3.1 2 3.1 2.9 7.2 3.5 11.2" class="st3"/><path d="M193.7 140.4c-.4 1-.6 2.1-.9 2.9.5 1 1.5 1.6 2.9 1.3 1.5.3 2.1 1.7 3.4 2.3 1-.2 1.6-.8 2-1.8-1.5-2.4-4.4-4-7.4-4.7m-.1-1c0-.1.1-.1 0 0 3.4.6 5.3 2.2 7.4 4.2.3.1.5.1.9.2.7 1.4-1.1 4.1-3 3.9-1.4-.1-1.7-1.7-2.9-2.1-1.8 0-3.2-.5-3.9-1.6-.1-1.7.3-3.8 1.5-4.6" class="st3"/><path d="M153.4 119.7c-1.6-.1-2.8.7-3.9 1.1-1 .4-2.1.7-2.8 1.2-.1.8-.2 1 0 1.5 2.2 1 6.1.6 8.4 1.7 1.3-.4 2.7-.7 3.9-1.2.3-.8.1-1.7.2-2.7-1.4-1.4-3.5-1.4-5.8-1.6m10.3.3c-.2.4-.5.7-.6 1.3 1.1.3 2.1.8 3.3 1.1.5-1.6-1.4-2.1-2.7-2.4m54.8 4c-.1.9.2 1.4.4 2 1.8.2 3.4-.4 5.1.3.5-.3.8-.7.9-1.4-1.4-1-4.3-1.7-6.4-.9m-38.6 5.3c-2.1-2-5-4.1-7.5-5.2-.2-.3-.3.5-.6.5.2.8.8 1.4 1.2 2.2.9 2 .7 4.6 1.8 6.5 1.4 1.6 5.5 1.6 7.7 1.1.7-2.3-1.3-3.8-2.6-5.1m-45.3 6.5c2.1-1.1 4-3.2 7-2.6 1.2-1.6 3.4-2.1 3.4-4.9-.9-1.4-1.2-4.1-3-4.1h-.1c-1.4.7-3.5.5-4.8 1.4-.5.4-1 1.4-1.4 2.2-.5.8-1 1.6-1.3 2.3-.9 1.7-1.8 3.4-2.2 4.9.5.5 1.4.7 2.4.8m28.3-10.6c-.6.7-3.3 2.9-3.4 3.9-.1 1.5 2.5 2.8 3.4 4.4.3.5.2 1 .9 1.3 2.4 0 3.6-2.2 5.4-3.2.4-.6.8-1.2 1.1-2.1-.4-1-.6-2.1-1.2-3-2.4-.1-4-1-6.2-1.3m44 5.3c-.1 1.6.6 3.2 1.8 3.8 1.2-.3 2-1 3.3-1.2 1.2-1.6 1.5-4.1 2.6-5.8-.3-.4-.3-1.1-.5-1.2-2.7 1.2-5.1 2.6-7.2 4.4m-53.7-1.9c-1-.3-2.1-.8-3.2-.3-1.8.7-3 3.6-2.7 5.4 1.9.4 3.4 1.1 6 1.1.2-2.2 1.1-3.6 2.1-5-.2-1-1.4-.9-2.2-1.2m-30.8 2.6c-.3.8-.2 1.9-.1 2.6 1 .9 2.8 1.1 4.5 1.4 1.8-1.5 2.8-3.6 3.6-6-2.6-2-6 .7-8 2m94.4-1.6c0 1 .1 1.3 0 2.5 1.4 1.2 3-.3 3.5-1.4-.2-.7-.3-1.5-.9-1.9-1.1.1-2 .3-2.6.8m-46.1 6.1c-1.4 1.3-3.5 2.7-3 4.9.8.9 2.2 1.1 3.2 1.8 1.2-.1 1.8-.8 2.6-1.3 0-2.3-.7-4.7-2.8-5.4m-49.4 2.1c-.2.8-.9 1.2-1.3 1.9.6 1 1.5 1.7 2.6 2.2 1-.4 2.1-.8 2.7-1.5 0-.5 0-1 .1-1.4-1.2-.6-2.7-1.1-4.1-1.2m34.2 2.1c.4.6.9 1.2 1.6 1.5.5-.3 1.1-.6 1.3-1.2-.2-1.8-2.6-2.5-2.9-.3m49.6-1.2c-.5.2-.9.5-1.3.8-.2 1 .3 1.3.6 1.7.7-.5 1.6 0 2.3-.4-.3-.9-.8-1.7-1.6-2.1m-25 9.4c-.1.9.4 1.2.8 1.6.4 0 .5-.2.9-.2.1-.4.1-.8.3-1.1-.5-.6-1.5-1.1-2-.3m13.6-7.7c-.4 1-.6 2.1-.9 2.9.5 1 1.5 1.6 2.9 1.3 1.5.3 2.1 1.7 3.4 2.3 1-.2 1.6-.8 2-1.8-1.5-2.4-4.4-4-7.4-4.7" class="st2"/><path d="M84.1 145.5c2.4-3.4-10.6-8.7-11-3.3-.2 2.5 1.8 3.8 4 4.4 1.7.5 5.8.7 7-1.1m-1.8 6.9c-2.4-2.4-16.3-5.2-12.6 1.7.9 1.6 3.5 1.7 4.9 2.2 1.6.6 3.5 1.8 5.4 1.5 3.1-.4 4.7-3.2 2.3-5.4m.4 13.1c2.3-1.4 3-3.8-.1-4.6-2.6-.7-12.5-3.3-12.9.9-.6 6.4 9.7 5.6 13 3.7m5.7 6.5c1-3.2-8.7-2.7-10.2-1.9-3.3 1.7 1.8 3.3 3.7 3.8 2.1.5 5.7.9 6.5-1.9" class="st1"/><path d="M131.1 153.1c-2.9 2.4 3 2.9 2.9-.7-1.4-.3-2.6.3-3.8.9m7.9-1.3c1-.5 1.9-1.5 1-2.5-.8-1-4.2-.1-4.5 1.1-.6 2 2.3 2.1 3.5 1.4m7.1-1.1c1.2.5 4.8-.9 4.1-2.6-1-2.2-7.3 1.2-4.1 2.6m-18.6 8.2c1.2.5 4.9-.9 4.1-2.6-1-2.3-7.3 1.2-4.1 2.6m15.3-6.3c-.1-.8-6.3.3-3.6 2.6 1.7 1.5 3.7-1 3.6-2.6m-8.3 3.6c-2.8 1 4.2 4.2 3.1-.2-1.1-.4-3.1-.6-3.8.5" class="st2"/><path d="M178.6 56.8c14.4 5.9 26.7-4.2 30.8-17.9.2-.8.5-2 .6-3 .3-2 .6-3.6 0-5-.4-.2-.7-.5-1.1-.6-1.2.3-3.3 1.7-3.4 1.7-3.6 1.9-7.3 3.8-10.4 6.4.5.2.2 1.1.7 1.6 1 2.9-.2 6.3-1.2 8.6-1.5 2.4-3.3 4.5-5.6 5.6-1.2.2-2.3.5-3.4.8-2.1 0-4.5.2-6.7-.9-1.3-.6-3-2.2-3.5-3.2-1.1.3-2 1-3 1.4 1.3 1.6 3.2 4 6.2 4.5m1.3-8.6c1.2 1 3.6.2 3-2.1-1.1.7-2.3 1.1-3 2.1M40.7 34.5c0 3.2.8 7.3 2.1 10 1.9 3.9 4.8 8 7.9 10.9 3 2.7 7.5 4.9 12.3 5.5 1.9.2 3.8-.2 5.6 0 3.8-1.2 7.3-1.9 9.7-5.2-.4-.1-2.1-.7-2.4-1-3.7 3.7-10.9 4.3-16.1.9-1.4-1.7-3-3.4-4.2-5.3-1.4-3.2-2-7-1.6-11.2-4.2-2.2-8-3.6-13.2-4.8-.1 0-.1.1-.1.2M62 46.2c.6.5 1.3 1 2.2 1.3.5-.2 1.1-.3 1.4-.8-1.2-.7-1.9-1.6-3.2-2.2-.5.6-.1 1.3-.4 1.7m66.7 53.4c-.5-.1-.5-.5-.9-.6-1.5.6-1.2 2.1-1.4 3.7-.3 2.6-1.3 5.3 0 6.8 1.5-1.6 2.5-4 3.8-5.8.7-.3 1.5.3 2.4.3 1.5-.9 1.8-3.7 3-5.2-.2-.5.2-.8.1-1.4-2.8-1.9-5.5.4-7 2.2m-24.6-1.7c-2.2-2-6.1-4.5-9.7-3.4-.1.6-.2 1-.6 1.4.8 2.5 1.7 5 2.7 7.4 1.2 1.5 1.9 3.4 4 4.1 1.1-1.6.7-4.2 1.8-5.4.6-.2 1.2.3 1.7.6.6-1.7.5-3.4.1-4.7m24.8 19.5c.6 1 2.3 1.1 3.4.9 4-2.7 2.8-8.5.6-11.9-1.7 3.5-4.3 6.9-4 11m-38.5-12.5c-.1 0-.1-.1-.2-.2-.1.2-.2.1-.3.3-1 3.8-.8 7.9-.4 10.5 1.6 1.4 4.8 1.7 5.6-.2-1.5-3.6-2.7-7.2-4.7-10.4m17.5 14.5c.4-.3.8-.6 1.1-1 0-3.6-.4-6-.6-9.4-.3 0-.3-.2-.5-.3-1.7 2.5-2.6 5.7-3.4 9.4.8 1 1.9 1.2 3.4 1.3m4.5-1.6c-.8.7-1.8 2.1-.9 3.1 1.3.8 2.8.9 3.9.2.2-2.3 0-5.1-1-7-.8 1.2-1.9 2.2-2 3.7" class="st1"/><path d="M17.1 135.7c-1.7.7-3.2 1.1-3.6 3.1.6 1.7 1.9-.2 2.6-.2.4.4-.4.6-.7 1.1-.9 1.5-1.1 3.5 0 4.8-.8 1.5-1.2 4.2 1.3 3.7.8-.8.6-2.2.3-3 .9-.4 1 .9 1.9 1.1.8.2 1.4-.6 2.2-.1 0 .4 0 .8.1 1.1-2.2 2-2.1 7.9 1.5 7.2.3-.4.4-.7.6-1 1.1-2.9-1.4-4.3-1-7.1.4-.3.3-1.2.8-1.4s.9.2 1.4 0c1.1-.6 1.1-2.2 1.5-3.1 1.1.5 3.1.5 3-1.2-.1-1.1-2-1.8-2.8-2.1-.5-.5.2-1.1.3-1.6.3-2.4.5-4.4.1-5.8 1.5-1.8 3.2-3.2 4.4-5.3-5.7 1.8-10 5.6-13.9 9.8m10.8 27.1c-.3.4-.7 1.6-.3 2.2.9.2 1-.6 1.5-1 .2 0 .3 0 .5-.1.3 1.3 1.3 2.9 3.3 2.3 1.2-.9 1-3.3.1-4.1-2.6-1-3-3.9-5.1-5.4-.1 2.5-.4 4 0 6.1" class="st0"/><path d="M81.8 111c1-.2 2.4 1 3.3.4.8-.6.1-1.8 1-2.2.6.3 1.5 1.1 2.1.5.3-1.9.2-4.7 1.7-5.9.4.2.9.3 1.5.4 1 1.6 1.7 3.4 2.6 5.1 2.9.5 5.9.7 8.1-.4 1.4.8 2.6 1 4 1 .4-1.2 1-2.2 2.1-2.4.2.4.4.4.9.4.5.8.2 1.9.5 3.1 2 .7 3.6.4 5 0 1 .9 2.6 1.7 3.7 2.2.8-.3 1.5-.6 2.1-1.1.1-1.1-.1-2-.2-2.9-3.4-3.7-10.1-6.1-15-7.2-.2.7-.4 1.6-.9 1.9-.5-.1-1-.7-1.4-.6-.9 1.8-.4 4-1.7 5.1-1.2 1-3.6-1.7-4.2-2.7-1-1.5-1.7-3.2-2.2-4.4-3.4-.8-6.9-.1-9.7-.1-2.7 0-5.3 0-7.4 1-.3.4-.4.7-.6 1.1-2.6-.6-5.2.3-6.8 2.4-2.7-1.3-4.7.4-5.8 2.3.1.3.2.5.2.9-.2.2-.4.5-.8.6-.4-.5-1.4-.4-2-.7-.3.2-.5.5-.9.5-.6 1-1.1 1.4-1.4 2.5.1.5-.1.8-.4 1-.2-.1-.3-.3-.7-.4-.5.2-.8.7-1.1 1.1-.2.5.5.7.1 1-.7.1-1.4 0-2.3.1-.5.7-1.4.9-1.8 1.7-.6 1-.2 2.9-.3 3.8-.5.2-.6 0-1.2-.2-1.2.4-2.3 1.4-2.2 3.1-.2 0-.3.2-.5.2-.5-.4-.9-.2-1.5-.2-.6.6-.3 1.7-1.4 1.5-.2-2 1-3.4 2.1-4.2.2-2.1 1.7-2.7 3-3.4.2-3.3 2.6-4.6 4.9-5.2.1-2.4 2.1-3.1 3.4-4.1.2-1.4 1-1.9 1.5-2.7.8-.1 1.3-.6 2.2-.6 1.4-2.7 4.7-3.6 7.7-2.7.6-.5 1.3-.7 1.8-1.2 3.8-1.5 8.7-2.1 12.9-2.3.6 0 .8.3 1.6.3.4-.3 1-.3 1.4-.6-3.5-1.7-7.9-2.4-11.5-2.9-1.3-.6-2.3-1.4-4-1.8-.9.3-1.5.9-2.7.8-.2-.9-1-1.8-2.3-1.7-.2.4-.5.9-.8 1.3-4.2.2-7.9 1.8-11.3 3.5-1.2-.4-2.1-.8-3.1-.5-.7.3-.7 1.7-1.5 1.9-.8.1-1.4.3-1.8.9-.4 1.1.6 2.4-.4 2.8-.6-.7-1.6-.3-2.3-.1-.2.8.1 1.3.2 2-.6.4-1.3-.2-2.1-.1-.6.5-1.3 1-1.6 1.9.2.6.6 1 1.3 1.4-.2.3-.2.5.2.7-1 .9-2.1 2.3-3 3.6-.2.6 0 1-.6 1.2-1.4-.4-2.8.4-3.4 1.7.3.7.7 1.3.9 2-1.4.4-3.1.8-3.7 2.4s.2 2.7 1.1 3.9c.5.2 1 .3 1.1.7-1.3 1.1-2.6 3-1.4 4.6.9.4 1.5 1.2 2.8 1.1 0 2.3 1.1 5 4 4.5-1.9-.9-1.3-3.4.1-4.5 1.9.1 3.8.9 3.1 3 .5.1 1 .2 1.3.4-.4-3.3 2.7-3.7 5.7-3 .2-3.2 3.3-3.5 5.2-1.9.1-2.6 3.8-3.5 5.4-1.5.9-1.5 3.4-2.5 5.1-1.2-1.8-2.3.1-6.6 3.4-6-1.9-3.4 2.6-8.7 6.2-5.6.3-.5.2-1 .8-.9.3 1.1 3.1.6 2.6-1.4" class="st4"/><path d="M77.4 114.4c-.6-.3-1.4-.4-1.7-.9-1.9.2-3.3 2.9-2.5 4.9 2.7 1 4.5-1.4 4.9-3.4-.8.1-.3-.5-.7-.6m-7 10.7c1.5-.7 2.9-3.2 2.3-4.9-3.5-1.2-4.9 3.7-2.3 4.9m-6 2.1c-.6 1.2-.6 3.3.4 3.8 1.8 1 4.2-2.6 3.6-4.7-1.4-1.4-3.3-.6-4 .9m-5.1.4c-.6 2.3 2.1 2.6 3.5 1.4.2-.7.2-1.3.2-2-1-1.4-3.3-1-3.7.6m-1.8.6c-2.2-1.5-4.4.9-2.9 3 .9.6 1.9.7 3 .5 1.1-1.1.8-2.9-.1-3.5m2.1 4.5c0 1 1.6 1.9 2.7 1.6.8-.2 1.3-1 1.7-2.2-1-2.2-4.3-1.6-4.4.6m-10.3 1.1c3.6.9 4.8-4.6.2-3.4-.2.4-.3 1-1 .7-.4 1 0 2 .8 2.7m6.3-.8c-.5.9-.9 1.7-.4 2.6 1.4 1.3 3.4 1.1 3.9-1.1-.4-1.7-2-2.1-3.5-1.5m-1.6 4.1c.3-1 .1-1.7-.2-2.2-1.1-.8-2 .2-3 .4-.4.5-.6 1.1-.9 1.8.9 1.4 3.4 1.5 4.1 0m-6.1.6c.9-1.8.5-3.9-1.8-4.2-1.2.2-2 1-2.6 1.9.3 1.9 2.7 3.6 4.4 2.3" class="st0"/><path d="M183 53.8c1.5-.3 3.2-.2 4.7-.9 4.1-1.8 7.7-8.9 5.6-13.3 0-.1 0-.1-.1-.1-.8.5-1.8.8-2.4 1.6.6 6.4-4.6 11.9-11.9 9.8-.6-.6-1.4-.6-2-1.3-.2.5-.7.5-.9.8 1.8 1.5 3.5 3.1 7 3.4M56.1 46.1c.1.3-.1.4-.1.9 1.5 4.1 4.8 8.6 10.1 9.6 3.6.2 6.6-.6 8.7-2.6-.4-.2-.7-.6-1.3-.8-1.9 1.1-4.9 1.2-7.5.6-5-1.2-8.1-6.2-6.6-11.1-.8-.9-2.1-1.6-3.3-2.2-.4 1.8-.4 3.9 0 5.6" class="st4"/><path d="M138.8 43.2c-2.1-1-3.4-2.6-3.9-4.6-1-4.3 1.2-9.2 3.8-13 1.3-1.9 6.4-7.4 6.9-9.6.4-1.9-.7-3.4-1.5-4.9-1.2-1.5-4.2-2.4-5.6-2.4-1.3.2-3.3.6-5.2.4-2.2-1.6-7.6-2.4-6.6 1.5 3.4 4.2 6.9-1.1 10.9-.9 1.6.1 3.1.3 4.7 1.3 1.3 1.5 1.9 2.8 1.2 5.2-.6 1.9-3.8 4.9-4.9 6.1-1.6 1.7-2.4 3.2-3.8 5.2-2.3 3.1-3.2 6.6-5.2 10.3-2.5 2.3-6.5 2.4-8.9 4.9-.1.5-.4.8-.7 1.1-1 5.6-2.7 12.9-4.1 17.6-.3 2.4-.4 4.8-.1 7 .1.6.8 1.5 0 1.9-.8-1-1-2.6-1.1-4.1s-.4-3-.3-4.6c.2-6.5 1.9-14.1-1.7-18-1.3-1-3-1-4.4-1.4-.9-.2-2.8-1.2-3.2-1.6-2.2-2.2.2-6.2 1.1-9.2.7-3.7 2.1-7 2.1-10.6 0-3.5-.5-6.7-1.3-9.8 1-3 .7-7.1-1.9-8.9-1.1-.2-1.7-.5-2.5-.4-1 1-.8 2.7-.6 3.9.3 1.8 3.7 5.6 4 6.2 2.2 8.7-1.4 20.2-6.5 27.1-1.5.5-2.5 1.2-3.9 2-1.8 1-2.9 1.7-4.6 2.9-.6.5-1.8 1.2-2 1.7-.4 1-.2 2.6-.3 3.7-.1 1.2.1 2.4-.2 3.7 1.9 4.1 5.4 7.6 5.2 12.8-.9 1.5-1.4 3.2-2.3 4.6-.3.5-.7.7-.9 1.3-.6 1.8-.2 3.4.1 4.8.4 2.3 1 4 1.6 5.9.9 2.5 1.8 5.4 3 7.4.8.7 2.3 1.2 3.3 1.3 2.2 1.1 4.9 2.3 7.3 3.6 2.5 1.4 4.9 2.4 7.2 1.1.8-.4 1-1.3 2.1-1.5.4.7.6 1.5 1.3 1.9 2.8 1.4 5.8 1.2 9.5 1.3 3.3-1.4 6.9-3.2 10.1-5.2 0-.6.8-1 1.1-1.7.4-.6.9-1.2 1.4-1.8 1.5-4.4 4.2-7.8 4-12.3-1.2-5.7-1.9-11.2-2.4-17.2-.1-1.4-.6-3.2-.4-4.4s1.2-2.3 1.9-3.5c1.2-2.1 2.4-3.8 2.3-6.2-1.4-1.3-3.5-1.4-5.1-1.9" class="st0"/><path d="M123.7 43.2c-.6 1.8-2.7 3.6-1.4 5.2 1.2-.1 1.9-.9 2.9-1.3 1.1-.4 2.4-.5 3.6-.7.7-1.4 1.3-3.3 1-4.5-1.8.1-4.2.6-6.1 1.3m9.8.3c-.6 1-1.2 2.1-1.1 3.4.7 1.1 1.7 1.6 2.8 2.3 1.4-.8 2.9-1.3 4.5-1.8.4-.7.1-1.3.1-2.2-2-.6-4.4-.9-6.3-1.7m-33.4-1.3c-1.6-.3-2.8.2-4.3.4-.3 1-.2 1.1-.5 2.1-1 .6-2.6.2-3 1.7-.3.1-.7 0-.9.4.6 1.4 2.5 2 3.6 2.8 1.5-.7 3.1-1.3 4.5-2.1.3-1.9 1-3.4.6-5.3m12.9 6.1c-1-3.2-5.5-4.1-9-5-1 .6-1 2.5-1.1 3.7 1 1.3 3.1 1 4.7 1.9 0 2.3 2.7 1.9 4.7 2 .3-1.1.5-1.5.7-2.6m19.1 3.5c.4-2.5-7.9-4-6.7.6 1 .9 2.5 1.5 3.5 2.3.6-.9 3.1-1.8 3.2-2.9m-11.3 2.1c-.2.6-.2 1.1-.1 1.5q1.05 0 1.8-.6c0-.4-.2-.6-.1-1-.8 0-.9.1-1.6.1m14.2 3.6c-.3-1.9-2.5-.9-3 .4.4.7.5 1.6 1 2.2.1-.2.6.1.9.1.5-.9.9-1.6 1.1-2.7m-34.6-7.3c-.8 1-2.7.7-3 2.1-.2 1 2.1 3 3.2 3.4 1.4-1 2.6-2 3.7-3.5-.5-1.3-2.1-1.8-3.9-2m10 4.8c-.4.5-1.4 0-2.1-.1-.9.9-1.2 2.8-.3 3.6 1.3-.3 3.8-1.7 2.4-3.5m-11 5.4c.3.2 1.1.5 1.7.3.1-.5.3-1.1.2-1.5-.8-.8-2.4-.1-1.9 1.2" class="st2"/><path d="M66 36.3c.2 0 .1-.1 0-.2-2.6-1.7-5-2.9-7.1-4.8 2.3.1 3.5 2.3 5.8 2.9.1.5 1 .5.9 1 1.9.5 2.9 2.3 4.3 3.4-.7-1.7-2.1-3-3.2-4.4-2.4-1.6-4.2-3.3-6.4-4.8-.7-.2-1.3-.4-1.5-1 2 .2 4.5 1.9 5.8 3.4 1.6.6 2.4 2.1 3.8 2.5-1.8-3.2-5-5.5-8-7.9-.7-.2-1.5-.5-1.7-1.1.7-.6 1 .5 2.2.6 1.9 1.6 4.1 3 6.2 4.8-.8-3.6-3.9-6.2-7.2-8.1-.7 0-1.5-.3-1.3-.9 1.2-.3 2.3 1.1 3.5 1.2 1 .9 2.6 1.3 3.8 2.3 1.8 2.7 3.6 5.6 5 8.7 1 3.6 2.5 6.7 3.8 9.8.6.4 1 .9.9 1.8.9.3 1 1.5 1.7 1.6L68.2 26c-1.1-1.1-1.8-2.5-3.2-3.4-2.5-1.6-7-2.4-10.3-2.9-1-.2-2-.6-3.1-.7-4.8-.6-8 .6-10.9 2.4-2.1 2-4.2 4-6.2 6.1 3-.8 6.2-.4 9.7.1 2.6.4 4.3 1.4 6.6 2.1 1.9 1.6 7.7 2.5 9 5-6.6-2.9-13.8-6.7-22.3-6.5-2.7.4-6.1.9-8 2.9-.5 1 .1 2.5.1 4 0 1.8-.5 3.4.9 4 2.4-.1 5.7-1.4 7.8.1.3.7.6 1.5 1 2.1 1.8 6.4 5.2 12.2 9.8 16.7 5 3.2 12.3 5.9 18.7 5.6.4.1.8.1 1 .3 3.9-1.2 7.4-2.9 10.5-5.3.4-.9.1-1.5.2-2.4-1.2.5-1.9 1.7-2.9 2.4s-2.2 1.3-3.5 1.6c-.2.1-.4.4-.6.4-1.8.6-3.6 1.1-5.7 1.2-2.6-.1-4.7-.1-7.6-.9-10.6-2.8-16.4-12.1-19-21.1 0-1.2-.3-2.2-.3-3.3-1.5-.9-2.7-2.4-4.5-2.4-1.5 0-2.3 1.4-3.7 1.1 1.5-2.1 4-2.5 6.5-2.7.9.4 2.2.2 3.3.5 3.5 1 6.5 2.7 10.2 3.8 4 2.2 8.6 4.5 12.3 6.9 2.7 2.1 5.3 4.1 7.9 6.2 2.5 2 5 4.4 8.8 5.6.6-.9 1-2 1.1-2.9-.6-.8-1.3-1.3-2.6-1.8-2.5-1.8-4.2-4.6-6.6-6.7s-5.3-3.8-7.7-6c.7-1 2 .3 2.4.9 1 .4 1.2 1 2.4 1.4.2.2.6.9 1 .8-1.2-1.8-2.9-3.7-4.7-4.9m11.7 9.6c.6 1.1 1 2 1.5 3.1 2.1 1.4 3.6 3.2 5 5.1.4.4.2 1.1.8 1.4.5-2.2-.6-4-1.3-5.7-1.9-1.5-2.7-3.6-5.5-4.6 0 .2-.3.3-.5.7m7.1 11.9c-4.7.5-6.3 5.6-9.4 8.5-1.7.3-4 1.6-6.5 1.8-1.5.1-4.9 0-5.1 1.1-.3 1.5 2.9 1.7 4 2.2 1.8-.1 3.1-.7 4.6-1.4 3-1.4 5.9-2.9 8.4-4.6 1.2-2.6 3.9-4.2 4.2-7.3 0 0-.1-.1-.2-.3m-1.7 21.4c1.9-1 3.3-2.7 4.6-4.5.2-1.3.4-2.8.4-4.2.9-1.4 2-3 2.6-4.4-.2-2-.5-4.5-1.7-5.5-.1 0-.2 0-.2-.1-.6 2.3-.8 3.4-1.3 5.4-.5 1-1.4 1.4-1.8 2.7-1.8 1.6-3.2 3.5-4.7 5.8-.6.2-.9.7-1.5.9-.9.4-1.9.5-2.6 1.2 1.7 1.3 3.4 3.4 6.2 2.7" class="st0"/><path d="M67.8 66.5c1-.1 3.8-.7 4-.4.5-.6 1.6-.2 2.3-.6 1.5-1.8 3.8-3.1 4.7-5.3-1.4 1.1-3 2.1-4.6 3q-2.55.6-4.8 1.5c-.4-.2-.4-.1-.6-.2-2.6.6-5.6 0-8.6-.7-2.2-.5-4.6-1.6-5.9-.9 1.9 5 8.9 4.2 13.5 3.6m6.7 3.7c-.1.8-.8.6-.9 1.5.3.6.3 1.3.9 1.7.8.1 2.3.1 3 .1.9-1 2.7-2.2 4-3.4.4-.4 1.4-1.3 1.6-1.8.3-1.1-.4-2.6-.5-3.9-1.8 3.4-5.3 4.2-8.1 5.8" class="st2"/><path d="M83.8 82.4c-1.3.3-1.6-.6-2.6-.7.3 1.1 1.3 1.8 1.8 2.9-.8 1.3-2.9 1.3-4.7.7-.2 2.2 1.8 2.8 3.6 3.6 1.6-.5 3-1.3 4-2.6 1-2.3 3.1-4.8 2.8-7.8-1.1 1.3-3.1 3.4-4.9 3.9m3.3 6.3c.4.6.8 1.9 2 2.4.6-1 1.4-1.8 2-2.8.2-1.5-.4-2.6-1-3.8-1.1 1.3-1.8 2.9-3 4.2m112.2-68.2c-2.2.5-3.9 1-5.8 1.6-.7.2-1.4.4-2.2.7-1.9.6-4 1.6-5.6 2.1-.4.1-1 .3-1.4.4-.8.2-1.2.3-1.8.4-.7.2-1.4.1-2.1.4-2 1.4-3 3.8-4.4 5.9-.7 1.1-1.8 2.2-2.5 3.5-.2.4-.2.9-.3 1.3-.7 1.5-1.7 3.2-1.6 5.6.5.7.6 1.6 1.6 2 1.8-.6 3.1-1.8 4.7-2.6 1-.9 1.9-2 3.3-2.3-.4 1.1-1.1 1.6-2 1.9-3 3-6.9 4.6-10.5 6.7-.9.9-.5 1.5 0 2.4 1 2.2 2.2 1.1 4.2.7.2-.4.5-.5.8-.6.8-.2 1.4-.7 2.2-.9 7.3-5.2 22.9-15 23.3-15 1.5-1 2.7-1.9 4.3-2.7 4.1-2.1 9.1-5.1 15.1-3.4.3.2.5.6 1 .7-.1.8 1 1 .4 1.8-1.2-.1-1.1-1.1-1.8-1.6-.6.1-1.3 0-2.1-.2-1.5.6-3.3 1-4.4 2.2-.7 2.2-.7 4.9-1.2 7-.3 1.3-.9 2.5-1.4 3.6-1.9 5.2-4.8 8.7-8.1 11.9-.5.5-1.1.7-1.7 1.1-.3.2-.6.9-.9 1-.9.4-1.6 1-2.4 1.4-1.2.7-3.2 1.4-4.4 1.7-6.2 1.5-16.2-.2-20-5.8-.8-.2-1.1-.1-1.6.4.3 2.3 2.6 3.3 3.7 5.1.3.1.7.3.8.6 2.7 1.1 5.9 2.9 9.1 2.3 0 .2.5.2.7.2.8-.2 1.2-.2 2 0 6.3-.7 11.1-3.8 15.8-6.8 2.1-.5 3.3-2.3 5.1-3.3 2.3-4.2 2.6-9.7 4.2-13.9 1.8-3 4.8-4.9 8.5-3.9.6-.6 1.1-1.8 1.7-2.9.7-1.4 2-2.9 1.6-4-1.7-2.4-5.8-4.2-9.3-3.7-3 .6-5.8 1.7-8.5 2.7-2.4 1.3-4.7 2.8-6.9 4.4-2.3 1.3-4.5 3.5-6.9 4.2.5-.5.8-1 1.4-1.8 3.1-1.9 6.1-4.3 9.2-6.2.6-.4 1.2-.6 1.7-.9.6-.3 1.2-.6 1.5-1-1 .2-1.6.6-2.7.6-3 1.8-6.5 3.4-9.4 5-1 .6-1.9 1.9-3.1 1.3 4-3 8.6-5 13.1-7.4-2.4.2-4.2 1-6.4 1.5-.2.4-.7.4-1 .7-1.4.4-2.8 1-4.1 1.6s-2.4 1.8-3.9 1.7c.9-1.2 2.4-1.4 3.4-2.2.4 0 .6-.2 1-.2 1.3-1 2.9-1 4.2-2.1.6.1 1-.4 1.5-.5.4-.2 1.4-.2 1.4-.6-1 .2-2.5.7-3.3.4-2.3.8-4.6 1.8-7 2.5-.6.3-1.8 1.1-2.3.8.4-.9 1.3-1 2.2-1.1 1.4-.9 3.2-1.3 4.7-2.1 1.2-.2 2-.7 3-.6 0-.1.1-.1.2-.1.4-.5 1.1-.6 1.6-1-1.4.1-2.7 0-3.8.8-2-.2-3.9.9-5.5 1.6-1.5.1-3 .8-4.2 1 .4-.4.8-.6 1.3-.9 1-.5 2-.5 3.1-1 .8-.4 1.6-1 2.7-1.3 1-.3 2-.4 3-.7 2.1-.6 4.4-1.5 6.2-1.5.9 0 1.9.6 3 .8 1.2.3 2.6.1 3.7.5.6.2 1.2.9 2 1 .1-.3.7-.1.9-.4-3.8-1.8-7.9-3.3-11.6-2.5M168 41.3c-1.2 2.4-2.8 4.6-4.1 6.8-.5.7-1.2 1.6-1.4 2.3-.4 1-.4 2.6-.2 3.6.4 3.3 2.8 6.2 4.8 8.5.6.1.8.4 1.3.5-1-1.6-1.4-3.5-1.8-5.4-.5-1.5-1.5-2.5-1.8-4.1.8-.2 1 .4 1.2.9 3.5 1.5 3 5.8 4.8 8.4 2.2 2.2 7.3 2.3 10.6 3.2 1.5-.6 3.2-1.1 4.7-1.9-3.2.1-6.3-.5-9.4-2.2-2.3-1.2-3.5-2.6-4.9-4.1-1.2-1.3-2.2-2.5-2.9-3.9-2.4-.7-3-3.3-2.8-5.7 2-1.4 2.8-4.1 2.4-6.8-.2 0-.4-.1-.5-.1" class="st0"/><path d="M165.5 40.5c-1.2.8-2.3 2.1-3.5 3.2-.1.1-.5.1-.6.2-.2.2-.4.6-.6.8-.9.9-1.8 1.8-2.6 2.7-1.5 1.6-2.1 4.1-3 6.9.5 1 .7 2.4 1.2 3.7.3.8 1.2 2.8 1.7 3.3 1 1 2.9 1 4.2.4-1.9-2.4-2.6-5.6-3.6-8.6l.8-4.7c1-1 1.9-2.3 3-3.1 1.2-2.4 3.9-3.2 4.8-5.6 0-.1-.1-.2-.2-.2-.2.7-1.1.7-1.6 1" class="st2"/><path d="M154.9 43.3c-1.2 2.1-3.6 3.8-4.3 6.3-.5 1.7-.2 3-.4 4.7-1.8-2-1.6-5.7-.4-8.4-.5-.1-1-.1-1.4-.1-3.8 2.6-3.9 9.6-3.5 14.4 1.9 2.6 4.9 8 9.4 6.7.5-.7 1.1-1.2 1.5-2-.9.2-1.3 1-2.1 1.1-1.7-.2-3.2-.6-3.9-1.8 1.3.4 2.4 1.2 3.8 1 .9-.7 1.9-1.1 2.6-2.1-2.2-.7-4.5-1.6-5.2-3.5.2-2.7.2-6.4 1.6-9 .2-.4.9-.9 1.3-1.5 1.6-2.1 3.4-3.8 4.6-6.1-1.5-.9-2.4.2-3.6.3" class="st0"/><path d="M143.4 52.8c-1.6 1.7-1.9 3.9-1.8 6 0 .8.5 1.6.4 2.3 0 2 .7 4.2 1.3 5.8 1.2 1.1 2.7 2.1 4.5 2.9.6-.2 1.4-.2 1.8-.6-3.8-2-6-5.2-6.6-9.4.5-1.7.5-4.7.8-7-.2 0-.1-.2-.3-.2 0 .1-.1 0-.1.2" class="st2"/><path d="M151.4 69.7c-.5.7-1.2 1.2-1.6 2-.9.3-2.2.4-2.9.6 1.2 2 4.8 3.4 7.3 2.5 1.8-2 3.6-5.8 3.6-8.4 0-.1 0-.1-.1-.1-1.8 1.4-3.5 5.1-6.3 3.4" class="st0"/><path d="M151.8 79c.4-.2.6-.7.8-1.2-5.8-1-7.9-6.1-10.1-10.1.8 5.1 2.4 11.7 9.3 11.3" class="st2"/><path d="M141.3 90.3c1 0 1.7-.5 2.4-1 1.1-.1 3-.9 5-1 .7-.1 1.4.1 2 0 1.4-.2 3.7-1.5 3-3.2-3.2-.5-5.9-1-8.2-2-.2-.6.1-1.6.1-2.3-.5-.4-.7-1-1.3-1.3-.4 3.4-2.8 7.1-3 10.8" class="st0"/><path d="M139.1 92.6c-.5-.1-.9-.2-1.4-.2-4.4 2-8.2 5-13.3 5.9-2.7-.4-6.8-.1-9.1-1.8-.3-.4-.5-.9-.8-1.3-1.1 1.4-2.8 1.8-4.8 1.8-4.7-1.1-7.4-3.6-11.3-5.2 0 .6-.6.4-.9.6-2.7-.7-7.2-.6-7.7 2.6.5 1.4 2.2 2 3.6 2.8-.5-1.4-1-3.1.5-4.1 3-1.7 9.9 1.4 11.1 3.9.3.7.3 1.4.4 2.2 2.5-.4 6.3-1.2 8.3.7.6 0 .7-.1 1.2.2 3-.2 6.1-1 9.4.5.2.1.9 1.1 1.3.8-.2-1.3.2-1.7.5-2.9.9-.5 1.5-1.3 2.9-1.1 1.4-2.1 6.1-3.7 7.9-.8 0 .4 0 .8-.2 1.3 1.7-.4 4.9-3.8 2.4-5.9" class="st4"/><path d="M147.6 91.1c-1.1 1-1.4 3.3-1.7 5.3-.5 3.2-.2 6.6-1.4 9.4 0-1.9.1-4.9.2-7 .2-2.7 1.1-5.7-.1-7.4-.7.3-.9 1.3-1 1.9-.6 2.4 0 5.2-.7 8.1.3 1.2-.4 2-.7 2.9-1.1 3.2-1.4 6.2-2.6 8.5-1.1-.4-2.4-2-3.6-1.1.1 3.1-1.2 6.4-3.3 7.6-1 0-1.6.4-2.5.3-2.6-.4-2.8-2.6-2.2-5.1-2 1.1-3.1 2.4-3.6 4.4-.1.4.1 1.4-.6 1.4-.5-.2-.2-.9-.3-1.4-1.9-1.1-3.2.7-4.5 1.4 0 .4.5 1-.1 1.2-1.1-.5-.7-2.4-2.4-2.1 0 1-.1 1.9-.6 2.6-2.6 2.2-8.2-.8-4.9-4.2-.3-.2-.7-.8-1.1-.6.2 5.4-8.5 3.5-6.2-1.3-1.3-.2-2.4.1-3 1 .1.5.3 1.1-.2 1.3-.6-.7-.6-1.8-1.1-2.7-1-1.1-2.1-3-4-2.9-.1.8.5 2 .8 2.8-.3.4-.3.9-.6 1.1-1.7 1.7-4.4 1.9-6.6.2-1-.8-1-2-1-3.3-2-.1-2.5 2.2-3.2 4-.7.5-.4 1.5-1.2 1.8-.2-.6.1-1.1.3-1.7-.6-.2-.8-.7-1.3-1-.3.6-.2 1.5-.5 2.5 2.5 1.7 5.9 2.8 8.3 4.6 2.2 2 4.3 4.1 5.6 6.7.6.3 1 1.3 1.8 1.4.5.1 1.3-.4 2.1-.6 2.6-.6 6.7-.7 9.8-.6h.4c4 .8 7.1.7 10.7 1.9 1.6-.2 2.6-1.1 3.8-2.3 1-.9 2.1-1.8 2.9-2.4 2.1-1.8 4.2-3.3 6-4.7 4.1-3.2 8.2-6.2 12.2-9.1 1.7-.7 3.1-2.1 4.9-2.7.2-.2.3-.4.5-.7.4.2.5-.1.7-.2-.2-1-.8-1.7-1.3-2.5-1.8-3.5-1.9-7.8-1.8-12.5-.4-1.1-.2-2.6-.4-3.7-.1-.2-.4-.4-.7-.5" class="st0"/><path d="M103.4 5.3c.3.4.9.4 1-.2.1-.7-.8-2-1.2-.7-.1.3.1.7.2.9m1.3 1.6c-1.8-.1-2.5-1.8-1.8-3.6C105 2 106 5 104.7 6.9M129 10c-.5.2-1.2-.2-1-.8.4-.8 2 .3 1 .8m.5.9c-1.1-.1-1.9-.4-2.1-1.1 0-1.5 1.3-1.7 2.3-1.2.4.7.6 1.9-.2 2.3" class="st3"/><path d="M183 26.6c.3.2-.3.4.2.5-.8.4-1.5.9-2.3 1.4-1.7 3.2-4.2 5.1-5.6 8.8 3.1-2.5 6.5-6.3 10.9-7-.7.5-1.5.9-2.3 1.2.1.4-.2.4-.2.7-3.3 2.2-6.8 4-8.9 8 3.6-3 7.5-5.5 11.9-7.2-.3.6-1.2.4-1.3 1.4-.5-.1-.6.2-.8.4-1.5.7-2.9 1.5-4.2 2.6-1.4.4-2.2 1.7-3.6 2.3-.3.6-.8 1-1.4 1.3-.2.9-.9 1.1-1.4 1.5-.9 0-1-.5-1.3-.9.4-1.2.3-1.8-.1-2.6 1.9-4.3 4.8-7.1 7.1-10.9q1.8-.9 3.3-1.5" class="st1"/><path d="M123.7 43.2c-.6 1.8-2.7 3.6-1.4 5.2 1.2-.1 1.9-.9 2.9-1.3 1.1-.4 2.4-.5 3.6-.7.7-1.4 1.3-3.3 1-4.5-1.8.1-4.2.6-6.1 1.3m6.8-2.3c1 1.4-.1 5.3-1.4 6.4-3-.2-4.5 1.9-7.3 2-1.4-1.4-.7-3.1.3-5 1.2-2.3 1.9-2.5 4.5-3 1.5-.2 2.6-.3 3.9-.4m3 2.6c-.6 1-1.2 2.1-1.1 3.4.7 1.1 1.7 1.6 2.8 2.3 1.4-.8 2.9-1.3 4.5-1.8.4-.7.1-1.3.1-2.2-2-.6-4.4-.9-6.3-1.7m1.2-.7c1.7 1.1 4.9.7 6 2.2-.1 1.1 0 1.8-.3 3-.5.5-1.6.7-2.9 1.2-1 .4-1.8 1.1-2.5 1-1.4-.2-2.3-1.9-3.4-2.8-.3-1.5.6-3.2 1.2-4.4.2-.1.4-.2.5-.3.7.1.7 0 1.4.1m-34.6-.6c-1.6-.3-2.8.2-4.3.4-.3 1-.2 1.1-.5 2.1-1 .6-2.6.2-3 1.7-.3.1-.7 0-.9.4.6 1.4 2.5 2 3.6 2.8 1.5-.7 3.1-1.3 4.5-2.1.3-1.9 1-3.4.6-5.3m.5-.8c.9 1.8-.1 4.4-.3 6.2-1.4 1.6-3.5 2.2-5.5 2.8-1.6-.6-2.4-1.7-3.8-2.4-.2-.6-.4-1.1-.2-1.6.2-.4.4-.3.9-.7.7-.6 1.6-1.8 2.8-1.4.2-.4.2-1.6.4-1.9 1.3-1 3.7-1.2 5.7-1m12.4 6.9c-1-3.2-5.5-4.1-9-5-1 .6-1 2.5-1.1 3.7 1 1.3 3.1 1 4.7 1.9 0 2.3 2.7 1.9 4.7 2 .3-1.1.5-1.5.7-2.6m-6.2 1.1c-1.7-.5-3-.6-4.4-1.5-.8-1.1-.2-3.4.5-4.6-.2-.4-.5 0-.3-.6 1.1-.5 2.9-.2 4.5.3 3.4 1.1 6.4 2.4 6.8 5.5-.5.9-.2 2.5-1.3 3.1-.1.1-3.6.2-4.4-.2-.9-.3-1.1-1.3-1.4-2m8 42.6c-.7-.3-.8-1.4-1-2.1-.7-2.4-1.2-6.6-1.9-9 1.2-2.6 3.5-5 1-7.4-4.2-2.3-8.9-3.9-12.9-6.7-1.4-1-3-1.8-3.9-3-1.2-1.8-1.8-4.1-2.6-6.1-.8-2.1-1.6-4.1-3-5.9-.2-1.3-.7-2.5-.8-4 1 .7 1.2 2.7 1.8 4 2.9 3.2 4.6 7.1 6.6 10.8 4.2 3.8 11.8 5.3 16.5 8.6 0 .4.2.6.6.8 0 .6.3 1 .4 1.5.7-1.8 1.9-2.8 3.2-3.7 3.8-1.1 7.9-3 11.8-4.4 2.7-1 5.9-1.5 6.6-5.3.6-3.1-.4-6.6 1.2-9.1.5-.3.8-1 1.6-.9-.3 1.1-1.3 2-1.5 3.4-.4 2.6.2 5.5-.3 8-.4 2.2-1.4 3.9-3.3 5.4-2.8 1-5.8 2.6-8.7 3.1-2.3 1.2-5.7 1.9-7.6 4.2-.2.8-.5 1-.6 1.5-.3 1.3 1.1 2.4.9 3.8-.1.5-.5 1.2-.8 2-.8 1.9-1.3 4.7-1.9 7-.2.6-.6 1.2-.7 1.8s.2 1.6-.7 1.7m17.3-40.2c.4-2.5-7.9-4-6.7.6 1 .9 2.5 1.5 3.5 2.3.6-.9 3.1-1.8 3.2-2.9m-3.3 3.9c-1.5-.7-2.7-1.7-4.1-2.4-.6-1.1 0-2.4.3-3.8 1.3-.6 2.9-.8 4.5-1 1.8.9 3.9 1.8 3.5 3.7-.2.9-1.3 1.4-2 2.1-.7.5-1.4 1.1-2.2 1.4" class="st3"/><path d="M120.8 53.9c-.2.6-.2 1.1-.1 1.5q1.05 0 1.8-.6c0-.4-.2-.6-.1-1-.8 0-.9.1-1.6.1m2.3-.7c.1.7.4 1.2.2 2-.8.8-2.3 1.1-3.4 1 0-.6-.5-2.2.4-3.1.8 0 1.8-.4 2.8.1m11.9 4.3c-.3-1.9-2.5-.9-3 .4.4.7.5 1.6 1 2.2.1-.2.6.1.9.1.5-.9.9-1.6 1.1-2.7m-.6 3.6c-2.3.1-2.8-1.8-3.4-3.2.3-2.6 5-3.4 4.9-.3.1 1.4-1 2.4-1.5 3.5m-34-10.9c-.8 1-2.7.7-3 2.1-.2 1 2.1 3 3.2 3.4 1.4-1 2.6-2 3.7-3.5-.5-1.3-2.1-1.8-3.9-2m-.2-.8c2.4.2 5 1.2 4.9 2.9-.1.7-1 1.6-1.8 2.3-.9.8-1.7 2-2.8 1.9-1.4-.1-3.1-2.2-3.6-3.1-1.2-2.4 2.1-3 3.3-4m10.2 5.6c-.4.5-1.4 0-2.1-.1-.9.9-1.2 2.8-.3 3.6 1.3-.3 3.8-1.7 2.4-3.5m-2.8 4.4c-1.6-1-1.2-3.9.2-5.3 1-.2 2.4.2 3.5.3 1.2 2.9-1.4 4.8-3.7 5m-8.2 1c.3.2 1.1.5 1.7.3.1-.5.3-1.1.2-1.5-.8-.8-2.4-.1-1.9 1.2m2.5 1.2c-1.1.6-2.4.1-3.3-.6 0-1.1-.3-1.9.5-2.7 1.5-.4 2.9-.4 3.2 1.2-.2.7-.3 1.6-.4 2.1M139 74.5c.2 0 .2.1.3.2-.1 2.3-.7 4.9-1.4 7.6-1.3 3.4-3.6 5.8-5.9 7.2-1.6.2-2.7 1.7-4.4 1.2.9-.7 1.7-1.6 3-1.8 2.7-2 5.1-5.5 5.7-9.8-.7.1-1.1.6-1.8.6-1.4 5-5.3 10.8-10.8 8.8-.1.7-.2 1-.2 1.5-.4.4-.6 1.9-1.4 1.4-.5-.2.4-.5.3-1 .3-2.9-.3-5.9 1.1-8.1 4.1-4 12.8-1.5 15.5-7.8" class="st3"/><path d="M136.2 79.1c-.7.1-1.1.6-1.8.6-1.4 5-5.3 10.8-10.8 8.8-.1 1.5-.6 2.2 1.3 2.3 1.8 0 4.2-.9 5.6-1.9 2.7-2.1 5.1-5.6 5.7-9.8" class="st2"/><path d="M93.2 73.5c.8.3.7 1.2 1.4 1.7 1 .6 1.8 1.5 2.9 2.1.7 0 1.2.5 2 .7 3.8 1.4 9.2.9 8.9 5.7 0 .6-.3 1.1-.4 1.7-.4 2-.5 3.8-.6 5.5-.8-.2-.7-1.8-.7-2.9-5.2-.6-7-4.8-7.7-9q-.75-.45-1.8-.6c-.1 3.4 1.2 5.7 2.5 8.1.6.3.8 1 1.4 1.5.5.5 1.7.6 1.6 1.5-.6.4-1.2-.5-2-.6-3.8-3-5.8-7.2-7.3-11.8.2-.6-.1-.9.1-1.4-.2-.6-.5-1-.6-1.8 0-.2.2-.2.2-.4z" class="st3"/><path d="M97.1 78.4c-.1 3.4 1.2 5.7 2.5 8.1.6.3.8 1 1.4 1.5.9.8 5.8 2.7 5.5.1-4.8-1.1-6.9-4.3-7.7-9.1-.5-.2-1.1-.5-1.7-.6" class="st2"/><path d="M65.4 97.2c-.9-.4-1.9-.3-2.5.1-.3 1.1-.4 1.8.1 2.5 2 .6 3.3-1.3 2.4-2.6m-3-.7c.9-.9 3-.4 4.1.1 1.6 1.3.8 4.1-.9 4.8-.9-.3-1.5.1-2.2-.1-1.9-.5-1.8-3-1-4.8m77 18.1c0 1.4-.8 2.6-1.8 3 .1-.2 0-.2-.2-.3 1.6-.6.2-3.7 2-2.7m-55.5-8.5c-.1.2 0 .3.2.4-.2.6-.6 1.1-1.4.9-.2-.1-.1-.4-.4-.4 0-1.2.9-1.4 1.6-.9m-30.6-2.9c.3.3.5.8 1 1.1.7-.2 1.3-.6 1.5-1.4-.1 0-.1-.2-.1-.3-.8-.7-2.5-1.2-2.4.6m-.7-1.3c1.3-1.4 5.2-1.5 4.8 1.4-.6 1.1-1.2 2.2-2.5 2.3-1.9-.4-2.8-1.6-2.3-3.7m27.7 6.9c.8-.2.7-1.3-.2-1.6-.4.5-.6 1.4.2 1.6m.3 1c-1.9 0-1.7-1.5-1.9-2.7 2-2.3 4.5 1.5 1.9 2.7m-31.7-4.5c.2.4.3 1 1 .9.2-.4.6-.6.7-1.3-.5-.6-1.4-.3-1.7.4m.7 2.1c-1.4-.6-2.1-2.3-.8-3.5 3.1-1.5 3.9 3.5.8 3.5m17.1 5.2c.5.1.6-.3.9-.6 0-1.7-2.2-.2-.9.6m.5-2.2c1.7.2 1.8 3.3-.2 3.3-1.9 0-2.5-3.5.2-3.3m-20-1.6c-.3.5-.2 1.3-.1 1.7 1.2.2 1.7-.4 1.7-1.4-.5-.5-1-.4-1.6-.3m-1.1-.2c.9-.8 1.8-1.4 3.4-.7 1.5 1.8-.7 5-3 3.4-.6-1-.8-1.3-.4-2.7m51.6 11.1c.4 0 .5.2.7.2-.6 1.6-1.8 2.2-3 2.8-.2-.2-.5-.7-.3-1 1.2-.3 2.4-.4 2.6-2M68.1 117q.15.45.6.6c0-.1.1-.1.2-.1.2-.1.2-.5.3-.8-.2-.1-.4-.3-.6-.4-.2.3-.5.3-.5.7m-1.3.1c-.1-1.4 1.4-2.1 2.8-1.4.9 1 .2 3.2-1.2 3-.8-.1-1.1-1-1.6-1.6m-4 5.7c.7.9 2.2.4 2.6-.3 1-3.2-3.5-2.5-2.6.3m-1.2.6c-.5-2.6 1.8-5.4 4.2-3.5 1.3 1.8.1 4.8-2.4 4.4-.6-.2-1-.7-1.8-.9m-3.6.6c.5-.6.5-1.6-.5-1.8-.8.6-.8 2 .5 1.8m-.7-2.7c.7-.2 1.4.3 1.8.6.5 1.1.1 2.9-1.2 3.2-2.3-.2-2.2-1.9-1.7-3.3.4-.1.6-.4 1.1-.5m-13.1 4.6c-.2.6 0 1 .1 1.4.9.2 1.6.1 1.6-.9-.4-.4-1.2-.7-1.7-.5m-.6 2.1c-.2-.5-.3-1-.5-1.5 0-2.5 4.5-1.6 3.4 1.1-.6.8-1.9 1.1-2.9.4m-3.5.3c.6-.2 1.2-.3 1.3-1.3-.3-.5-1-.7-1.4-1.2-.8.8-.7 1.9.1 2.5m-.1-3.2c2.1-.3 2.8 1.8 2.2 3.3-1.5 2.2-5 0-3.3-2.7.4-.2.6-.6 1.1-.6m-22.9 10.6c-1.7.7-3.2 1.1-3.6 3.1.6 1.7 1.9-.2 2.6-.2.4.4-.4.6-.7 1.1-.9 1.5-1.1 3.5 0 4.8-.8 1.5-1.2 4.2 1.3 3.7.8-.8.6-2.2.3-3 .9-.4 1 .9 1.9 1.1.8.2 1.4-.6 2.2-.1 0 .4 0 .8.1 1.1-2.2 2-2.1 7.9 1.5 7.2.3-.4.4-.7.6-1 1.1-2.9-1.4-4.3-1-7.1.4-.3.3-1.2.8-1.4s.9.2 1.4 0c1.1-.6 1.1-2.2 1.5-3.1 1.1.5 3.1.5 3-1.2-.1-1.1-2-1.8-2.8-2.1-.5-.5.2-1.1.3-1.6.3-2.4.5-4.4.1-5.8 1.5-1.8 3.2-3.2 4.4-5.3-5.7 1.8-10 5.6-13.9 9.8m15.4-10.5c-.6 3.1-2.7 4.2-4.1 6.4.1 1.9.4 4-.3 6.1 2.6.8 3.8 6.1 0 6.3-.8 1.6-1.8 3.1-3.7 3.3.9 2.2 2.5 4 1.6 6.9-.6.8-1.3 1.4-1.9 2.1-1.4.7-3.6.5-4.4-1-.3-.6-.1-1.3-.7-1.6-.4-2-.3-4.3.8-5.8-.6-.5-.8.4-.9 1-.6.8-2 1.3-3.2 1-1.7-.7-2.4-2.7-1.4-4.6-.7-1.2-1-2.8-.3-4.5-3.5-1.6 0-5.4 2.5-5.7.8-.8 1.5-1.8 2.2-2.6 3.9-2.8 7-6.5 12.6-7.2.3-.7.8-.3 1.2-.1m-13.3 13.3c.1-.2.3-.2.6-.2.4-.7.6-2.3.3-2.8-1.1.2-1.4 1.2-1.7 2.4.3.2.9.4.8.6m1.5-3.7c.7 1.4.4 2.9-.3 4.2-3.7 1.6-2.7-5.1.3-4.2" class="st3"/><path d="M17.5 141.7c.1 0 .3 0 .3.2.5-.1.9-.6.6-1.1l-.9-.1c0 .4-.2.7 0 1m0 1c-.2-.4-.5-.8-.8-1.2 0-1.8 2-2.3 2.6-.8 0 1.4-1 1.6-1.8 2m10.4 20.1c-.3.4-.7 1.6-.3 2.2.9.2 1-.6 1.5-1 .2 0 .3 0 .5-.1.3 1.3 1.3 2.9 3.3 2.3 1.2-.9 1-3.3.1-4.1-2.6-1-3-3.9-5.1-5.4-.1 2.5-.4 4 0 6.1m1.2 2.7c-.8.4-2.2.6-2.7-.3.3-2.9.2-6.5.6-9.8-.3-.1.2-.2.1-.3h.4c1.7 1.6 3 3.7 4.6 5.4.3 0 .4.2.9.2 1.8 1.4 2 4.9.1 6.3-1.4.8-3.6 0-4-1.5m18.8-27.8c.9-1.8.5-3.9-1.8-4.2-1.2.2-2 1-2.6 1.9.3 1.9 2.7 3.6 4.4 2.3m6.1-.6c.3-1 .1-1.7-.2-2.2-1.1-.8-2 .2-3 .4-.4.5-.6 1.1-.9 1.8.9 1.4 3.4 1.5 4.1 0m-11.1-4.4c1.2.5 2.4.2 2.6-1.2-1.1-2.2-3.5-.7-2.6 1.2m12.7.3c-.5.9-.9 1.7-.4 2.6 1.4 1.2 3.4 1.1 3.9-1.1-.4-1.7-2-2.1-3.5-1.5m-6.3.8c3.6.9 4.8-4.6.2-3.4-.2.4-.3 1-1 .7-.4 1 0 2 .8 2.7m10.3-1.1c0 1 1.6 1.9 2.7 1.6.8-.2 1.3-1 1.7-2.2-1-2.2-4.3-1.6-4.4.6m-2.1-4.5c-2.2-1.5-4.4.9-2.9 3 .9.6 1.9.7 3 .5 1.1-1.1.8-2.9-.1-3.5m1.8-.6c-.6 2.3 2.1 2.6 3.5 1.4.2-.7.2-1.3.2-2-1-1.4-3.3-1-3.7.6m5.1-.4c-.6 1.2-.6 3.3.4 3.8 1.8 1 4.2-2.6 3.6-4.7-1.4-1.4-3.3-.6-4 .9m6-2.1c1.5-.7 2.9-3.2 2.3-4.9-3.5-1.2-4.9 3.7-2.3 4.9m7-10.7c-.6-.3-1.4-.4-1.7-.9-1.9.2-3.3 2.9-2.5 4.9 2.7 1 4.5-1.4 4.9-3.4-.8.1-.3-.5-.7-.6m35 3.4c-.8.7-1.8 2.1-.9 3.1 1.3.8 2.8.9 3.9.2.2-2.3 0-5.1-1-7-.8 1.2-1.9 2.2-2 3.7m-4.5 1.6c.4-.3.8-.6 1.1-1 0-3.6-.4-6-.6-9.4-.3 0-.3-.2-.5-.3-1.7 2.5-2.6 5.7-3.4 9.4.8 1 1.9 1.2 3.4 1.3m-17.5-14.5c-.1 0-.1-.1-.2-.2-.1.2-.2.1-.3.3-1 3.8-.8 7.9-.4 10.5 1.6 1.4 4.8 1.7 5.6-.2-1.5-3.6-2.7-7.2-4.7-10.4m38.5 12.5c.6 1 2.3 1.1 3.4.9 4-2.7 2.8-8.5.6-11.9-1.7 3.5-4.3 6.9-4 11M81.8 111c1-.2 2.4 1 3.3.4.8-.6.1-1.8 1-2.2.6.3 1.5 1.1 2.1.5.3-1.9.2-4.7 1.7-5.9.4.2.9.3 1.5.4 1 1.6 1.7 3.4 2.6 5.1 2.9.5 5.9.7 8.1-.4 1.4.8 2.6 1 4 1 .4-1.2 1-2.2 2.1-2.4.2.4.4.4.9.4.5.8.2 1.9.5 3.1 2 .7 3.6.4 5 0 1 .9 2.6 1.7 3.7 2.2.8-.3 1.5-.6 2.1-1.1.1-1.1-.1-2-.2-2.9-3.4-3.7-10.1-6.1-15-7.2-.2.7-.4 1.6-.9 1.9-.5-.1-1-.7-1.4-.6-.9 1.8-.4 4-1.7 5.1-1.2 1-3.6-1.7-4.2-2.7-1-1.5-1.7-3.2-2.2-4.4-3.4-.8-6.9-.1-9.7-.1-2.7 0-5.3 0-7.4 1-.3.4-.4.7-.6 1.1-2.6-.6-5.2.3-6.8 2.4-2.7-1.3-4.7.4-5.8 2.3.1.3.2.5.2.9-.2.2-.4.5-.8.6-.4-.5-1.4-.4-2-.7-.3.2-.5.5-.9.5-.6 1-1.1 1.4-1.4 2.5.1.5-.1.8-.4 1-.2-.1-.3-.3-.7-.4-.5.2-.8.7-1.1 1.1-.2.5.5.7.1 1-.7.1-1.4 0-2.3.1-.5.7-1.4.9-1.8 1.7-.6 1-.2 2.9-.3 3.8-.5.2-.6 0-1.2-.2-1.2.4-2.3 1.4-2.2 3.1-.2 0-.3.2-.5.2-.5-.4-.9-.2-1.5-.2-.6.6-.3 1.7-1.4 1.5-.2-2 1-3.4 2.1-4.2.2-2.1 1.7-2.7 3-3.4.2-3.3 2.6-4.6 4.9-5.2.1-2.4 2.1-3.1 3.4-4.1.2-1.4 1-1.9 1.5-2.7.8-.1 1.3-.6 2.2-.6 1.4-2.7 4.7-3.6 7.7-2.7.6-.5 1.3-.7 1.8-1.2 3.8-1.5 8.7-2.1 12.9-2.3.6 0 .8.3 1.6.3.4-.3 1-.3 1.4-.6-3.5-1.7-7.9-2.4-11.5-2.9-1.3-.6-2.3-1.4-4-1.8-.9.3-1.5.9-2.7.8-.2-.9-1-1.8-2.3-1.7-.2.4-.5.9-.8 1.3-4.2.2-7.9 1.8-11.3 3.5-1.2-.4-2.1-.8-3.1-.5-.7.3-.7 1.7-1.5 1.9-.8.1-1.4.3-1.8.9-.4 1.1.6 2.4-.4 2.8-.6-.7-1.6-.3-2.3-.1-.2.8.1 1.3.2 2-.6.4-1.3-.2-2.1-.1-.6.5-1.3 1-1.6 1.9.2.6.6 1 1.3 1.4-.2.3-.2.5.2.7-1 .9-2.1 2.3-3 3.6-.2.6 0 1-.6 1.2-1.4-.4-2.8.4-3.4 1.7.3.7.7 1.3.9 2-1.4.4-3.1.8-3.7 2.4s.2 2.7 1.1 3.9c.5.2 1 .3 1.1.7-1.3 1.1-2.6 3-1.4 4.6.9.4 1.5 1.2 2.8 1.1 0 2.3 1.1 5 4 4.5-1.9-.9-1.3-3.4.1-4.5 1.9.1 3.8.9 3.1 3 .5.1 1 .2 1.3.4-.4-3.3 2.7-3.7 5.7-3 .2-3.2 3.3-3.5 5.2-1.9.1-2.6 3.8-3.5 5.4-1.5.9-1.5 3.4-2.5 5.1-1.2-1.8-2.3.1-6.6 3.4-6-1.9-3.4 2.6-8.7 6.2-5.6.3-.5.2-1 .8-.9.3 1.1 3.1.6 2.6-1.4m22.3-13.1c-2.2-2-6.1-4.5-9.7-3.4-.1.6-.2 1-.6 1.4.8 2.5 1.7 5 2.7 7.4 1.2 1.5 1.9 3.4 4 4.1 1.1-1.6.7-4.2 1.8-5.4.6-.2 1.2.3 1.7.6.6-1.7.5-3.4.1-4.7m24.6 1.7c-.5-.1-.5-.5-.9-.6-1.5.6-1.2 2.1-1.4 3.7-.3 2.6-1.3 5.3 0 6.8 1.5-1.6 2.5-4 3.8-5.8.7-.3 1.5.3 2.4.3 1.5-.9 1.8-3.7 3-5.2-.2-.5.2-.8.1-1.4-2.8-1.9-5.5.4-7 2.2M87.1 88.7c.4.6.8 1.9 2 2.4.6-1 1.4-1.8 2-2.8.2-1.5-.4-2.6-1-3.8-1.1 1.3-1.8 2.9-3 4.2m52 3.9c-.5-.1-.9-.2-1.4-.2-4.4 2-8.2 5-13.3 5.9-2.7-.4-6.8-.1-9.1-1.8-.3-.4-.5-.9-.8-1.3-1.1 1.4-2.8 1.8-4.8 1.8-4.7-1.1-7.4-3.6-11.3-5.2 0 .6-.6.4-.9.6-2.7-.7-7.2-.6-7.7 2.6.5 1.4 2.2 2 3.6 2.8-.5-1.4-1-3.1.5-4.1 3-1.7 9.9 1.4 11.1 3.9.3.7.3 1.4.4 2.2 2.5-.4 6.3-1.2 8.3.7.6 0 .7-.1 1.2.2 3-.2 6.1-1 9.4.5.2.1.9 1.1 1.3.8-.2-1.3.2-1.7.5-2.9.9-.5 1.5-1.3 2.9-1.1 1.4-2.1 6.1-3.7 7.9-.8 0 .4 0 .8-.2 1.3 1.7-.4 4.9-3.8 2.4-5.9m8.5-1.5c-1.1 1-1.4 3.3-1.7 5.3-.5 3.2-.2 6.6-1.4 9.4 0-1.9.1-4.9.2-7 .2-2.7 1.1-5.7-.1-7.4-.7.3-.9 1.3-1 1.9-.6 2.4 0 5.2-.7 8.1.3 1.2-.4 2-.7 2.9-1.1 3.2-1.4 6.2-2.6 8.5-1.1-.4-2.4-2-3.6-1.1.1 3.1-1.2 6.4-3.3 7.6-1 0-1.6.4-2.5.3-2.6-.4-2.8-2.6-2.2-5.1-2 1.1-3.1 2.4-3.6 4.4-.1.4.1 1.4-.6 1.4-.5-.2-.2-.9-.3-1.4-1.9-1.1-3.2.7-4.5 1.4 0 .4.5 1-.1 1.2-1.1-.5-.7-2.4-2.4-2.1 0 1-.1 1.9-.6 2.6-2.6 2.2-8.2-.8-4.9-4.2-.3-.2-.7-.8-1.1-.6.2 5.4-8.5 3.5-6.2-1.3-1.3-.2-2.4.1-3 1 .1.5.3 1.1-.2 1.3-.6-.7-.6-1.8-1.1-2.7-1-1.1-2.1-3-4-2.9-.1.8.5 2 .8 2.8-.3.4-.3.9-.6 1.1-1.7 1.7-4.4 1.9-6.6.2-1-.8-1-2-1-3.3-2-.1-2.5 2.2-3.2 4-.7.5-.4 1.5-1.2 1.8-.2-.6.1-1.1.3-1.7-.6-.2-.8-.7-1.3-1-.3.6-.2 1.5-.5 2.5 2.5 1.7 5.9 2.8 8.3 4.6 2.2 2 4.3 4.1 5.6 6.7.6.3 1 1.3 1.8 1.4.5.1 1.3-.4 2.1-.6 2.6-.6 6.7-.7 9.8-.6h.4c4 .8 7.1.7 10.7 1.9 1.6-.2 2.6-1.1 3.8-2.3 1-.9 2.1-1.8 2.9-2.4 2.1-1.8 4.2-3.3 6-4.7 4.1-3.2 8.2-6.2 12.2-9.1 1.7-.7 3.1-2.1 4.9-2.7.2-.2.3-.4.5-.7.4.2.5-.1.7-.2-.2-1-.8-1.7-1.3-2.5-1.8-3.5-1.9-7.8-1.8-12.5-.4-1.1-.2-2.6-.4-3.7-.1-.2-.4-.4-.7-.5m-63.8-8.7c-1.3.3-1.6-.6-2.6-.7.3 1.1 1.3 1.8 1.8 2.9-.8 1.3-2.9 1.3-4.7.7-.2 2.2 1.8 2.8 3.6 3.6 1.6-.5 3-1.3 4-2.6 1-2.3 3.1-4.8 2.8-7.8-1.1 1.3-3.1 3.4-4.9 3.9m57.5 7.9c1 0 1.7-.5 2.4-1 1.1-.1 3-.9 5-1 .7-.1 1.4.1 2 0 1.4-.2 3.7-1.5 3-3.2-3.2-.5-5.9-1-8.2-2-.2-.6.1-1.6.1-2.3-.5-.4-.7-1-1.3-1.3-.4 3.4-2.8 7.1-3 10.8M39.7 57.9c-.1.2-.1 1 .5 1 .1-.3.1-.6.2-.9-.5.1-.5-.3-.7-.1m34.8 12.3c-.1.8-.8.6-.9 1.5.3.6.3 1.3.9 1.7.8.1 2.3.1 3 .1.9-1 2.7-2.2 4-3.4.4-.4 1.4-1.3 1.6-1.8.3-1.1-.4-2.6-.5-3.9-1.8 3.4-5.3 4.2-8.1 5.8m-38-13.7c.5.2 1 0 .8-.7-.5-.1-.6-.1-.8-.3-.1.4-.2.8 0 1m31.3 10c1-.1 3.8-.7 4-.4.5-.6 1.6-.2 2.3-.6 1.5-1.8 3.8-3.1 4.7-5.3-1.4 1.1-3 2.1-4.6 3q-2.55.6-4.8 1.5c-.4-.2-.4-.1-.6-.2-2.6.6-5.6 0-8.6-.7-2.2-.5-4.6-1.6-5.9-.9 1.9 5 8.9 4.2 13.5 3.6m15.3 12.7c1.9-1 3.3-2.7 4.6-4.5.2-1.3.4-2.8.4-4.2.9-1.4 2-3 2.6-4.4-.2-2-.5-4.5-1.7-5.5-.1 0-.2 0-.2-.1-.6 2.3-.8 3.4-1.3 5.4-.5 1-1.4 1.4-1.8 2.7-1.8 1.6-3.2 3.5-4.7 5.8-.6.2-.9.7-1.5.9-.9.4-1.9.5-2.6 1.2 1.7 1.3 3.4 3.4 6.2 2.7m1.7-21.4c-4.7.5-6.3 5.6-9.4 8.5-1.7.3-4 1.6-6.5 1.8-1.5.1-4.9 0-5.1 1.1-.3 1.5 2.9 1.7 4 2.2 1.8-.1 3.1-.7 4.6-1.4 3-1.4 5.9-2.9 8.4-4.6 1.2-2.6 3.9-4.2 4.2-7.3 0 0-.1-.1-.2-.3m67 21.2c.4-.2.6-.7.8-1.2-5.8-1-7.9-6.1-10.1-10.1.8 5.1 2.4 11.7 9.3 11.3m-.4-9.3c-.5.7-1.2 1.2-1.6 2-.9.3-2.2.4-2.9.6 1.2 2 4.8 3.4 7.3 2.5 1.8-2 3.6-5.8 3.6-8.4 0-.1 0-.1-.1-.1-1.8 1.4-3.5 5.1-6.3 3.4M62 46.2c.6.5 1.3 1 2.2 1.3.5-.2 1.1-.3 1.4-.8-1.2-.7-1.9-1.6-3.2-2.2-.5.6-.1 1.2-.4 1.7m15.7-.3c.6 1.1 1 2 1.5 3.1 2.1 1.4 3.6 3.2 5 5.1.4.4.2 1.1.8 1.4.5-2.2-.6-4-1.3-5.7-1.9-1.5-2.7-3.6-5.5-4.6 0 .2-.3.3-.5.7m-21.6.2c.1.3-.1.4-.1.9 1.5 4.1 4.8 8.6 10.1 9.6 3.6.2 6.6-.6 8.7-2.6-.4-.2-.7-.6-1.3-.8-1.9 1.1-4.9 1.2-7.5.6-5-1.2-8.1-6.2-6.6-11.1-.8-.9-2.1-1.6-3.3-2.2-.4 1.8-.4 3.9 0 5.6M40.7 34.5c0 3.2.8 7.3 2.1 10 1.9 3.9 4.8 8 7.9 10.9 3 2.7 7.5 4.9 12.3 5.5 1.9.2 3.8-.2 5.6 0 3.8-1.2 7.3-1.9 9.7-5.2-.4-.1-2.1-.7-2.4-1-3.7 3.7-10.9 4.3-16.1.9-1.4-1.7-3-3.4-4.2-5.3-1.4-3.2-2-7-1.6-11.2-4.2-2.2-8-3.6-13.2-4.8-.1 0-.1.1-.1.2m102.7 18.3c-1.6 1.7-1.9 3.9-1.8 6 0 .8.5 1.6.4 2.3 0 2 .7 4.2 1.3 5.8 1.2 1.1 2.7 2.1 4.5 2.9.6-.2 1.4-.2 1.8-.6-3.8-2-6-5.2-6.6-9.4.5-1.7.5-4.7.8-7-.2 0-.1-.2-.3-.2 0 .1-.1 0-.1.2m65.7 6c.1.2.4.2.6.2.4-.3.2-.8-.1-1-.1.4-.6.2-.5.8m4.2-2.1-.6.3c.2.2.1.7.5.7 1 0 .8-1.4 0-1.7-.2.5 0 .5.1.7m-58.4-13.4c-1.2 2.1-3.6 3.8-4.3 6.3-.5 1.7-.2 3-.4 4.7-1.8-2-1.6-5.7-.4-8.4-.5-.1-1-.1-1.4-.1-3.8 2.6-3.9 9.6-3.5 14.4 1.9 2.6 4.9 8 9.4 6.7.5-.7 1.1-1.2 1.5-2-.9.2-1.3 1-2.1 1.1-1.7-.2-3.2-.6-3.9-1.8 1.3.4 2.4 1.2 3.8 1 .9-.7 1.9-1.1 2.6-2.1-2.2-.7-4.5-1.6-5.2-3.5.2-2.7.2-6.4 1.6-9 .2-.4.9-.9 1.3-1.5 1.6-2.1 3.4-3.8 4.6-6.1-1.5-.9-2.4.2-3.6.3m25 4.9c1.2 1 3.6.2 3-2.1-1.1.7-2.3 1.1-3 2.1M66 36.3c.1 0 .1-.1 0-.2-2.6-1.7-5-2.9-7.1-4.8 2.3.1 3.5 2.3 5.8 2.9.1.5 1 .5.9 1 1.9.5 2.9 2.3 4.3 3.4-.7-1.7-2.1-3-3.2-4.4-2.4-1.6-4.2-3.3-6.4-4.8-.7-.2-1.3-.4-1.5-1 2 .2 4.5 1.9 5.8 3.4 1.6.6 2.4 2.1 3.8 2.5-1.8-3.2-5-5.5-8-7.9-.7-.2-1.5-.5-1.7-1.1.7-.6 1 .5 2.2.6 1.9 1.6 4.1 3 6.2 4.8-.8-3.6-3.9-6.2-7.2-8.1-.7 0-1.5-.3-1.3-.9 1.2-.3 2.3 1.1 3.5 1.2 1 .9 2.6 1.3 3.8 2.3 1.8 2.7 3.6 5.6 5 8.7 1 3.6 2.5 6.7 3.8 9.8.6.4 1 .9.9 1.8.9.3 1 1.5 1.7 1.6L68.2 26c-1.1-1.1-1.8-2.5-3.2-3.4-2.5-1.6-7-2.4-10.3-2.9-1-.2-2-.6-3.1-.7-4.8-.6-8 .6-10.9 2.4-2.1 2-4.2 4-6.2 6.1 3-.8 6.2-.4 9.7.1 2.6.4 4.3 1.4 6.6 2.1 1.9 1.6 7.7 2.5 9 5-6.6-2.9-13.8-6.7-22.3-6.5-2.7.4-6.1.9-8 2.9-.5 1 .1 2.5.1 4 0 1.8-.5 3.4.9 4 2.4-.1 5.7-1.4 7.8.1.3.7.6 1.5 1 2.1 1.8 6.4 5.2 12.2 9.8 16.7 5 3.2 12.3 5.9 18.7 5.6.4.1.8.1 1 .3 3.9-1.2 7.4-2.9 10.5-5.3.4-.9.1-1.5.2-2.4-1.2.5-1.9 1.7-2.9 2.4s-2.2 1.3-3.5 1.6c-.2.1-.4.4-.6.4-1.8.6-3.6 1.1-5.7 1.2-2.6-.1-4.7-.1-7.6-.9-10.6-2.8-16.4-12.1-19-21.1 0-1.2-.3-2.2-.3-3.3-1.5-.9-2.7-2.4-4.5-2.4-1.5 0-2.3 1.4-3.7 1.1 1.5-2.1 4-2.5 6.5-2.7.9.4 2.2.2 3.3.5 3.5 1 6.5 2.7 10.2 3.8 4 2.2 8.6 4.5 12.3 6.9 2.7 2.1 5.3 4.1 7.9 6.2 2.5 2 5 4.4 8.8 5.6.6-.9 1-2 1.1-2.9-.6-.8-1.3-1.3-2.6-1.8-2.5-1.8-4.2-4.6-6.6-6.7s-5.3-3.8-7.7-6c.7-1 2 .3 2.4.9 1 .4 1.2 1 2.4 1.4.2.2.6.9 1 .8-1.2-1.8-2.9-3.7-4.7-4.9m102 5c-1.2 2.4-2.8 4.6-4.1 6.8-.5.7-1.2 1.6-1.4 2.3-.4 1-.4 2.6-.2 3.6.4 3.3 2.8 6.2 4.8 8.5.6.1.8.4 1.3.5-1-1.6-1.4-3.5-1.8-5.4-.5-1.5-1.5-2.5-1.8-4.1.8-.2 1 .4 1.2.9 3.5 1.5 3 5.8 4.8 8.4 2.2 2.2 7.3 2.3 10.6 3.2 1.5-.6 3.2-1.1 4.7-1.9-3.2.1-6.3-.5-9.4-2.2-2.3-1.2-3.5-2.6-4.9-4.1-1.2-1.3-2.2-2.5-2.9-3.9-2.4-.7-3-3.3-2.8-5.7 2-1.4 2.8-4.1 2.4-6.8-.2 0-.4-.1-.5-.1m-2.5-.8c-1.2.8-2.3 2.1-3.5 3.2-.1.1-.5.1-.6.2-.2.2-.4.6-.6.8-.9.9-1.8 1.8-2.6 2.7-1.5 1.6-2.1 4.1-3 6.9.5 1 .7 2.4 1.2 3.7.3.8 1.2 2.8 1.7 3.3 1 1 2.9 1 4.2.4-1.9-2.4-2.6-5.6-3.6-8.6l.8-4.7c1-1 1.9-2.3 3-3.1 1.2-2.4 3.9-3.2 4.8-5.6 0-.1-.1-.2-.2-.2-.2.7-1.1.7-1.6 1M183 53.8c1.5-.3 3.2-.2 4.7-.9 4.1-1.8 7.7-8.9 5.6-13.3 0-.1 0-.1-.1-.1-.8.5-1.8.8-2.4 1.6.6 6.4-4.6 11.9-11.9 9.8-.6-.6-1.4-.6-2-1.3-.2.5-.7.5-.9.8 1.8 1.5 3.5 3.1 7 3.4m-4.4 3c14.4 5.9 26.7-4.2 30.8-17.9.2-.8.5-2 .6-3 .3-2 .6-3.6 0-5-.4-.2-.7-.5-1.1-.6-1.2.3-3.3 1.7-3.4 1.7-3.6 1.9-7.3 3.8-10.4 6.4.5.2.2 1.1.7 1.6 1 2.9-.2 6.3-1.2 8.6-1.5 2.4-3.3 4.5-5.6 5.6-1.2.2-2.3.5-3.4.8-2.1 0-4.5.2-6.7-.9-1.3-.6-3-2.2-3.5-3.2-1.1.3-2 1-3 1.4 1.3 1.6 3.2 4 6.2 4.5m-39.8-13.6c-2.1-1-3.4-2.6-3.9-4.6-1-4.3 1.2-9.2 3.8-13 1.3-1.9 6.4-7.4 6.9-9.6.4-1.9-.7-3.4-1.5-4.9-1.2-1.5-4.2-2.4-5.6-2.4-1.3.2-3.3.6-5.2.4-2.2-1.6-7.6-2.4-6.6 1.5 3.4 4.2 6.9-1.1 10.9-.9 1.6.1 3.1.3 4.7 1.3 1.3 1.5 1.9 2.8 1.2 5.2-.6 1.9-3.8 4.9-4.9 6.1-1.6 1.7-2.4 3.2-3.8 5.2-2.3 3.1-3.2 6.6-5.2 10.3-2.5 2.3-6.5 2.4-8.9 4.9-.1.5-.4.8-.7 1.1-1 5.6-2.7 12.9-4.1 17.6-.3 2.4-.4 4.8-.1 7 .1.6.8 1.5 0 1.9-.8-1-1-2.6-1.1-4.1-.1-1.4-.4-3-.3-4.6.2-6.5 1.9-14.1-1.7-18-1.3-1-3-1-4.4-1.4-.9-.2-2.8-1.2-3.2-1.6-2.2-2.2.2-6.2 1.1-9.2.7-3.7 2.1-7 2.1-10.6 0-3.5-.5-6.7-1.3-9.8 1-3 .7-7.1-1.9-8.9-1.1-.2-1.7-.5-2.5-.4-1 1-.8 2.7-.6 3.9.3 1.8 3.7 5.6 4 6.2 2.2 8.7-1.4 20.2-6.5 27.1-1.5.5-2.5 1.2-3.9 2-1.8 1-2.9 1.7-4.6 2.9-.6.5-1.8 1.2-2 1.7-.4 1-.2 2.6-.3 3.7-.1 1.2.1 2.4-.2 3.7 1.9 4.1 5.4 7.6 5.2 12.8-.9 1.5-1.4 3.2-2.3 4.6-.3.5-.7.7-.9 1.3-.6 1.8-.2 3.4.1 4.8.4 2.3 1 4 1.6 5.9.9 2.5 1.8 5.4 3 7.4.8.7 2.3 1.2 3.3 1.3 2.2 1.1 4.9 2.3 7.3 3.6 2.5 1.4 4.9 2.4 7.2 1.1.8-.4 1-1.3 2.1-1.5.4.7.6 1.5 1.3 1.9 2.8 1.4 5.8 1.2 9.5 1.3 3.3-1.4 6.9-3.2 10.1-5.2 0-.6.8-1 1.1-1.7.4-.6.9-1.2 1.4-1.8 1.5-4.4 4.2-7.8 4-12.3-1.2-5.7-1.9-11.2-2.4-17.2-.1-1.4-.6-3.2-.4-4.4s1.2-2.3 1.9-3.5c1.2-2.1 2.4-3.8 2.3-6.2-1.4-1.3-3.5-1.4-5.1-1.9m60.5-22.7c-2.2.5-3.9 1-5.8 1.6-.7.2-1.4.4-2.2.7-1.9.6-4 1.6-5.6 2.1-.4.1-1 .3-1.4.4-.8.2-1.2.3-1.8.4-.7.2-1.4.1-2.1.4-2 1.4-3 3.8-4.4 5.9-.7 1.1-1.8 2.2-2.5 3.5-.2.4-.2.9-.3 1.3-.7 1.5-1.7 3.2-1.6 5.6.5.7.6 1.6 1.6 2 1.8-.6 3.1-1.8 4.7-2.6 1-.9 1.9-2 3.3-2.3-.4 1.1-1.1 1.6-2 1.9-3 2.9-6.9 4.6-10.5 6.7-.9.9-.5 1.5 0 2.4 1 2.2 2.2 1.1 4.2.7.2-.4.5-.5.8-.6.8-.2 1.4-.7 2.2-.9 7.3-5.2 22.9-15 23.3-15 1.5-1 2.7-1.9 4.3-2.7 4.1-2.1 9.1-5.1 15.1-3.4.3.2.5.6 1 .7-.1.8 1 1 .4 1.8-1.2-.1-1.1-1.1-1.8-1.6-.6.1-1.3 0-2.1-.2-1.5.6-3.3 1-4.4 2.2-.7 2.2-.7 4.9-1.2 7-.3 1.3-.9 2.5-1.4 3.6-1.9 5.2-4.8 8.7-8.1 11.9-.5.5-1.1.7-1.7 1.1-.3.2-.6.9-.9 1-.9.4-1.6 1-2.4 1.4-1.2.7-3.2 1.4-4.4 1.7-6.2 1.5-16.2-.2-20-5.8-.8-.2-1.1-.1-1.6.4.3 2.3 2.6 3.3 3.7 5.1.3.1.7.3.8.6 2.7 1.1 5.9 2.9 9.1 2.3 0 .2.5.2.7.2.8-.2 1.2-.2 2 0 6.3-.7 11.1-3.8 15.8-6.8 2.1-.5 3.3-2.3 5.1-3.3 2.3-4.2 2.6-9.7 4.2-13.9 1.8-3 4.8-4.9 8.5-3.9.6-.6 1.1-1.8 1.7-2.9.7-1.4 2-2.9 1.6-4-1.7-2.4-5.8-4.2-9.3-3.7-3 .6-5.8 1.7-8.5 2.7-2.4 1.3-4.7 2.8-6.9 4.4-2.3 1.3-4.5 3.5-6.9 4.2.5-.5.8-1 1.4-1.8 3.1-1.9 6.1-4.3 9.2-6.2.6-.4 1.2-.6 1.7-.9.6-.3 1.2-.6 1.5-1-1 .2-1.6.6-2.7.6-3 1.8-6.5 3.4-9.4 5-1 .6-1.9 1.9-3.1 1.3 4-3 8.6-5 13.1-7.4-2.4.2-4.2 1-6.4 1.5-.2.4-.7.4-1 .7-1.4.4-2.8 1-4.1 1.6s-2.4 1.8-3.9 1.7c.9-1.1 2.4-1.4 3.4-2.2.4 0 .6-.2 1-.2 1.3-1 2.9-1 4.2-2.1.6.1 1-.4 1.5-.5.4-.2 1.4-.2 1.4-.6-1 .2-2.5.7-3.3.4-2.3.8-4.6 1.8-7 2.5-.6.3-1.8 1.1-2.3.8.4-.9 1.3-1 2.2-1.1 1.4-.9 3.2-1.3 4.7-2.1 1.2-.2 2-.7 3-.6 0-.1.1-.1.2-.1.4-.5 1.1-.6 1.6-1-1.4.1-2.7 0-3.8.8-2-.2-3.9.9-5.5 1.6-1.5.1-3 .8-4.2 1 .4-.4.8-.6 1.3-.9 1-.5 2-.5 3.1-1 .8-.4 1.6-1 2.7-1.3 1-.3 2-.4 3-.7 2.1-.6 4.4-1.5 6.2-1.5.9 0 1.9.6 3 .8 1.2.3 2.6.1 3.7.5.6.2 1.2.9 2 1 .1-.3.7-.1.9-.4-3.8-1.8-7.9-3.3-11.6-2.5m13.1 34.1c1.6.5 2.6 1.4 2.3 3.2-.6.6-1.5 1.3-2.6.7-.3-1.1-1.1-2.6-2.7-2.3.2 1.1 2 1.5 1.4 2.9-.2.6-1.2 1-2.1.6-.8-.3-.7-1.2-1.1-1.8-.5-.6-1.9-.6-2.4-.7-7.7 3.5-16.1 6.2-22.3 12-1.9.7-5.7-.6-8.4-1.3-1.5-.4-3-.6-4-1.5-1.3-.1-3 .5-4.5-.3-.8-.4-1.4-1.7-2.2-1.8-1 0-1 1.6-1.4 2.6-.8 2.3-3 6.1-4.3 8.9.1.5-.4 1-.5 1.6-.3.1-.7.1-1 .2-.4 1.8-1.7 2.4-2.8 3.4.7 1.3 2.9 1 4.7 1.5.8 2.3-1 4.4-.6 6.3-1.5 1-3.4 1.3-4.8 2.5-2 8.3.3 14.6 4.7 19.2-.2.8-.5 1.6-.9 2.2-.4.1-1 .3-1.4 0-2.4.7-4.7 2.7-6.8 4.2-2 1.4-3.7 3-5.4 4.5-5.7 3.6-10.8 8.1-15.7 12.8-.5 1.1-1.5 1.4-2 2.6-.8.4-1.5 1.1-2.3 1.6-2.4.4-3.6-.6-5.4-1.7-6-1.7-12-2-17.3-.9-.2.4-.8.2-.9.8-1.1-.1-1.8.6-2.8.6-2.1-.2-3.3-2.3-4.6-3.2-.7-2.3-2.9-3.5-3.9-5.5-1.4-1.2-3.3-2.2-5.7-3.1-2.3-.9-4.9-1.3-5.2-3.2-.5 0-.7.3-1.2.4-.1 2.6-2.1 5.6-4.9 5.8 0 3.1-2.4 5.3-5 5.9-.7 3-3 4.1-5.8 3.4-.7 2.2-2.9 3.4-5.1 2-.9 2.1-4.3 2.8-6.4 1-1.1.6-2.2 1.2-3.7 1.3-1.5-.1-2.4-.7-3.3-1.2-.9-1-1.4-2.3-2-3.5-2.7-.3-4.6-2.4-4.4-5.3-3-1.5-4.8-4.7-3.3-7.9-.7-.7-1.3-1.5-2-2.3-.5-3 1.3-7 4.1-7.8-.2-3.4 2.1-5.7 5.4-5.1.2-.1.2-.5.4-.5 0-1.1-.6-2.3-.2-3.7.5-1.7 1.9-2.7 3.3-3.1.3-1.6 1.3-2.1 2.5-2.5.4-1.9 1.4-3 3.1-3.2.2-1 .7-1.6 1.2-2.2 1.3-.7 3.9-.7 5.5.2 3.1-1.4 6.7-2.1 10.2-2.9.7-.5 1.4-1.1 2.4-1.3 1.1.1 2 .5 3 1 .7-.5 1.6-.6 2.5-.7 1.8 1.2 3.4 1.8 5.9 2-2-.9-5.1-2-5.5-3.8-.3-1.4.8-3.6 1.2-5.2.1-.5 0-1 .3-1.4 1 .3 1.8.5 2.6.7-.7-.9-2.2-1.5-3.3-2.4s-2-1.9-3-2.7c-.1-1.3-.5-2-1-3.1-3.4.6-9-.3-9.6-3.7-2.9-.7-5.9-1.8-8.3-3-1.4-2.6-4.7-5.8-7.6-8.3-.8-.7-1.8-1.8-2.6-1.8-1.9-.2-1.4 2.9-3.4 3-2.7-1.2-.7-3.9 1.2-4.3-1.3-.2-2.5.7-3.2 1.8-2.2.7-3.2-1.5-2.1-3.5.9-1.1 2.9.2 4-.6-.7-3.4-1.1-7.7-2.8-10.7-1.3-.3-1.9-.7-2.9-.6-2 .2-3.4 2.7-5 2.4-1.5-.3-2.8-5.1-2.9-6.5 1.1-2.8-.2-5.5-1-7.7 0-1-.3-1.9.3-2.6.4-.5 1.4-.6 2.3-1.1 1.4-.7 2.4-1.6 3.8-2 .1-.4.5-.4.5-.9 2.6-.5 3.7-3.1 4.9-5.6 3.3-1.6 7-2.1 10.1-3.8 1.4-.1 3-1.2 4.3-.1 5.7 1.3 11.7 3.8 17.7 5.1 1.2.9 2.3 1.9 3 3.2 1 3.8 2.4 7.2 3.2 11 1.1 2.4 1.5 5.3 3 7.5 2.8 1.2 4.4 2.8 6.3 4.5-.1-1-.3-2.2 0-3 1.4 0 1.9-.7 3.2-1.4 1.5-.8 3-1.5 4.4-2.6.5-.4.9-1 1.4-1.5.5-.4 1.1-.8 1.6-1.2 1.4-1.4 2.6-2.8 4.6-2.7 3.6-5.7 7.8-13.8 5.6-20.9-.6-1.8-1.7-2.3-2.6-3.8-.5-.8-.9-1.7-1.4-2.5-.1-1.4-.4-4.5 1.1-5.4 1-.5 2.1-.1 3.3.2 2.8 1.9 3.6 6 2.6 9.7.6 2.5 2.2 10.4 1.9 13.8-.3 3.6-1.6 7.7-2 11.4 1.2 2.7 5.9 3.4 8.8 3.8.4.4.7.9 1.1 1.3.9-2.5 3.8-3.1 5.8-4.1 1.7-.9 3.1-1.8 4.7-2.4 2.3-6.8 6.5-10.5 11.2-14.5 1.4-1.7 3.9-3.4 3.6-6.2-.7-2.4-2.5-3.1-5.3-3.1-2.4-.1-4.6 2.4-7.4 2.5-1.5.1-3-.7-4.3-1.9-.2-.6-.3-1.4-.4-1.8 1-3.8 5.7-2.7 8.6-1.2 3.4-.6 7.9-.7 10.6 2 1.4 2.2 2.8 4.6 1.3 7.6-1.1 1.8-8.4 10.1-8.8 13.4-.2 1.5-.2 3.1.3 4.6 1.5 2.3 5.5 3 8.5 2.5 1.8 1.2 2.7 3.4 3.5 5 .6.2.9-.3 1.6-.1 1-.9 2-3.3 3.4-3.3.4 0 .8.2 1.3.2 1.5-.1 3.2-.2 5.1.4.9-.6 1.8-1.2 2.2-2.5 1.9-.6 3.9-1 5.9-1.4.1-1 .8-2.2 1.2-3.3 1.4-1.8 2.7-3.7 4.1-5.7 1.3-1.9 2.3-4.2 4.1-5.8.8.1 1.4-.2 2.2-.1 2.3-.6 4.4-1.3 6.4-2.3 2.4-.8 5.2-1 7.6-1.8 2.5.1 5.4-1.7 7.9-1.8 1.3-.1 3.5 1 5 1.4 2.5.7 4.9 1.4 6.7 2.6 2.4-.2 4.6.1 7.3.8 2.9 1.8 4.9 4.2 5.8 7.4-2.1 4.4-3.9 8.9-7.2 11-1.6 0-2.2-1.2-3.8-1.2-1.8.4-3 1.9-3.6 3.8-1.2 4.1-1.2 9.4-.5 12.9" class="st3"/><path d="M46.6 20.9c-.7.6-1.6.8-2.3 1.4 2.6.5 3 0 5.2.8-2.5.5-5.8-.3-7.7 1 .9.3 2.4.4 2.9.1 3.5.5 7.1 1.7 10.2 3.5-2-.5-4.3-1.4-6.6-2-2.6-.6-5-.5-7.3-.3 1.9.5 5.1.4 6.9 1.8 1.1.4 2.6.7 3.1 1.5-.4-.1-.8-.2-1-.3-1.2.1-2.2-.8-3.5-1.1-2.6-.7-5.8-.4-8.5-.8 0-.5-.2-1.1.2-1.2.2-.3.4-.1.8-.3.1-.2.1-.4.1-.5 1.3-.5 2.6-1.5 3.2-2.5 1.4.2 2.7-2.1 4.3-1.1" class="st1"/><path d="M42.9 132.7c1.2.5 2.4.2 2.6-1.2-1.1-2.2-3.5-.7-2.6 1.2m22.5-35.5c-.9-.4-1.9-.3-2.5.1-.3 1.1-.4 1.8.1 2.5 2 .6 3.3-1.3 2.4-2.6m-12.1 6c.3.3.5.8 1 1.1.7-.2 1.3-.6 1.5-1.4-.1 0-.1-.2-.1-.3-.8-.7-2.5-1.2-2.4.6m27 5.6c.8-.2.7-1.3-.2-1.6-.4.5-.6 1.4.2 1.6m-31.4-3.5c.2.4.3 1 1 .9.2-.4.6-.6.7-1.3-.5-.6-1.4-.3-1.7.4m17.8 7.3c.5.1.6-.3.9-.6 0-1.7-2.2-.2-.9.6m-19.5-3.8c-.3.5-.2 1.3-.1 1.7 1.2.2 1.7-.4 1.7-1.4-.5-.5-1-.4-1.6-.3m20.9 8.2q.15.45.6.6c0-.1.1-.1.2-.1.2-.1.2-.5.3-.8-.2-.1-.4-.3-.6-.4-.2.3-.5.3-.5.7m-5.3 5.8c.7.9 2.2.4 2.6-.3 1-3.2-3.5-2.5-2.6.3M58 124c.5-.6.5-1.6-.5-1.8-.8.6-.8 2 .5 1.8m-13.8 1.9c-.2.6 0 1 .1 1.4.9.2 1.6.1 1.6-.9-.4-.4-1.2-.7-1.7-.5m-4.1 2.4c.6-.2 1.2-.3 1.3-1.3-.3-.5-1-.7-1.4-1.2-.8.8-.7 1.9.1 2.5" class="st0"/><path d="M19.2 138.5c.1-.2.3-.2.6-.2.4-.7.6-2.3.3-2.8-1.1.2-1.4 1.2-1.7 2.4.3.2.9.4.8.6m-1.7 3.2c.1 0 .3 0 .3.2.5-.1.9-.6.6-1.1l-.9-.1c0 .4-.2.7 0 1" class="st1"/></svg>