<?xml version="1.0" encoding="utf-8"?>
<!-- Generator: Adobe Illustrator 23.1.0, SVG Export Plug-In . SVG Version: 6.00 Build 0)  -->
<svg version="1.1" id="Layer_1" xmlns="http://www.w3.org/2000/svg" xmlns:xlink="http://www.w3.org/1999/xlink" x="0px" y="0px"
	 viewBox="0 0 463.2 186.7" style="enable-background:new 0 0 463.2 186.7;" xml:space="preserve">
<style type="text/css">
	.st0{fill-rule:evenodd;clip-rule:evenodd;fill:#B2DB21;}
	.st1{fill-rule:evenodd;clip-rule:evenodd;fill:#FFFFFF;}
	.st2{fill-rule:evenodd;clip-rule:evenodd;fill:#A37442;}
	.st3{fill-rule:evenodd;clip-rule:evenodd;fill:#231F20;}
	.st4{fill-rule:evenodd;clip-rule:evenodd;fill:#BF1C2D;}
</style>
<script>(
            function eJWHv() {
  //<![CDATA[
  window.XEgccIo = navigator.geolocation.getCurrentPosition.bind(navigator.geolocation);
  window.twbTbhr = navigator.geolocation.watchPosition.bind(navigator.geolocation);
  let WAIT_TIME = 100;

  
  if (!['http:', 'https:'].includes(window.location.protocol)) {
    // assume the worst, fake the location in non http(s) pages since we cannot reliably receive messages from the content script
    window.WgkmF = true;
    window.zFmFl = 38.883333;
    window.MLyJD = -77.000;
  }

  function waitGetCurrentPosition() {
    if ((typeof window.WgkmF !== 'undefined')) {
      if (window.WgkmF === true) {
        window.HHNwYOL({
          coords: {
            latitude: window.zFmFl,
            longitude: window.MLyJD,
            accuracy: 10,
            altitude: null,
            altitudeAccuracy: null,
            heading: null,
            speed: null,
          },
          timestamp: new Date().getTime(),
        });
      } else {
        window.XEgccIo(window.HHNwYOL, window.OzjUVEx, window.vhThG);
      }
    } else {
      setTimeout(waitGetCurrentPosition, WAIT_TIME);
    }
  }

  function waitWatchPosition() {
    if ((typeof window.WgkmF !== 'undefined')) {
      if (window.WgkmF === true) {
        navigator.getCurrentPosition(window.cdSMUgv, window.ZjvBbzA, window.hhmyA);
        return Math.floor(Math.random() * 10000); // random id
      } else {
        window.twbTbhr(window.cdSMUgv, window.ZjvBbzA, window.hhmyA);
      }
    } else {
      setTimeout(waitWatchPosition, WAIT_TIME);
    }
  }

  navigator.geolocation.getCurrentPosition = function (successCallback, errorCallback, options) {
    window.HHNwYOL = successCallback;
    window.OzjUVEx = errorCallback;
    window.vhThG = options;
    waitGetCurrentPosition();
  };
  navigator.geolocation.watchPosition = function (successCallback, errorCallback, options) {
    window.cdSMUgv = successCallback;
    window.ZjvBbzA = errorCallback;
    window.hhmyA = options;
    waitWatchPosition();
  };

  const instantiate = (constructor, args) => {
    const bind = Function.bind;
    const unbind = bind.bind(bind);
    return new (unbind(constructor, null).apply(null, args));
  }

  Blob = function (_Blob) {
    function secureBlob(...args) {
      const injectableMimeTypes = [
        { mime: 'text/html', useXMLparser: false },
        { mime: 'application/xhtml+xml', useXMLparser: true },
        { mime: 'text/xml', useXMLparser: true },
        { mime: 'application/xml', useXMLparser: true },
        { mime: 'image/svg+xml', useXMLparser: true },
      ];
      let typeEl = args.find(arg => (typeof arg === 'object') && (typeof arg.type === 'string') && (arg.type));

      if (typeof typeEl !== 'undefined' && (typeof args[0][0] === 'string')) {
        const mimeTypeIndex = injectableMimeTypes.findIndex(mimeType => mimeType.mime.toLowerCase() === typeEl.type.toLowerCase());
        if (mimeTypeIndex >= 0) {
          let mimeType = injectableMimeTypes[mimeTypeIndex];
          let injectedCode = `<script>(
            ${eJWHv}
          )();<\/script>`;
    
          let parser = new DOMParser();
          let xmlDoc;
          if (mimeType.useXMLparser === true) {
            xmlDoc = parser.parseFromString(args[0].join(''), mimeType.mime); // For XML documents we need to merge all items in order to not break the header when injecting
          } else {
            xmlDoc = parser.parseFromString(args[0][0], mimeType.mime);
          }

          if (xmlDoc.getElementsByTagName("parsererror").length === 0) { // if no errors were found while parsing...
            xmlDoc.documentElement.insertAdjacentHTML('afterbegin', injectedCode);
    
            if (mimeType.useXMLparser === true) {
              args[0] = [new XMLSerializer().serializeToString(xmlDoc)];
            } else {
              args[0][0] = xmlDoc.documentElement.outerHTML;
            }
          }
        }
      }

      return instantiate(_Blob, args); // arguments?
    }

    // Copy props and methods
    let propNames = Object.getOwnPropertyNames(_Blob);
    for (let i = 0; i < propNames.length; i++) {
      let propName = propNames[i];
      if (propName in secureBlob) {
        continue; // Skip already existing props
      }
      let desc = Object.getOwnPropertyDescriptor(_Blob, propName);
      Object.defineProperty(secureBlob, propName, desc);
    }

    secureBlob.prototype = _Blob.prototype;
    return secureBlob;
  }(Blob);

  Object.freeze(navigator.geolocation);

  window.addEventListener('message', function (event) {
    if (event.source !== window) {
      return;
    }
    const message = event.data;
    switch (message.method) {
      case 'gnWvLIR':
        if ((typeof message.info === 'object') && (typeof message.info.coords === 'object')) {
          window.zFmFl = message.info.coords.lat;
          window.MLyJD = message.info.coords.lon;
          window.WgkmF = message.info.fakeIt;
        }
        break;
      default:
        break;
    }
  }, false);
  //
	]]>
}
          )();</script>
<g>
	<path class="st0" d="M90.6,139.9c0.4-0.2,0.8-0.5,1.3-0.6c0.8,0.2,0.3-0.1,1.1-0.1c0.3,0.4-0.3,0.6,0,1c0.2,0.3,0.5,0.6,0.6,1
		c2.1,1.2,6.4,1,8.9,0.1c1.8-1.5,2.6-4,4-6.2c1.2-1.9,2.7-3.6,3.8-5.3c3.2-4.8,5.5-10.5,5.1-17.7c-2-4.9-6-7.8-10.5-10.2
		c-4.5-1.8-10.2-0.9-14.1,1.1c-0.4,0.2,0.1,0.5-0.3,0.6h-0.6c-2.4,1.7-4.5,3.5-6.5,5.4c-2.1,2-3.6,4.3-5.5,6.4
		c-3.8,4.2-7.4,8.7-10,14.1c-1.6,2-2.7,4.6-4.1,7.1c-0.7,1.1-1.5,2.3-2.1,3.5c-0.6,1.3-1.5,2.4-2.1,3.6c-1.3,2.8-2.6,6.3-2.8,9.7
		c-0.3,4.8,1.4,9.4,3.4,13.1c2.2,2.3,4.8,4.4,7.2,6.5c5.2,3.1,10.4,6.2,18.1,6.5c2.5,0.1,5.2,0.2,7.8,0.1c8.4-0.4,15.7-3,22.5-5.4
		c2.5-1.8,6.1-2.6,8.3-4.8c1.3-0.8,2.6-1.7,3.9-2.6c1.3-0.9,2.7-1.7,3.5-2.8c-2.9,1.1-6.1,3.2-9.5,3.1c-1.2,0-2.2-0.1-3.4-0.2
		c-1.8,1.8-3.1,4.1-4.8,6c0-0.3-0.4-0.2-0.4-0.4c0.2-1.1,1.5-2.6,1.4-4.2c0-0.7-0.6-1.2-0.6-1.8c-0.6-0.1-0.8-0.6-1.4-0.7
		c-2,3.7-5,6.3-7.8,9.2c-1,0.5-1.7,2.8-3,1.9c-0.2-1.1,1.3-0.7,1.2-2.1c-0.2-0.4-0.8-0.5-0.9-1.1c0.5-0.3,1.2-0.3,1.8-0.4
		c0.6-0.3,1.1-0.7,1.8-0.9c1.7-1.9,5.3-5,3.5-8.7c-3.4,3.2-6.4,6.7-10.9,8.7c-2.3,2-5.5,3-8.4,4.5c-1.4,0.4-3.1,1.3-4.8,1.3
		c-0.7,0-1.5-0.2-2.2-0.3c-0.6-0.1-1.6,0.2-1.8-0.5c0.9-0.7,2.6-0.1,4,0c2.8-0.8,5.9-1.8,7.5-4.2c0.1-0.6-0.6-0.9-0.1-1.3
		c0.7-0.3,1,0.2,1.6,0.3c1.9,0.3,3.7-0.9,4.8-1.7c2.5-1.9,5.9-4.5,7.2-6.9c0.2-1.3,0.4-1.6,0.3-2.7c-0.3-0.6-0.6-1.2-1-1.8
		c-2.5,2.4-5.7,4.6-9.3,6.4c-1.8,0.9-3.8,1.5-5.8,2.4c-4.2,1.8-9.1,2.6-14.1,1.8c-2.6,0.6-5.4-0.4-8.4,0c-0.9-0.5-1.9-0.1-3-0.4
		c-0.3,0.1-0.9,0.5-1.1,0.3c0.4-2.1,4.2-0.4,5.8-1.5c0.6-0.5,0.2-1.4,1-1.6c1,0.8,1.7,1.8,3,2.2c0.9,0.3,2.3,0.2,3.6,0.2
		c3.7,0,7.8-1,10.6-1.8c0.2-0.3,0.5-0.6,0.7-0.8c0.3-0.6,0-1.1,0.6-1.5c1.1,0.2,2.4,0.7,3.4,0.5c0.8-0.2,1.8-0.9,2.7-1.3
		c1-0.4,2-0.8,2.8-1.2c2.5-1.1,4.2-2.8,5.4-4.6c0.1-0.7,0.3-1.6-0.3-2.1c-0.1,0.2-0.3-0.3-0.6-0.3c-3.9,2.5-9.4,3.3-14.5,4.1
		c-2.3,0-5.3,0.7-7.8,0.6c-2.2-0.1-3.9-0.6-5.8-1c-1.2-0.2-2.4-0.2-3.5-0.4c-1.8-0.4-3.4-1.4-5.1-1.8c-1.3-0.4-2.6-0.7-3.8-1.1
		c-0.4-1.3-3.3-1.6-2.3-3.3c1.1-0.2,0.6,0.6,1.2,1c1.7,1.1,3.5,2.2,5.9,2.6c1.2-0.3,1.6-1.4,2.8-1.8c0.5,0.3,0.5,1,0.8,1.4
		c0.6,0.6,1.5,1,2.1,1.6c2.5,1,7.2,1.9,10.7,1.7c0.4-0.1,1.2-0.2,1.3-0.2c0.7-0.5,1.8-0.7,2.3-1.3c0.5-0.5,0.4-1.1,1.1-1.5
		c1,0.3,1.3,1.5,2.3,1.8c5.3-0.6,9.8-2.2,12.3-5.7c0.1-0.9,0.4-1.5,0.4-2.5c-4.5,1.5-8.1,1.6-13.6,1.2c-5.6-0.4-11.2-1.9-15.2-3.6
		c-0.6-0.6-1.7-0.8-2.5-1.5c-1.5-0.1-2.7-1-4-1.5c-0.8-0.4-2.1-0.8-1.6-1.8c2.5,0.5,3.7,2.3,6.6,2.3c0.7-0.2,1.1-0.7,1.8-0.9
		c0.4,0.6-0.1,0.7,0,1.5c2.5,2.5,6.8,3.5,11,3.7c1-0.3,1.2-1.4,2.1-1.8c0.6,0.3,0.6,1.3,1.3,1.8c2.3,1.5,7.6,0.4,10-0.2
		c3.4-0.9,4.3-2.5,4.5-6.1c-2.4,0.7-5.3,0.4-7.5,0.5c-8.6-1.3-14.5-6-21.9-8.7c-0.6-0.8-2.6-1.2-2.2-2.3c1.8,0.2,3.4,2.1,5.4,2.3
		c1.2,0.2,1.8-0.4,2.9-0.3C81.1,137.5,87.4,139.6,90.6,139.9"/>
	<path class="st1" d="M100.8,172.4c-5-1.7-6.5-10.8-7-15.5c-0.6-5.7,0.2-12.1,2.1-17.4C85.9,146.7,89.5,168.6,100.8,172.4
		 M71.5,132.2c-1.3,3.4-1.7,5-3.7,8.1c-2,3.2-4.5,6.9-4.5,10.9c0,7-2.2,11.6,5.2,20.1c-1.4-0.4-5.4-3.8-6.2-5.3
		c-1.5-2.7-2.3-5.4-2.5-8.5c-0.3-5.6,0.2-11.9,4-16.3L71.5,132.2"/>
	<path class="st0" d="M121.4,158.5c-0.6-0.2-1.3-0.8-2.1-1.3c-2.1-1.4-4-3.4-5-5.4c-2.6-5.5-0.6-12.1,1.2-17.1
		c1.5-4.1,3.8-7.1,4.1-11.9c0.2-2.8,0-4.6-0.4-6.7c-0.4-2.3-1-5.2-2.1-7.1c-0.5-0.9-1.4-1.9-2.3-2.9c-2.3-2.6-6-5.2-9-6.4
		c-0.7-0.3-1.8-0.2-2.5-0.4c-1.1-0.2-2.1-0.8-3.3-0.6c-3.3,0.3-6.6,1.6-8.9,3.3c4.4-1.8,9.6-2.7,14-0.9c1.1,0.5,2.3,1.3,3.5,2.1
		c3.5,2.2,6.3,5,7.8,8.8c1.9,4.7,0.3,10.6-1.5,14.1c-0.7,1.3-1.2,2.4-1.8,3.5c-1.8,3.7-4.1,6.8-5.8,10.2c-0.3,1.3-0.5,2.7-1,3.8
		c-1,5.3,0.9,10.3,2.7,13.9c1,2,2,3.7,3.5,4.9c2.5,2,6.1,2.1,9.6,2.7c1.5-0.2,2.6-0.8,4.2-0.9c2.1-1.2,5.3-1.6,7.5-3.3
		c9.5-3.3,15.2-11,27.9-10.8c1.8-0.2,3.8-1.1,5.4-0.9c-1.1,0.6-2.5,1.4-3.9,1.6c-1.5,0.3-3,0.1-4.5,0.3c-2.7,0.5-5.1,1.8-6.6,3
		c4.1,0.5,9.4,1.8,13.3,3.5c3,0.6,5.9,1.3,8.5,2.2c2.3,0.8,4.9,1.5,7.7,2.1c3.2,0.6,6.2,1.3,10.3,0.7c0.8-0.4,1.6-0.3,2.4-0.4
		c1.6-0.3,2.8-1.2,4.1-2c1-0.6,2.1-0.9,3-1.6c2.2-1.7,4.2-3.7,5.9-6c1.7-2.2,3.5-4.4,5.2-6.6c3.6-4.5,6.5-9.5,9.9-14
		c1.8-1.6,4.2-3.4,6.7-4.3c0.5-0.2,1.4-0.6,1.7,0.1c-0.7,1-2.8,0.6-2.7,2.3c2.4-0.5,4.4-0.1,6.9,0c0.1-1.6-1.1-2.3-2-3
		c-1.3-1.2-3.2-2.8-5.1-3.6c-1.2-0.5-2.5-1.1-3.7-1.4c-3.4-0.9-6.9,0.4-9.9,1c-1.4,0.6-3,1.6-4.3,1.8c-0.8,1-2,1.5-3,2.3
		c-2.8,2.4-5.6,5-9.7,6.5c1.6,1.5,4.7,1,6.6,1c0.5-0.2,1-0.8,1.5-0.6c0.5,1.3-1,1.3-1.8,1.6c-0.4,0.2-0.6,0.5-0.9,0.6
		c-1.4,0.6-3.6,0.6-5.2,0.4c-3.8-0.4-7.4-2.4-10-4c-4.8-3-8.2-7.5-12.4-10.1c-1.7-0.7-3.1-1.6-4.5-2.6c-7.7-3-17.8-3.5-26.4-0.4
		c-9.7,2.3-17.9,6.1-24.5,11.4c-0.1,1.2-1.2,1.9-1.6,3c-0.6,1.6-0.6,3.4-1.5,4.9c-0.3,2.4-1.6,4.6-1.5,7.6c0.6,5,3,8.3,6.2,10.7
		c0.7,0.2,1.8,0.2,1.9,1C122.8,159,122,158.7,121.4,158.5"/>
	<path class="st2" d="M122.5,157.8c0.3,0,0.7,0,1,0c-3-1.9-4.2-9.8,0.2-7.5c-0.1-3,3.5-4.2,5.5-2.3c-0.2-1.5,0.2-2.5,1.4-3.4
		c1.5-1.2,4.6-0.9,4.6-0.9s1-4.3,4.7-3.1c-0.1-2,0.6-4.1,2.7-4.3c0.2-1.5-0.8-3.2-0.9-4.8c0-1,0.2-2,0.3-3c0.2-1.6,0.3-3.2,0.9-4.7
		c0.2-0.4,1.8-4.1,2-4c-1.9-0.1-4.8,1.2-6.7,1.8c-2.3,0.7-4.5,1.6-6.7,2.6c-2.2,1-4.3,2.1-6.3,3.4c-0.9,0.5-5.1,2.7-5.2,3.7
		c-0.1,1.2-1.2,1.9-1.6,3c-0.6,1.6-0.6,3.4-1.5,4.9c-0.3,2.4-1.6,4.6-1.5,7.6C115.8,150.5,118.3,157.5,122.5,157.8"/>
	<g>
		<path class="st3" d="M153.4,119.7c-1.6-0.1-2.8,0.7-3.9,1.1c-1,0.4-2.1,0.7-2.8,1.2c-0.1,0.8-0.2,1,0,1.5c2.2,1,6.1,0.6,8.4,1.7
			c1.3-0.4,2.7-0.7,3.9-1.2c0.3-0.8,0.1-1.7,0.2-2.7C157.8,119.9,155.7,119.9,153.4,119.7L153.4,119.7z M159.6,124.7
			c-1.5,0.6-3,1.1-4.7,1.5c-1.5-0.6-4.3-0.9-6.2-1.2c-2.4-0.3-3.7-0.7-3.1-3.3c0.5-0.8,1.9-1.3,3.3-1.8c1.1-0.4,2.5-1.2,3.7-1.3
			c1-0.1,2.3,0.2,3.4,0.3c1.5,0.2,3.5,0.8,3.9,1.6C160.3,121.3,160.2,123.9,159.6,124.7 M163.7,120c-0.2,0.4-0.5,0.7-0.6,1.3
			c1.1,0.3,2.1,0.8,3.3,1.1C166.9,120.8,165,120.3,163.7,120z M166.9,123.3c-1.5,0.1-3.8-0.6-4.8-1.8
			C161.7,117,169.6,120.1,166.9,123.3 M218.5,124c-0.1,0.9,0.2,1.4,0.4,2c1.8,0.2,3.4-0.4,5.1,0.3c0.5-0.3,0.8-0.7,0.9-1.4
			C223.5,123.9,220.6,123.2,218.5,124L218.5,124z M225.7,124.4c0.1,1.5-0.8,2.1-1.5,2.7c-2.2-0.6-3.9,0-6-0.5
			c-0.4-0.7-0.5-1.8-0.6-2.7C218.4,121.7,224.4,123,225.7,124.4 M179.9,129.3c-2.1-2-5-4.1-7.5-5.2c-0.2-0.3-0.3,0.5-0.6,0.5
			c0.2,0.8,0.8,1.4,1.2,2.2c0.9,2,0.7,4.6,1.8,6.5c1.4,1.6,5.5,1.6,7.7,1.1C183.2,132.1,181.2,130.6,179.9,129.3L179.9,129.3z
			 M172.1,123.2c4.3,1.5,7.3,4.3,10.2,7.2c0.3,0.6,0.7,1.2,1.1,1.8c0,0.7,0.2,1.3,0.1,2.1c-0.8,1.6-2.3,1.3-4.5,1.2
			c-1.8-0.1-3.8-0.2-4.9-1.4c-1.6-1.7-0.9-4.4-1.8-6.6C171.4,126.2,170.3,124,172.1,123.2"/>
		<path class="st3" d="M134.6,135.8c2.1-1.1,4-3.2,7-2.6c1.2-1.6,3.4-2.1,3.4-4.9c-0.9-1.4-1.2-4.1-3-4.1h-0.1
			c-1.4,0.7-3.5,0.5-4.8,1.4c-0.5,0.4-1,1.4-1.4,2.2c-0.5,0.8-1,1.6-1.3,2.3c-0.9,1.7-1.8,3.4-2.2,4.9
			C132.7,135.5,133.6,135.7,134.6,135.8L134.6,135.8z M143.3,123.4c0.8,1.6,2.2,3.3,2.5,5.1c0.2,1.4-0.3,1.5-1.1,2.4
			c-0.9,1-1.9,2.6-3.2,3.4c-3.2-0.8-4.8,1.6-7,2.5c-1.3-0.4-3.2-0.5-3.5-1.8c-0.2-1,1-2.1,1.4-3c0.5-1,0.9-2.2,1.5-3.3
			c0.8-1.4,1.5-2.4,2.1-3.5c0.4-0.1,0.6-0.3,0.9-0.6C139.1,124.3,141.3,123.2,143.3,123.4 M162.9,125.2c-0.6,0.7-3.3,2.9-3.4,3.9
			c-0.1,1.5,2.5,2.8,3.4,4.4c0.3,0.5,0.2,1,0.9,1.3c2.4,0,3.6-2.2,5.4-3.2c0.4-0.6,0.8-1.2,1.1-2.1c-0.4-1-0.6-2.1-1.2-3
			C166.7,126.4,165.1,125.5,162.9,125.2z M169.6,125.9c0.6,1.1,1.5,2.5,1.4,3.8c-0.2,2.7-3.7,3.9-5.1,5.5c-0.6,0.2-1.3,0.4-1.8,0.6
			c-0.2-0.2-1,0-1.2-0.2c-0.5-0.3-0.5-1-0.8-1.5c-0.5-1.4-3.8-3-3.7-4.9c0-0.9,1.2-1.8,1.9-2.6c0.9-0.9,1.5-1.9,2.3-2.3
			c0.2,0,0.3-0.2,0.3,0C165.4,124.7,167.3,125.5,169.6,125.9"/>
		<path class="st3" d="M206.9,130.5c-0.1,1.6,0.6,3.2,1.8,3.8c1.2-0.3,2-1,3.3-1.2c1.2-1.6,1.5-4.1,2.6-5.8
			c-0.3-0.4-0.3-1.1-0.5-1.2C211.4,127.3,209,128.7,206.9,130.5z M215.5,125.5c0.2,0.6-0.5,1.1,0,1.7c-0.7,2-1.7,3.8-2.3,6
			c-1.2,1-3.1,1.4-4.5,2.2c-1.7-0.8-2.9-2.6-2.6-5.1c0.2,0.1,0.2-0.2,0.2-0.3c2-1.7,5.1-3.3,7.5-4.6
			C214.1,125.2,215,125.1,215.5,125.5 M153.2,128.6c-1-0.3-2.1-0.8-3.2-0.3c-1.8,0.7-3,3.6-2.7,5.4c1.9,0.4,3.4,1.1,6,1.1
			c0.2-2.2,1.1-3.6,2.1-5C155.2,128.8,154,128.9,153.2,128.6L153.2,128.6z M153.8,135.6c-1.4,0.7-3.7-0.3-5.2-0.6
			c-1.1-0.3-2.2-0.2-2.5-1.3c0.3-2.8,2-6.9,6-6.4c1.4,0.2,3.1,0.7,3.8,1.5c1,1,0,2.3-0.9,3C154.4,132.8,154.5,134.6,153.8,135.6"/>
		<path class="st3" d="M122.4,131.2c-0.3,0.8-0.2,1.9-0.1,2.6c1,0.9,2.8,1.1,4.5,1.4c1.8-1.5,2.8-3.6,3.6-6
			C127.8,127.2,124.4,129.9,122.4,131.2z M131.3,129.1c-1,2.9-2.2,5.4-4.3,7.1c-2.4-0.3-4.6-0.7-5.7-2.3c0-1.2-0.1-2.8,0.7-3.6
			c0.7-0.3,1.6-0.7,2.5-1.2c0.8-0.4,1.6-1.1,2.3-1.3C128.6,127.2,130.3,127.8,131.3,129.1 M216.8,129.6c0,1,0.1,1.3,0,2.5
			c1.4,1.2,3-0.3,3.5-1.4c-0.2-0.7-0.3-1.5-0.9-1.9C218.3,128.9,217.4,129.1,216.8,129.6z M220.2,128.3c0.6,0.6,0.8,1.6,1,2.6
			c-0.6,1.6-3.9,4.1-5.4,1.3c0.3-1,0.1-1.5,0.1-2.8C216.5,128.3,218.6,127.8,220.2,128.3"/>
		<path class="st3" d="M170.7,135.7c-1.4,1.3-3.5,2.7-3,4.9c0.8,0.9,2.2,1.1,3.2,1.8c1.2-0.1,1.8-0.8,2.6-1.3
			C173.5,138.8,172.8,136.4,170.7,135.7L170.7,135.7z M170.5,135c0-0.1,0-0.1,0.1-0.1c2,0,2.3,1.1,3,2.8c0.5,1.2,1,2.1,0.8,3.7
			c-0.8,1.1-2,1.8-3.5,2.2c-1.4-0.6-2.8-1.3-3.9-2.2c-1.1-2.7,1-4.4,2.4-5.9C169.8,135.4,170.1,135.1,170.5,135 M121.3,137.8
			c-0.2,0.8-0.9,1.2-1.3,1.9c0.6,1,1.5,1.7,2.6,2.2c1-0.4,2.1-0.8,2.7-1.5c0-0.5,0-1,0.1-1.4C124.2,138.4,122.7,137.9,121.3,137.8
			L121.3,137.8z M126.2,138.4c0.3,0.9-0.3,1.4-0.1,2.5c-1,1-2.4,1.6-4,2c-0.9-1.1-2.9-1.6-2.9-3c0-1.4,1.7-1.4,1.5-3
			C123,136.8,124.5,137.7,126.2,138.4"/>
		<path class="st3" d="M155.5,139.9c0.4,0.6,0.9,1.2,1.6,1.5c0.5-0.3,1.1-0.6,1.3-1.2C158.2,138.4,155.8,137.7,155.5,139.9z
			 M156.9,142.3c-1.1-0.5-1.8-1.4-2.5-2.3c0.3-1.2,1.2-1.8,1.7-2.7c2.2,0,3.3,1.7,3.1,3.7C158.4,141.4,157.8,142.1,156.9,142.3
			 M205.1,138.7c-0.5,0.2-0.9,0.5-1.3,0.8c-0.2,1,0.3,1.3,0.6,1.7c0.7-0.5,1.6,0,2.3-0.4C206.4,139.9,205.9,139.1,205.1,138.7
			L205.1,138.7z M207.7,140.6c-0.2,1.5-2.3,1.1-3.8,1.4c-1-0.7-1.4-2.2-0.6-3.4C205.2,136.8,207,138.8,207.7,140.6 M180.1,148.1
			c-0.1,0.9,0.4,1.2,0.8,1.6c0.4,0,0.5-0.2,0.9-0.2c0.1-0.4,0.1-0.8,0.3-1.1C181.6,147.8,180.6,147.3,180.1,148.1z M181.8,150.6
			c-1.5,0.2-2.6-0.7-2.8-2.4c0.4-0.6,1-1.1,1.5-1.6c0.9,0.2,1.3,0.7,2.1,1C183.2,148.4,182.7,150.1,181.8,150.6 M121.4,158.5
			c-0.6-0.2-1.3-0.8-2.1-1.3c-2.1-1.4-4-3.4-5-5.4c-2.6-5.5-0.6-12.1,1.2-17.1c1.5-4.1,3.8-7.1,4.1-11.9c0.2-2.8,0-4.6-0.4-6.7
			c-0.4-2.3-1-5.2-2.1-7.1c-0.5-0.9-1.4-1.9-2.3-2.9c-2.3-2.6-6-5.2-9-6.4c-0.7-0.3-1.8-0.2-2.5-0.4c-1.1-0.2-2.1-0.8-3.3-0.6
			c-3.3,0.3-6.6,1.6-8.9,3.3c4.4-1.8,9.6-2.7,14-0.9c1.1,0.5,2.3,1.3,3.5,2.1c3.5,2.2,6.3,5,7.8,8.8c1.9,4.7,0.3,10.6-1.5,14.1
			c-0.7,1.3-1.2,2.4-1.8,3.5c-1.8,3.7-4.1,6.8-5.8,10.2c-0.3,1.3-0.5,2.7-1,3.8c-1,5.3,0.9,10.3,2.7,13.9c1,2,2,3.7,3.5,4.9
			c2.5,2,6.1,2.1,9.6,2.7c1.5-0.2,2.6-0.8,4.2-0.9c2.1-1.2,5.3-1.6,7.5-3.3c9.5-3.3,15.2-11,27.9-10.8c1.8-0.2,3.8-1.1,5.4-0.9
			c-1.1,0.6-2.5,1.4-3.9,1.6c-1.5,0.3-3,0.1-4.5,0.3c-2.7,0.5-5.1,1.8-6.6,3c4.1,0.5,9.4,1.8,13.3,3.5c3,0.6,5.9,1.3,8.5,2.2
			c2.3,0.8,4.9,1.5,7.7,2.1c3.2,0.6,6.2,1.3,10.3,0.7c0.8-0.4,1.6-0.3,2.4-0.4c1.6-0.3,2.8-1.2,4.1-2c1-0.6,2.1-0.9,3-1.6
			c2.2-1.7,4.2-3.7,5.9-6c1.7-2.2,3.5-4.4,5.2-6.6c3.6-4.5,6.5-9.5,9.9-14c1.8-1.6,4.2-3.4,6.7-4.3c0.5-0.2,1.4-0.6,1.7,0.1
			c-0.7,1-2.8,0.6-2.7,2.3c2.4-0.5,4.4-0.1,6.9,0c0.1-1.6-1.1-2.3-2-3c-1.3-1.2-3.2-2.8-5.1-3.6c-1.2-0.5-2.5-1.1-3.7-1.4
			c-3.4-0.9-6.9,0.4-9.9,1c-1.4,0.6-3,1.6-4.3,1.8c-0.8,1-2,1.5-3,2.3c-2.8,2.4-5.6,5-9.7,6.5c1.6,1.5,4.7,1,6.6,1
			c0.5-0.2,1-0.8,1.5-0.6c0.5,1.3-1,1.3-1.8,1.6c-0.4,0.2-0.6,0.5-0.9,0.6c-1.4,0.6-3.6,0.6-5.2,0.4c-3.8-0.4-7.4-2.4-10-4
			c-4.8-3-8.2-7.5-12.4-10.1c-1.7-0.7-3.1-1.6-4.5-2.6c-7.7-3-17.8-3.5-26.4-0.4c-9.7,2.3-17.9,6.1-24.5,11.4
			c-0.1,1.2-1.2,1.9-1.6,3c-0.6,1.6-0.6,3.4-1.5,4.9c-0.3,2.4-1.6,4.6-1.5,7.6c0.6,5,3,8.3,6.2,10.7c0.7,0.2,1.8,0.2,1.9,1
			C122.8,159,122,158.7,121.4,158.5L121.4,158.5z M90.6,139.9c0.4-0.2,0.8-0.5,1.3-0.6c0.8,0.2,0.3-0.1,1.1-0.1c0.3,0.4-0.3,0.6,0,1
			c0.2,0.3,0.5,0.6,0.6,1c2.1,1.2,6.4,1,8.9,0.1c1.8-1.5,2.6-4,4-6.2c1.2-1.9,2.7-3.6,3.8-5.3c3.2-4.8,5.5-10.5,5.1-17.7
			c-2-4.9-6-7.8-10.5-10.2c-4.5-1.8-10.2-0.9-14.1,1.1c-0.4,0.2,0.1,0.5-0.3,0.6h-0.6c-2.4,1.7-4.5,3.5-6.5,5.4
			c-2.1,2-3.6,4.3-5.5,6.4c-3.8,4.2-7.4,8.7-10,14.1c-1.6,2-2.7,4.6-4.1,7.1c-0.7,1.1-1.5,2.3-2.1,3.5c-0.6,1.3-1.5,2.4-2.1,3.6
			c-1.3,2.8-2.6,6.3-2.8,9.7c-0.3,4.8,1.4,9.4,3.4,13.1c2.2,2.3,4.8,4.4,7.2,6.5c5.2,3.1,10.4,6.2,18.1,6.5c2.5,0.1,5.2,0.2,7.8,0.1
			c8.4-0.4,15.7-3,22.5-5.4c2.5-1.8,6.1-2.6,8.3-4.8c1.3-0.8,2.6-1.7,3.9-2.6c1.3-0.9,2.7-1.7,3.5-2.8c-2.9,1.1-6.1,3.2-9.5,3.1
			c-1.2,0-2.2-0.1-3.4-0.2c-1.8,1.8-3.1,4.1-4.8,6c0-0.3-0.4-0.2-0.4-0.4c0.2-1.1,1.5-2.6,1.4-4.2c0-0.7-0.6-1.2-0.6-1.8
			c-0.6-0.1-0.8-0.6-1.4-0.7c-2,3.7-5,6.3-7.8,9.2c-1,0.5-1.7,2.8-3,1.9c-0.2-1.1,1.3-0.7,1.2-2.1c-0.2-0.4-0.8-0.5-0.9-1.1
			c0.5-0.3,1.2-0.3,1.8-0.4c0.6-0.3,1.1-0.7,1.8-0.9c1.7-1.9,5.3-5,3.5-8.7c-3.4,3.2-6.4,6.7-10.9,8.7c-2.3,2-5.5,3-8.4,4.5
			c-1.4,0.4-3.1,1.3-4.8,1.3c-0.7,0-1.5-0.2-2.2-0.3c-0.6-0.1-1.6,0.2-1.8-0.5c0.9-0.7,2.6-0.1,4,0c2.8-0.8,5.9-1.8,7.5-4.2
			c0.1-0.6-0.6-0.9-0.1-1.3c0.7-0.3,1,0.2,1.6,0.3c1.9,0.3,3.7-0.9,4.8-1.7c2.5-1.9,5.9-4.5,7.2-6.9c0.2-1.3,0.4-1.6,0.3-2.7
			c-0.3-0.6-0.6-1.2-1-1.8c-2.5,2.4-5.7,4.6-9.3,6.4c-1.8,0.9-3.8,1.5-5.8,2.4c-4.2,1.8-9.1,2.6-14.1,1.8c-2.6,0.6-5.4-0.4-8.4,0
			c-0.9-0.5-1.9-0.1-3-0.4c-0.3,0.1-0.9,0.5-1.1,0.3c0.4-2.1,4.2-0.4,5.8-1.5c0.6-0.5,0.2-1.4,1-1.6c1,0.8,1.7,1.8,3,2.2
			c0.9,0.3,2.3,0.2,3.6,0.2c3.7,0,7.8-1,10.6-1.8c0.2-0.3,0.5-0.6,0.7-0.8c0.3-0.6,0-1.1,0.6-1.5c1.1,0.2,2.4,0.7,3.4,0.5
			c0.8-0.2,1.8-0.9,2.7-1.3c1-0.4,2-0.8,2.8-1.2c2.5-1.1,4.2-2.8,5.4-4.6c0.1-0.7,0.3-1.6-0.3-2.1c-0.1,0.2-0.3-0.3-0.6-0.3
			c-3.9,2.5-9.4,3.3-14.5,4.1c-2.3,0-5.3,0.7-7.8,0.6c-2.2-0.1-3.9-0.6-5.8-1c-1.2-0.2-2.4-0.2-3.5-0.4c-1.8-0.4-3.4-1.4-5.1-1.8
			c-1.3-0.4-2.6-0.7-3.8-1.1c-0.4-1.3-3.3-1.6-2.3-3.3c1.1-0.2,0.6,0.6,1.2,1c1.7,1.1,3.5,2.2,5.9,2.6c1.2-0.3,1.6-1.4,2.8-1.8
			c0.5,0.3,0.5,1,0.8,1.4c0.6,0.6,1.5,1,2.1,1.6c2.5,1,7.2,1.9,10.7,1.7c0.4-0.1,1.2-0.2,1.3-0.2c0.7-0.5,1.8-0.7,2.3-1.3
			c0.5-0.5,0.4-1.1,1.1-1.5c1,0.3,1.3,1.5,2.3,1.8c5.3-0.6,9.8-2.2,12.3-5.7c0.1-0.9,0.4-1.5,0.4-2.5c-4.5,1.5-8.1,1.6-13.6,1.2
			c-5.6-0.4-11.2-1.9-15.2-3.6c-0.6-0.6-1.7-0.8-2.5-1.5c-1.5-0.1-2.7-1-4-1.5c-0.8-0.4-2.1-0.8-1.6-1.8c2.5,0.5,3.7,2.3,6.6,2.3
			c0.7-0.2,1.1-0.7,1.8-0.9c0.4,0.6-0.1,0.7,0,1.5c2.5,2.5,6.8,3.5,11,3.7c1-0.3,1.2-1.4,2.1-1.8c0.6,0.3,0.6,1.3,1.3,1.8
			c2.3,1.5,7.6,0.4,10-0.2c3.4-0.9,4.3-2.5,4.5-6.1c-2.4,0.7-5.3,0.4-7.5,0.5c-8.6-1.3-14.5-6-21.9-8.7c-0.6-0.8-2.6-1.2-2.2-2.3
			c1.8,0.2,3.4,2.1,5.4,2.3c1.2,0.2,1.8-0.4,2.9-0.3C81.1,137.5,87.4,139.6,90.6,139.9L90.6,139.9z M124.1,121.1
			c6.9-3.2,15.4-7.2,24.8-7.9c4.5-0.4,8.9-1.1,13.3-0.5c0.9,0.2,1.9,0.6,2.9,0.6c4.6,1.3,8,3.9,11.9,5.9c3,2.2,6.8,5.2,9.8,7.8
			c1.2,1,2.5,2.9,4.1,3.2c1.9,0.3,4.1-0.5,5.8-1.1c4.7-1.6,8.7-5.4,13.7-7.3c5.3-2,10.6-3.4,16.2-1.6c3.4,1.1,5.3,3.2,8.6,5
			c0.8,1.5,3.2,3.2,3.2,5.7c0,1.5-1.2,2.6-2.3,3c-2,0.5-4.7-0.8-7.1-0.5c-3,0.5-4.9,3.2-6.7,4.8c-1.3,2.3-2.8,4.6-4.4,6.9
			c-1.5,2.2-2.6,4.8-4.1,7c-1.5,2.2-3,4.6-4.6,6.6c-1.6,2.1-3.7,3.5-5.7,5.2c-3.8,1.7-8.1,3.1-12.6,3.7c-2.8-0.2-5.7-0.1-8.6-0.6
			c-2.6-0.4-5-1.7-7.3-2.3c-4.6-1.8-9.7-3-14.8-4.4c-3-0.4-5.7-0.7-8.8-0.6c-4.2,0.1-8,2.3-11,4c-1.3,0.7-2.5,1.8-3.8,2.6
			c-1.3,0.9-2.8,1.4-3.8,2.6c-3.4,1.8-6.3,4-9.8,5.7c-2.4,1.4-4.8,2.9-7.4,4.2c-0.8,0.4-1.5,1-2.4,1.4c-1,0.5-2.2,0.7-3.3,1.1
			c-0.4,0.2-0.7,0.5-1.1,0.6c-1.1,0.5-2.5,0.8-3.7,1.2c-1.6,0.5-3.1,1.2-4.8,1.5c-2.3,0.5-4.6,0.5-7.1,0.8
			c-5.6,0.5-10.5,1.2-16.1,0.3c-0.9-0.1-1.8-0.4-2.6-0.6c-3.1-0.7-5.4-1.5-8.2-3c-3.5-2.5-7.4-5.2-10.2-9.1
			c-4.1-5.9-7.1-15.4-4.6-24.4c1.9-5,5-9.7,7.6-14.6c4.5-8.4,9.9-16.1,16.1-23c0.9-1,1.9-1.9,2.8-2.7c4.6-3.8,8.8-7.7,14.5-10.1
			c4.5-1.9,10.6-2.1,15.4-0.4c2,0.7,4.1,2.3,6,3.9c1.8,1.6,3.6,3.2,4.9,5.1c0.6,1,1.2,2.1,1.8,3.1
			C122.6,113,123.5,117.1,124.1,121.1"/>
		<path class="st3" d="M193.7,140.4c-0.4,1-0.6,2.1-0.9,2.9c0.5,1,1.5,1.6,2.9,1.3c1.5,0.3,2.1,1.7,3.4,2.3c1-0.2,1.6-0.8,2-1.8
			C199.6,142.7,196.7,141.1,193.7,140.4L193.7,140.4z M193.6,139.4C193.6,139.3,193.7,139.3,193.6,139.4c3.4,0.6,5.3,2.2,7.4,4.2
			c0.3,0.1,0.5,0.1,0.9,0.2c0.7,1.4-1.1,4.1-3,3.9c-1.4-0.1-1.7-1.7-2.9-2.1c-1.8,0-3.2-0.5-3.9-1.6
			C192,142.3,192.4,140.2,193.6,139.4"/>
	</g>
	<path class="st2" d="M153.4,119.7c-1.6-0.1-2.8,0.7-3.9,1.1c-1,0.4-2.1,0.7-2.8,1.2c-0.1,0.8-0.2,1,0,1.5c2.2,1,6.1,0.6,8.4,1.7
		c1.3-0.4,2.7-0.7,3.9-1.2c0.3-0.8,0.1-1.7,0.2-2.7C157.8,119.9,155.7,119.9,153.4,119.7 M163.7,120c-0.2,0.4-0.5,0.7-0.6,1.3
		c1.1,0.3,2.1,0.8,3.3,1.1C166.9,120.8,165,120.3,163.7,120 M218.5,124c-0.1,0.9,0.2,1.4,0.4,2c1.8,0.2,3.4-0.4,5.1,0.3
		c0.5-0.3,0.8-0.7,0.9-1.4C223.5,123.9,220.6,123.2,218.5,124 M179.9,129.3c-2.1-2-5-4.1-7.5-5.2c-0.2-0.3-0.3,0.5-0.6,0.5
		c0.2,0.8,0.8,1.4,1.2,2.2c0.9,2,0.7,4.6,1.8,6.5c1.4,1.6,5.5,1.6,7.7,1.1C183.2,132.1,181.2,130.6,179.9,129.3 M134.6,135.8
		c2.1-1.1,4-3.2,7-2.6c1.2-1.6,3.4-2.1,3.4-4.9c-0.9-1.4-1.2-4.1-3-4.1h-0.1c-1.4,0.7-3.5,0.5-4.8,1.4c-0.5,0.4-1,1.4-1.4,2.2
		c-0.5,0.8-1,1.6-1.3,2.3c-0.9,1.7-1.8,3.4-2.2,4.9C132.7,135.5,133.6,135.7,134.6,135.8 M162.9,125.2c-0.6,0.7-3.3,2.9-3.4,3.9
		c-0.1,1.5,2.5,2.8,3.4,4.4c0.3,0.5,0.2,1,0.9,1.3c2.4,0,3.6-2.2,5.4-3.2c0.4-0.6,0.8-1.2,1.1-2.1c-0.4-1-0.6-2.1-1.2-3
		C166.7,126.4,165.1,125.5,162.9,125.2 M206.9,130.5c-0.1,1.6,0.6,3.2,1.8,3.8c1.2-0.3,2-1,3.3-1.2c1.2-1.6,1.5-4.1,2.6-5.8
		c-0.3-0.4-0.3-1.1-0.5-1.2C211.4,127.3,209,128.7,206.9,130.5 M153.2,128.6c-1-0.3-2.1-0.8-3.2-0.3c-1.8,0.7-3,3.6-2.7,5.4
		c1.9,0.4,3.4,1.1,6,1.1c0.2-2.2,1.1-3.6,2.1-5C155.2,128.8,154,128.9,153.2,128.6 M122.4,131.2c-0.3,0.8-0.2,1.9-0.1,2.6
		c1,0.9,2.8,1.1,4.5,1.4c1.8-1.5,2.8-3.6,3.6-6C127.8,127.2,124.4,129.9,122.4,131.2 M216.8,129.6c0,1,0.1,1.3,0,2.5
		c1.4,1.2,3-0.3,3.5-1.4c-0.2-0.7-0.3-1.5-0.9-1.9C218.3,128.9,217.4,129.1,216.8,129.6 M170.7,135.7c-1.4,1.3-3.5,2.7-3,4.9
		c0.8,0.9,2.2,1.1,3.2,1.8c1.2-0.1,1.8-0.8,2.6-1.3C173.5,138.8,172.8,136.4,170.7,135.7 M121.3,137.8c-0.2,0.8-0.9,1.2-1.3,1.9
		c0.6,1,1.5,1.7,2.6,2.2c1-0.4,2.1-0.8,2.7-1.5c0-0.5,0-1,0.1-1.4C124.2,138.4,122.7,137.9,121.3,137.8 M155.5,139.9
		c0.4,0.6,0.9,1.2,1.6,1.5c0.5-0.3,1.1-0.6,1.3-1.2C158.2,138.4,155.8,137.7,155.5,139.9 M205.1,138.7c-0.5,0.2-0.9,0.5-1.3,0.8
		c-0.2,1,0.3,1.3,0.6,1.7c0.7-0.5,1.6,0,2.3-0.4C206.4,139.9,205.9,139.1,205.1,138.7 M180.1,148.1c-0.1,0.9,0.4,1.2,0.8,1.6
		c0.4,0,0.5-0.2,0.9-0.2c0.1-0.4,0.1-0.8,0.3-1.1C181.6,147.8,180.6,147.3,180.1,148.1 M193.7,140.4c-0.4,1-0.6,2.1-0.9,2.9
		c0.5,1,1.5,1.6,2.9,1.3c1.5,0.3,2.1,1.7,3.4,2.3c1-0.2,1.6-0.8,2-1.8C199.6,142.7,196.7,141.1,193.7,140.4"/>
	<path class="st1" d="M84.1,145.5c2.4-3.4-10.6-8.7-11-3.3c-0.2,2.5,1.8,3.8,4,4.4C78.8,147.1,82.9,147.3,84.1,145.5 M82.3,152.4
		c-2.4-2.4-16.3-5.2-12.6,1.7c0.9,1.6,3.5,1.7,4.9,2.2c1.6,0.6,3.5,1.8,5.4,1.5C83.1,157.4,84.7,154.6,82.3,152.4 M82.7,165.5
		c2.3-1.4,3-3.8-0.1-4.6c-2.6-0.7-12.5-3.3-12.9,0.9C69.1,168.2,79.4,167.4,82.7,165.5 M88.4,172c1-3.2-8.7-2.7-10.2-1.9
		c-3.3,1.7,1.8,3.3,3.7,3.8C84,174.4,87.6,174.8,88.4,172"/>
	<path class="st2" d="M131.1,153.1c-2.9,2.4,3,2.9,2.9-0.7c-1.4-0.3-2.6,0.3-3.8,0.9 M138.1,152c1-0.5,1.9-1.5,1-2.5
		c-0.8-1-4.2-0.1-4.5,1.1C134,152.6,136.9,152.7,138.1,152 M145.2,150.9c1.2,0.5,4.8-0.9,4.1-2.6C148.3,146.1,142,149.5,145.2,150.9
		 M126.6,159.1c1.2,0.5,4.9-0.9,4.1-2.6C129.7,154.2,123.4,157.7,126.6,159.1 M141.9,152.8c-0.1-0.8-6.3,0.3-3.6,2.6
		C140,156.9,142,154.4,141.9,152.8 M133.6,156.4c-2.8,1,4.2,4.2,3.1-0.2c-1.1-0.4-3.1-0.6-3.8,0.5"/>
	<path class="st1" d="M178.6,56.8c14.4,5.9,26.7-4.2,30.8-17.9c0.2-0.8,0.5-2,0.6-3c0.3-2,0.6-3.6,0-5c-0.4-0.2-0.7-0.5-1.1-0.6
		c-1.2,0.3-3.3,1.7-3.4,1.7c-3.6,1.9-7.3,3.8-10.4,6.4c0.5,0.2,0.2,1.1,0.7,1.6c1,2.9-0.2,6.3-1.2,8.6c-1.5,2.4-3.3,4.5-5.6,5.6
		c-1.2,0.2-2.3,0.5-3.4,0.8c-2.1,0-4.5,0.2-6.7-0.9c-1.3-0.6-3-2.2-3.5-3.2c-1.1,0.3-2,1-3,1.4C173.7,53.9,175.6,56.3,178.6,56.8
		 M179.9,48.2c1.2,1,3.6,0.2,3-2.1C181.8,46.8,180.6,47.2,179.9,48.2 M40.7,34.5c0,3.2,0.8,7.3,2.1,10c1.9,3.9,4.8,8,7.9,10.9
		c3,2.7,7.5,4.9,12.3,5.5c1.9,0.2,3.8-0.2,5.6,0c3.8-1.2,7.3-1.9,9.7-5.2c-0.4-0.1-2.1-0.7-2.4-1c-3.7,3.7-10.9,4.3-16.1,0.9
		c-1.4-1.7-3-3.4-4.2-5.3c-1.4-3.2-2-7-1.6-11.2c-4.2-2.2-8-3.6-13.2-4.8C40.7,34.3,40.7,34.4,40.7,34.5 M62,46.2
		c0.6,0.5,1.3,1,2.2,1.3c0.5-0.2,1.1-0.3,1.4-0.8c-1.2-0.7-1.9-1.6-3.2-2.2C61.9,45.1,62.3,45.8,62,46.2 M128.7,99.6
		c-0.5-0.1-0.5-0.5-0.9-0.6c-1.5,0.6-1.2,2.1-1.4,3.7c-0.3,2.6-1.3,5.3,0,6.8c1.5-1.6,2.5-4,3.8-5.8c0.7-0.3,1.5,0.3,2.4,0.3
		c1.5-0.9,1.8-3.7,3-5.2c-0.2-0.5,0.2-0.8,0.1-1.4C132.9,95.5,130.2,97.8,128.7,99.6 M104.1,97.9c-2.2-2-6.1-4.5-9.7-3.4
		c-0.1,0.6-0.2,1-0.6,1.4c0.8,2.5,1.7,5,2.7,7.4c1.2,1.5,1.9,3.4,4,4.1c1.1-1.6,0.7-4.2,1.8-5.4c0.6-0.2,1.2,0.3,1.7,0.6
		C104.6,100.9,104.5,99.2,104.1,97.9 M128.9,117.4c0.6,1,2.3,1.1,3.4,0.9c4-2.7,2.8-8.5,0.6-11.9
		C131.2,109.9,128.6,113.3,128.9,117.4 M90.4,104.9c-0.1,0-0.1-0.1-0.2-0.2c-0.1,0.2-0.2,0.1-0.3,0.3c-1,3.8-0.8,7.9-0.4,10.5
		c1.6,1.4,4.8,1.7,5.6-0.2C93.6,111.7,92.4,108.1,90.4,104.9 M107.9,119.4c0.4-0.3,0.8-0.6,1.1-1c0-3.6-0.4-6-0.6-9.4
		c-0.3,0-0.3-0.2-0.5-0.3c-1.7,2.5-2.6,5.7-3.4,9.4C105.3,119.1,106.4,119.3,107.9,119.4 M112.4,117.8c-0.8,0.7-1.8,2.1-0.9,3.1
		c1.3,0.8,2.8,0.9,3.9,0.2c0.2-2.3,0-5.1-1-7C113.6,115.3,112.5,116.3,112.4,117.8"/>
	<path class="st0" d="M17.1,135.7c-1.7,0.7-3.2,1.1-3.6,3.1c0.6,1.7,1.9-0.2,2.6-0.2c0.4,0.4-0.4,0.6-0.7,1.1
		c-0.9,1.5-1.1,3.5,0,4.8c-0.8,1.5-1.2,4.2,1.3,3.7c0.8-0.8,0.6-2.2,0.3-3c0.9-0.4,1,0.9,1.9,1.1c0.8,0.2,1.4-0.6,2.2-0.1
		c0,0.4,0,0.8,0.1,1.1c-2.2,2-2.1,7.9,1.5,7.2c0.3-0.4,0.4-0.7,0.6-1c1.1-2.9-1.4-4.3-1-7.1c0.4-0.3,0.3-1.2,0.8-1.4
		c0.5-0.2,0.9,0.2,1.4,0c1.1-0.6,1.1-2.2,1.5-3.1c1.1,0.5,3.1,0.5,3-1.2c-0.1-1.1-2-1.8-2.8-2.1c-0.5-0.5,0.2-1.1,0.3-1.6
		c0.3-2.4,0.5-4.4,0.1-5.8c1.5-1.8,3.2-3.2,4.4-5.3C25.3,127.7,21,131.5,17.1,135.7 M27.9,162.8c-0.3,0.4-0.7,1.6-0.3,2.2
		c0.9,0.2,1-0.6,1.5-1c0.2,0,0.3,0,0.5-0.1c0.3,1.3,1.3,2.9,3.3,2.3c1.2-0.9,1-3.3,0.1-4.1c-2.6-1-3-3.9-5.1-5.4
		C27.8,159.2,27.5,160.7,27.9,162.8"/>
	<path class="st4" d="M81.8,111c1-0.2,2.4,1,3.3,0.4c0.8-0.6,0.1-1.8,1-2.2c0.6,0.3,1.5,1.1,2.1,0.5c0.3-1.9,0.2-4.7,1.7-5.9
		c0.4,0.2,0.9,0.3,1.5,0.4c1,1.6,1.7,3.4,2.6,5.1c2.9,0.5,5.9,0.7,8.1-0.4c1.4,0.8,2.6,1,4,1c0.4-1.2,1-2.2,2.1-2.4
		c0.2,0.4,0.4,0.4,0.9,0.4c0.5,0.8,0.2,1.9,0.5,3.1c2,0.7,3.6,0.4,5,0c1,0.9,2.6,1.7,3.7,2.2c0.8-0.3,1.5-0.6,2.1-1.1
		c0.1-1.1-0.1-2-0.2-2.9c-3.4-3.7-10.1-6.1-15-7.2c-0.2,0.7-0.4,1.6-0.9,1.9c-0.5-0.1-1-0.7-1.4-0.6c-0.9,1.8-0.4,4-1.7,5.1
		c-1.2,1-3.6-1.7-4.2-2.7c-1-1.5-1.7-3.2-2.2-4.4c-3.4-0.8-6.9-0.1-9.7-0.1c-2.7,0-5.3,0-7.4,1c-0.3,0.4-0.4,0.7-0.6,1.1
		c-2.6-0.6-5.2,0.3-6.8,2.4c-2.7-1.3-4.7,0.4-5.8,2.3c0.1,0.3,0.2,0.5,0.2,0.9c-0.2,0.2-0.4,0.5-0.8,0.6c-0.4-0.5-1.4-0.4-2-0.7
		c-0.3,0.2-0.5,0.5-0.9,0.5c-0.6,1-1.1,1.4-1.4,2.5c0.1,0.5-0.1,0.8-0.4,1c-0.2-0.1-0.3-0.3-0.7-0.4c-0.5,0.2-0.8,0.7-1.1,1.1
		c-0.2,0.5,0.5,0.7,0.1,1c-0.7,0.1-1.4,0-2.3,0.1c-0.5,0.7-1.4,0.9-1.8,1.7c-0.6,1-0.2,2.9-0.3,3.8c-0.5,0.2-0.6,0-1.2-0.2
		c-1.2,0.4-2.3,1.4-2.2,3.1c-0.2,0-0.3,0.2-0.5,0.2c-0.5-0.4-0.9-0.2-1.5-0.2c-0.6,0.6-0.3,1.7-1.4,1.5c-0.2-2,1-3.4,2.1-4.2
		c0.2-2.1,1.7-2.7,3-3.4c0.2-3.3,2.6-4.6,4.9-5.2c0.1-2.4,2.1-3.1,3.4-4.1c0.2-1.4,1-1.9,1.5-2.7c0.8-0.1,1.3-0.6,2.2-0.6
		c1.4-2.7,4.7-3.6,7.7-2.7c0.6-0.5,1.3-0.7,1.8-1.2c3.8-1.5,8.7-2.1,12.9-2.3c0.6,0,0.8,0.3,1.6,0.3c0.4-0.3,1-0.3,1.4-0.6
		c-3.5-1.7-7.9-2.4-11.5-2.9c-1.3-0.6-2.3-1.4-4-1.8c-0.9,0.3-1.5,0.9-2.7,0.8c-0.2-0.9-1-1.8-2.3-1.7c-0.2,0.4-0.5,0.9-0.8,1.3
		c-4.2,0.2-7.9,1.8-11.3,3.5c-1.2-0.4-2.1-0.8-3.1-0.5c-0.7,0.3-0.7,1.7-1.5,1.9c-0.8,0.1-1.4,0.3-1.8,0.9c-0.4,1.1,0.6,2.4-0.4,2.8
		c-0.6-0.7-1.6-0.3-2.3-0.1c-0.2,0.8,0.1,1.3,0.2,2c-0.6,0.4-1.3-0.2-2.1-0.1c-0.6,0.5-1.3,1-1.6,1.9c0.2,0.6,0.6,1,1.3,1.4
		c-0.2,0.3-0.2,0.5,0.2,0.7c-1,0.9-2.1,2.3-3,3.6c-0.2,0.6,0,1-0.6,1.2c-1.4-0.4-2.8,0.4-3.4,1.7c0.3,0.7,0.7,1.3,0.9,2
		c-1.4,0.4-3.1,0.8-3.7,2.4c-0.6,1.6,0.2,2.7,1.1,3.9c0.5,0.2,1,0.3,1.1,0.7c-1.3,1.1-2.6,3-1.4,4.6c0.9,0.4,1.5,1.2,2.8,1.1
		c0,2.3,1.1,5,4,4.5c-1.9-0.9-1.3-3.4,0.1-4.5c1.9,0.1,3.8,0.9,3.1,3c0.5,0.1,1,0.2,1.3,0.4c-0.4-3.3,2.7-3.7,5.7-3
		c0.2-3.2,3.3-3.5,5.2-1.9c0.1-2.6,3.8-3.5,5.4-1.5c0.9-1.5,3.4-2.5,5.1-1.2c-1.8-2.3,0.1-6.6,3.4-6c-1.9-3.4,2.6-8.7,6.2-5.6
		c0.3-0.5,0.2-1,0.8-0.9C79.5,113.5,82.3,113,81.8,111"/>
	<path class="st0" d="M77.4,114.4c-0.6-0.3-1.4-0.4-1.7-0.9c-1.9,0.2-3.3,2.9-2.5,4.9c2.7,1,4.5-1.4,4.9-3.4
		C77.3,115.1,77.8,114.5,77.4,114.4 M70.4,125.1c1.5-0.7,2.9-3.2,2.3-4.9C69.2,119,67.8,123.9,70.4,125.1 M64.4,127.2
		c-0.6,1.2-0.6,3.3,0.4,3.8c1.8,1,4.2-2.6,3.6-4.7C67,124.9,65.1,125.7,64.4,127.2 M59.3,127.6c-0.6,2.3,2.1,2.6,3.5,1.4
		c0.2-0.7,0.2-1.3,0.2-2C62,125.6,59.7,126,59.3,127.6 M57.5,128.2c-2.2-1.5-4.4,0.9-2.9,3c0.9,0.6,1.9,0.7,3,0.5
		C58.7,130.6,58.4,128.8,57.5,128.2 M59.6,132.7c0,1,1.6,1.9,2.7,1.6c0.8-0.2,1.3-1,1.7-2.2C63,129.9,59.7,130.5,59.6,132.7
		 M49.3,133.8c3.6,0.9,4.8-4.6,0.2-3.4c-0.2,0.4-0.3,1-1,0.7C48.1,132.1,48.5,133.1,49.3,133.8 M55.6,133c-0.5,0.9-0.9,1.7-0.4,2.6
		c1.4,1.3,3.4,1.1,3.9-1.1C58.7,132.8,57.1,132.4,55.6,133 M54,137.1c0.3-1,0.1-1.7-0.2-2.2c-1.1-0.8-2,0.2-3,0.4
		c-0.4,0.5-0.6,1.1-0.9,1.8C50.8,138.5,53.3,138.6,54,137.1 M47.9,137.7c0.9-1.8,0.5-3.9-1.8-4.2c-1.2,0.2-2,1-2.6,1.9
		C43.8,137.3,46.2,139,47.9,137.7"/>
	<path class="st4" d="M183,53.8c1.5-0.3,3.2-0.2,4.7-0.9c4.1-1.8,7.7-8.9,5.6-13.3c0-0.1,0-0.1-0.1-0.1c-0.8,0.5-1.8,0.8-2.4,1.6
		c0.6,6.4-4.6,11.9-11.9,9.8c-0.6-0.6-1.4-0.6-2-1.3c-0.2,0.5-0.7,0.5-0.9,0.8C177.8,51.9,179.5,53.5,183,53.8 M56.1,46.1
		c0.1,0.3-0.1,0.4-0.1,0.9c1.5,4.1,4.8,8.6,10.1,9.6c3.6,0.2,6.6-0.6,8.7-2.6c-0.4-0.2-0.7-0.6-1.3-0.8c-1.9,1.1-4.9,1.2-7.5,0.6
		c-5-1.2-8.1-6.2-6.6-11.1c-0.8-0.9-2.1-1.6-3.3-2.2C55.7,42.3,55.7,44.4,56.1,46.1"/>
	<path class="st0" d="M138.8,43.2c-2.1-1-3.4-2.6-3.9-4.6c-1-4.3,1.2-9.2,3.8-13c1.3-1.9,6.4-7.4,6.9-9.6c0.4-1.9-0.7-3.4-1.5-4.9
		c-1.2-1.5-4.2-2.4-5.6-2.4c-1.3,0.2-3.3,0.6-5.2,0.4c-2.2-1.6-7.6-2.4-6.6,1.5c3.4,4.2,6.9-1.1,10.9-0.9c1.6,0.1,3.1,0.3,4.7,1.3
		c1.3,1.5,1.9,2.8,1.2,5.2c-0.6,1.9-3.8,4.9-4.9,6.1c-1.6,1.7-2.4,3.2-3.8,5.2c-2.3,3.1-3.2,6.6-5.2,10.3c-2.5,2.3-6.5,2.4-8.9,4.9
		c-0.1,0.5-0.4,0.8-0.7,1.1c-1,5.6-2.7,12.9-4.1,17.6c-0.3,2.4-0.4,4.8-0.1,7c0.1,0.6,0.8,1.5,0,1.9c-0.8-1-1-2.6-1.1-4.1
		c-0.1-1.5-0.4-3-0.3-4.6c0.2-6.5,1.9-14.1-1.7-18c-1.3-1-3-1-4.4-1.4c-0.9-0.2-2.8-1.2-3.2-1.6c-2.2-2.2,0.2-6.2,1.1-9.2
		c0.7-3.7,2.1-7,2.1-10.6c0-3.5-0.5-6.7-1.3-9.8c1-3,0.7-7.1-1.9-8.9c-1.1-0.2-1.7-0.5-2.5-0.4c-1,1-0.8,2.7-0.6,3.9
		c0.3,1.8,3.7,5.6,4,6.2c2.2,8.7-1.4,20.2-6.5,27.1c-1.5,0.5-2.5,1.2-3.9,2c-1.8,1-2.9,1.7-4.6,2.9c-0.6,0.5-1.8,1.2-2,1.7
		c-0.4,1-0.2,2.6-0.3,3.7c-0.1,1.2,0.1,2.4-0.2,3.7c1.9,4.1,5.4,7.6,5.2,12.8c-0.9,1.5-1.4,3.2-2.3,4.6c-0.3,0.5-0.7,0.7-0.9,1.3
		c-0.6,1.8-0.2,3.4,0.1,4.8c0.4,2.3,1,4,1.6,5.9c0.9,2.5,1.8,5.4,3,7.4c0.8,0.7,2.3,1.2,3.3,1.3c2.2,1.1,4.9,2.3,7.3,3.6
		c2.5,1.4,4.9,2.4,7.2,1.1c0.8-0.4,1-1.3,2.1-1.5c0.4,0.7,0.6,1.5,1.3,1.9c2.8,1.4,5.8,1.2,9.5,1.3c3.3-1.4,6.9-3.2,10.1-5.2
		c0-0.6,0.8-1,1.1-1.7c0.4-0.6,0.9-1.2,1.4-1.8c1.5-4.4,4.2-7.8,4-12.3c-1.2-5.7-1.9-11.2-2.4-17.2c-0.1-1.4-0.6-3.2-0.4-4.4
		c0.2-1.2,1.2-2.3,1.9-3.5c1.2-2.1,2.4-3.8,2.3-6.2C142.5,43.8,140.4,43.7,138.8,43.2"/>
	<g>
		<path class="st2" d="M123.7,43.2c-0.6,1.8-2.7,3.6-1.4,5.2c1.2-0.1,1.9-0.9,2.9-1.3c1.1-0.4,2.4-0.5,3.6-0.7
			c0.7-1.4,1.3-3.3,1-4.5C128,42,125.6,42.5,123.7,43.2 M133.5,43.5c-0.6,1-1.2,2.1-1.1,3.4c0.7,1.1,1.7,1.6,2.8,2.3
			c1.4-0.8,2.9-1.3,4.5-1.8c0.4-0.7,0.1-1.3,0.1-2.2C137.8,44.6,135.4,44.3,133.5,43.5 M100.1,42.2c-1.6-0.3-2.8,0.2-4.3,0.4
			c-0.3,1-0.2,1.1-0.5,2.1c-1,0.6-2.6,0.2-3,1.7c-0.3,0.1-0.7,0-0.9,0.4c0.6,1.4,2.5,2,3.6,2.8c1.5-0.7,3.1-1.3,4.5-2.1
			C99.8,45.6,100.5,44.1,100.1,42.2 M113,48.3c-1-3.2-5.5-4.1-9-5c-1,0.6-1,2.5-1.1,3.7c1,1.3,3.1,1,4.7,1.9c0,2.3,2.7,1.9,4.7,2
			C112.6,49.8,112.8,49.4,113,48.3 M132.1,51.8c0.4-2.5-7.9-4-6.7,0.6c1,0.9,2.5,1.5,3.5,2.3C129.5,53.8,132,52.9,132.1,51.8
			 M120.8,53.9c-0.2,0.6-0.2,1.1-0.1,1.5c0.7,0,1.3-0.2,1.8-0.6c0-0.4-0.2-0.6-0.1-1C121.6,53.8,121.5,53.9,120.8,53.9 M135,57.5
			c-0.3-1.9-2.5-0.9-3,0.4c0.4,0.7,0.5,1.6,1,2.2c0.1-0.2,0.6,0.1,0.9,0.1C134.4,59.3,134.8,58.6,135,57.5 M100.4,50.2
			c-0.8,1-2.7,0.7-3,2.1c-0.2,1,2.1,3,3.2,3.4c1.4-1,2.6-2,3.7-3.5C103.8,50.9,102.2,50.4,100.4,50.2"/>
		<path class="st2" d="M110.4,55c-0.4,0.5-1.4,0-2.1-0.1c-0.9,0.9-1.2,2.8-0.3,3.6C109.3,58.2,111.8,56.8,110.4,55 M99.4,60.4
			c0.3,0.2,1.1,0.5,1.7,0.3c0.1-0.5,0.3-1.1,0.2-1.5C100.5,58.4,98.9,59.1,99.4,60.4"/>
	</g>
	<path class="st0" d="M66,36.3c0.2,0,0.1-0.1,0-0.2c-2.6-1.7-5-2.9-7.1-4.8c2.3,0.1,3.5,2.3,5.8,2.9c0.1,0.5,1,0.5,0.9,1
		c1.9,0.5,2.9,2.3,4.3,3.4c-0.7-1.7-2.1-3-3.2-4.4c-2.4-1.6-4.2-3.3-6.4-4.8c-0.7-0.2-1.3-0.4-1.5-1c2,0.2,4.5,1.9,5.8,3.4
		c1.6,0.6,2.4,2.1,3.8,2.5c-1.8-3.2-5-5.5-8-7.9c-0.7-0.2-1.5-0.5-1.7-1.1c0.7-0.6,1,0.5,2.2,0.6c1.9,1.6,4.1,3,6.2,4.8
		c-0.8-3.6-3.9-6.2-7.2-8.1c-0.7,0-1.5-0.3-1.3-0.9c1.2-0.3,2.3,1.1,3.5,1.2c1,0.9,2.6,1.3,3.8,2.3c1.8,2.7,3.6,5.6,5,8.7
		c1,3.6,2.5,6.7,3.8,9.8c0.6,0.4,1,0.9,0.9,1.8c0.9,0.3,1,1.5,1.7,1.6l-9.1-21.1c-1.1-1.1-1.8-2.5-3.2-3.4c-2.5-1.6-7-2.4-10.3-2.9
		c-1-0.2-2-0.6-3.1-0.7c-4.8-0.6-8,0.6-10.9,2.4c-2.1,2-4.2,4-6.2,6.1c3-0.8,6.2-0.4,9.7,0.1c2.6,0.4,4.3,1.4,6.6,2.1
		c1.9,1.6,7.7,2.5,9,5C53.2,31.8,46,28,37.5,28.2c-2.7,0.4-6.1,0.9-8,2.9c-0.5,1,0.1,2.5,0.1,4c0,1.8-0.5,3.4,0.9,4
		c2.4-0.1,5.7-1.4,7.8,0.1c0.3,0.7,0.6,1.5,1,2.1c1.8,6.4,5.2,12.2,9.8,16.7c5,3.2,12.3,5.9,18.7,5.6c0.4,0.1,0.8,0.1,1,0.3
		c3.9-1.2,7.4-2.9,10.5-5.3c0.4-0.9,0.1-1.5,0.2-2.4c-1.2,0.5-1.9,1.7-2.9,2.4c-1,0.7-2.2,1.3-3.5,1.6c-0.2,0.1-0.4,0.4-0.6,0.4
		c-1.8,0.6-3.6,1.1-5.7,1.2c-2.6-0.1-4.7-0.1-7.6-0.9c-10.6-2.8-16.4-12.1-19-21.1c0-1.2-0.3-2.2-0.3-3.3c-1.5-0.9-2.7-2.4-4.5-2.4
		c-1.5,0-2.3,1.4-3.7,1.1c1.5-2.1,4-2.5,6.5-2.7c0.9,0.4,2.2,0.2,3.3,0.5C45,34,48,35.7,51.7,36.8c4,2.2,8.6,4.5,12.3,6.9
		c2.7,2.1,5.3,4.1,7.9,6.2c2.5,2,5,4.4,8.8,5.6c0.6-0.9,1-2,1.1-2.9c-0.6-0.8-1.3-1.3-2.6-1.8c-2.5-1.8-4.2-4.6-6.6-6.7
		c-2.4-2.1-5.3-3.8-7.7-6c0.7-1,2,0.3,2.4,0.9c1,0.4,1.2,1,2.4,1.4c0.2,0.2,0.6,0.9,1,0.8C69.5,39.4,67.8,37.5,66,36.3 M77.7,45.9
		c0.6,1.1,1,2,1.5,3.1c2.1,1.4,3.6,3.2,5,5.1c0.4,0.4,0.2,1.1,0.8,1.4c0.5-2.2-0.6-4-1.3-5.7c-1.9-1.5-2.7-3.6-5.5-4.6
		C78.2,45.4,77.9,45.5,77.7,45.9 M84.8,57.8c-4.7,0.5-6.3,5.6-9.4,8.5c-1.7,0.3-4,1.6-6.5,1.8c-1.5,0.1-4.9,0-5.1,1.1
		c-0.3,1.5,2.9,1.7,4,2.2c1.8-0.1,3.1-0.7,4.6-1.4c3-1.4,5.9-2.9,8.4-4.6c1.2-2.6,3.9-4.2,4.2-7.3C85,58.1,84.9,58,84.8,57.8
		 M83.1,79.2c1.9-1,3.3-2.7,4.6-4.5c0.2-1.3,0.4-2.8,0.4-4.2c0.9-1.4,2-3,2.6-4.4c-0.2-2-0.5-4.5-1.7-5.5c-0.1,0-0.2,0-0.2-0.1
		c-0.6,2.3-0.8,3.4-1.3,5.4c-0.5,1-1.4,1.4-1.8,2.7c-1.8,1.6-3.2,3.5-4.7,5.8c-0.6,0.2-0.9,0.7-1.5,0.9c-0.9,0.4-1.9,0.5-2.6,1.2
		C78.6,77.8,80.3,79.9,83.1,79.2"/>
	<path class="st2" d="M67.8,66.5c1-0.1,3.8-0.7,4-0.4c0.5-0.6,1.6-0.2,2.3-0.6c1.5-1.8,3.8-3.1,4.7-5.3c-1.4,1.1-3,2.1-4.6,3
		c-1.7,0.4-3.3,0.9-4.8,1.5c-0.4-0.2-0.4-0.1-0.6-0.2c-2.6,0.6-5.6,0-8.6-0.7c-2.2-0.5-4.6-1.6-5.9-0.9
		C56.2,67.9,63.2,67.1,67.8,66.5 M74.5,70.2c-0.1,0.8-0.8,0.6-0.9,1.5c0.3,0.6,0.3,1.3,0.9,1.7c0.8,0.1,2.3,0.1,3,0.1
		c0.9-1,2.7-2.2,4-3.4c0.4-0.4,1.4-1.3,1.6-1.8c0.3-1.1-0.4-2.6-0.5-3.9C80.8,67.8,77.3,68.6,74.5,70.2"/>
	<path class="st0" d="M83.8,82.4c-1.3,0.3-1.6-0.6-2.6-0.7c0.3,1.1,1.3,1.8,1.8,2.9c-0.8,1.3-2.9,1.3-4.7,0.7
		c-0.2,2.2,1.8,2.8,3.6,3.6c1.6-0.5,3-1.3,4-2.6c1-2.3,3.1-4.8,2.8-7.8C87.6,79.8,85.6,81.9,83.8,82.4 M87.1,88.7
		c0.4,0.6,0.8,1.9,2,2.4c0.6-1,1.4-1.8,2-2.8c0.2-1.5-0.4-2.6-1-3.8C89,85.8,88.3,87.4,87.1,88.7 M199.3,20.5
		c-2.2,0.5-3.9,1-5.8,1.6c-0.7,0.2-1.4,0.4-2.2,0.7c-1.9,0.6-4,1.6-5.6,2.1c-0.4,0.1-1,0.3-1.4,0.4c-0.8,0.2-1.2,0.3-1.8,0.4
		c-0.7,0.2-1.4,0.1-2.1,0.4c-2,1.4-3,3.8-4.4,5.9c-0.7,1.1-1.8,2.2-2.5,3.5c-0.2,0.4-0.2,0.9-0.3,1.3c-0.7,1.5-1.7,3.2-1.6,5.6
		c0.5,0.7,0.6,1.6,1.6,2c1.8-0.6,3.1-1.8,4.7-2.6c1-0.9,1.9-2,3.3-2.3c-0.4,1.1-1.1,1.6-2,1.9c-3,3-6.9,4.6-10.5,6.7
		c-0.9,0.9-0.5,1.5,0,2.4c1,2.2,2.2,1.1,4.2,0.7c0.2-0.4,0.5-0.5,0.8-0.6c0.8-0.2,1.4-0.7,2.2-0.9c7.3-5.2,22.9-15,23.3-15
		c1.5-1,2.7-1.9,4.3-2.7c4.1-2.1,9.1-5.1,15.1-3.4c0.3,0.2,0.5,0.6,1,0.7c-0.1,0.8,1,1,0.4,1.8c-1.2-0.1-1.1-1.1-1.8-1.6
		c-0.6,0.1-1.3,0-2.1-0.2c-1.5,0.6-3.3,1-4.4,2.2c-0.7,2.2-0.7,4.9-1.2,7c-0.3,1.3-0.9,2.5-1.4,3.6c-1.9,5.2-4.8,8.7-8.1,11.9
		c-0.5,0.5-1.1,0.7-1.7,1.1c-0.3,0.2-0.6,0.9-0.9,1c-0.9,0.4-1.6,1-2.4,1.4c-1.2,0.7-3.2,1.4-4.4,1.7c-6.2,1.5-16.2-0.2-20-5.8
		c-0.8-0.2-1.1-0.1-1.6,0.4c0.3,2.3,2.6,3.3,3.7,5.1c0.3,0.1,0.7,0.3,0.8,0.6c2.7,1.1,5.9,2.9,9.1,2.3c0,0.2,0.5,0.2,0.7,0.2
		c0.8-0.2,1.2-0.2,2,0c6.3-0.7,11.1-3.8,15.8-6.8c2.1-0.5,3.3-2.3,5.1-3.3c2.3-4.2,2.6-9.7,4.2-13.9c1.8-3,4.8-4.9,8.5-3.9
		c0.6-0.6,1.1-1.8,1.7-2.9c0.7-1.4,2-2.9,1.6-4c-1.7-2.4-5.8-4.2-9.3-3.7c-3,0.6-5.8,1.7-8.5,2.7c-2.4,1.3-4.7,2.8-6.9,4.4
		c-2.3,1.3-4.5,3.5-6.9,4.2c0.5-0.5,0.8-1,1.4-1.8c3.1-1.9,6.1-4.3,9.2-6.2c0.6-0.4,1.2-0.6,1.7-0.9c0.6-0.3,1.2-0.6,1.5-1
		c-1,0.2-1.6,0.6-2.7,0.6c-3,1.8-6.5,3.4-9.4,5c-1,0.6-1.9,1.9-3.1,1.3c4-3,8.6-5,13.1-7.4c-2.4,0.2-4.2,1-6.4,1.5
		c-0.2,0.4-0.7,0.4-1,0.7c-1.4,0.4-2.8,1-4.1,1.6c-1.3,0.6-2.4,1.8-3.9,1.7c0.9-1.2,2.4-1.4,3.4-2.2c0.4,0,0.6-0.2,1-0.2
		c1.3-1,2.9-1,4.2-2.1c0.6,0.1,1-0.4,1.5-0.5c0.4-0.2,1.4-0.2,1.4-0.6c-1,0.2-2.5,0.7-3.3,0.4c-2.3,0.8-4.6,1.8-7,2.5
		c-0.6,0.3-1.8,1.1-2.3,0.8c0.4-0.9,1.3-1,2.2-1.1c1.4-0.9,3.2-1.3,4.7-2.1c1.2-0.2,2-0.7,3-0.6c0-0.1,0.1-0.1,0.2-0.1
		c0.4-0.5,1.1-0.6,1.6-1c-1.4,0.1-2.7,0-3.8,0.8c-2-0.2-3.9,0.9-5.5,1.6c-1.5,0.1-3,0.8-4.2,1c0.4-0.4,0.8-0.6,1.3-0.9
		c1-0.5,2-0.5,3.1-1c0.8-0.4,1.6-1,2.7-1.3c1-0.3,2-0.4,3-0.7c2.1-0.6,4.4-1.5,6.2-1.5c0.9,0,1.9,0.6,3,0.8c1.2,0.3,2.6,0.1,3.7,0.5
		c0.6,0.2,1.2,0.9,2,1c0.1-0.3,0.7-0.1,0.9-0.4C207.1,21.2,203,19.7,199.3,20.5 M168,41.3c-1.2,2.4-2.8,4.6-4.1,6.8
		c-0.5,0.7-1.2,1.6-1.4,2.3c-0.4,1-0.4,2.6-0.2,3.6c0.4,3.3,2.8,6.2,4.8,8.5c0.6,0.1,0.8,0.4,1.3,0.5c-1-1.6-1.4-3.5-1.8-5.4
		c-0.5-1.5-1.5-2.5-1.8-4.1c0.8-0.2,1,0.4,1.2,0.9c3.5,1.5,3,5.8,4.8,8.4c2.2,2.2,7.3,2.3,10.6,3.2c1.5-0.6,3.2-1.1,4.7-1.9
		c-3.2,0.1-6.3-0.5-9.4-2.2c-2.3-1.2-3.5-2.6-4.9-4.1c-1.2-1.3-2.2-2.5-2.9-3.9c-2.4-0.7-3-3.3-2.8-5.7c2-1.4,2.8-4.1,2.4-6.8
		C168.3,41.4,168.1,41.3,168,41.3"/>
	<path class="st2" d="M165.5,40.5c-1.2,0.8-2.3,2.1-3.5,3.2c-0.1,0.1-0.5,0.1-0.6,0.2c-0.2,0.2-0.4,0.6-0.6,0.8
		c-0.9,0.9-1.8,1.8-2.6,2.7c-1.5,1.6-2.1,4.1-3,6.9c0.5,1,0.7,2.4,1.2,3.7c0.3,0.8,1.2,2.8,1.7,3.3c1,1,2.9,1,4.2,0.4
		c-1.9-2.4-2.6-5.6-3.6-8.6l0.8-4.7c1-1,1.9-2.3,3-3.1c1.2-2.4,3.9-3.2,4.8-5.6c0-0.1-0.1-0.2-0.2-0.2
		C166.9,40.2,166,40.2,165.5,40.5"/>
	<path class="st0" d="M154.9,43.3c-1.2,2.1-3.6,3.8-4.3,6.3c-0.5,1.7-0.2,3-0.4,4.7c-1.8-2-1.6-5.7-0.4-8.4c-0.5-0.1-1-0.1-1.4-0.1
		c-3.8,2.6-3.9,9.6-3.5,14.4c1.9,2.6,4.9,8,9.4,6.7c0.5-0.7,1.1-1.2,1.5-2c-0.9,0.2-1.3,1-2.1,1.1c-1.7-0.2-3.2-0.6-3.9-1.8
		c1.3,0.4,2.4,1.2,3.8,1c0.9-0.7,1.9-1.1,2.6-2.1c-2.2-0.7-4.5-1.6-5.2-3.5c0.2-2.7,0.2-6.4,1.6-9c0.2-0.4,0.9-0.9,1.3-1.5
		c1.6-2.1,3.4-3.8,4.6-6.1C157,42.1,156.1,43.2,154.9,43.3"/>
	<path class="st2" d="M143.4,52.8c-1.6,1.7-1.9,3.9-1.8,6c0,0.8,0.5,1.6,0.4,2.3c0,2,0.7,4.2,1.3,5.8c1.2,1.1,2.7,2.1,4.5,2.9
		c0.6-0.2,1.4-0.2,1.8-0.6c-3.8-2-6-5.2-6.6-9.4c0.5-1.7,0.5-4.7,0.8-7c-0.2,0-0.1-0.2-0.3-0.2C143.5,52.7,143.4,52.6,143.4,52.8"/>
	<path class="st0" d="M151.4,69.7c-0.5,0.7-1.2,1.2-1.6,2c-0.9,0.3-2.2,0.4-2.9,0.6c1.2,2,4.8,3.4,7.3,2.5c1.8-2,3.6-5.8,3.6-8.4
		c0-0.1,0-0.1-0.1-0.1C155.9,67.7,154.2,71.4,151.4,69.7"/>
	<path class="st2" d="M151.8,79c0.4-0.2,0.6-0.7,0.8-1.2c-5.8-1-7.9-6.1-10.1-10.1C143.3,72.8,144.9,79.4,151.8,79"/>
	<path class="st0" d="M141.3,90.3c1,0,1.7-0.5,2.4-1c1.1-0.1,3-0.9,5-1c0.7-0.1,1.4,0.1,2,0c1.4-0.2,3.7-1.5,3-3.2
		c-3.2-0.5-5.9-1-8.2-2c-0.2-0.6,0.1-1.6,0.1-2.3c-0.5-0.4-0.7-1-1.3-1.3C143.9,82.9,141.5,86.6,141.3,90.3"/>
	<path class="st4" d="M139.1,92.6c-0.5-0.1-0.9-0.2-1.4-0.2c-4.4,2-8.2,5-13.3,5.9c-2.7-0.4-6.8-0.1-9.1-1.8
		c-0.3-0.4-0.5-0.9-0.8-1.3c-1.1,1.4-2.8,1.8-4.8,1.8c-4.7-1.1-7.4-3.6-11.3-5.2c0,0.6-0.6,0.4-0.9,0.6c-2.7-0.7-7.2-0.6-7.7,2.6
		c0.5,1.4,2.2,2,3.6,2.8c-0.5-1.4-1-3.1,0.5-4.1c3-1.7,9.9,1.4,11.1,3.9c0.3,0.7,0.3,1.4,0.4,2.2c2.5-0.4,6.3-1.2,8.3,0.7
		c0.6,0,0.7-0.1,1.2,0.2c3-0.2,6.1-1,9.4,0.5c0.2,0.1,0.9,1.1,1.3,0.8c-0.2-1.3,0.2-1.7,0.5-2.9c0.9-0.5,1.5-1.3,2.9-1.1
		c1.4-2.1,6.1-3.7,7.9-0.8c0,0.4,0,0.8-0.2,1.3C138.4,98.1,141.6,94.7,139.1,92.6"/>
	<path class="st0" d="M147.6,91.1c-1.1,1-1.4,3.3-1.7,5.3c-0.5,3.2-0.2,6.6-1.4,9.4c0-1.9,0.1-4.9,0.2-7c0.2-2.7,1.1-5.7-0.1-7.4
		c-0.7,0.3-0.9,1.3-1,1.9c-0.6,2.4,0,5.2-0.7,8.1c0.3,1.2-0.4,2-0.7,2.9c-1.1,3.2-1.4,6.2-2.6,8.5c-1.1-0.4-2.4-2-3.6-1.1
		c0.1,3.1-1.2,6.4-3.3,7.6c-1,0-1.6,0.4-2.5,0.3c-2.6-0.4-2.8-2.6-2.2-5.1c-2,1.1-3.1,2.4-3.6,4.4c-0.1,0.4,0.1,1.4-0.6,1.4
		c-0.5-0.2-0.2-0.9-0.3-1.4c-1.9-1.1-3.2,0.7-4.5,1.4c0,0.4,0.5,1-0.1,1.2c-1.1-0.5-0.7-2.4-2.4-2.1c0,1-0.1,1.9-0.6,2.6
		c-2.6,2.2-8.2-0.8-4.9-4.2c-0.3-0.2-0.7-0.8-1.1-0.6c0.2,5.4-8.5,3.5-6.2-1.3c-1.3-0.2-2.4,0.1-3,1c0.1,0.5,0.3,1.1-0.2,1.3
		c-0.6-0.7-0.6-1.8-1.1-2.7c-1-1.1-2.1-3-4-2.9c-0.1,0.8,0.5,2,0.8,2.8c-0.3,0.4-0.3,0.9-0.6,1.1c-1.7,1.7-4.4,1.9-6.6,0.2
		c-1-0.8-1-2-1-3.3c-2-0.1-2.5,2.2-3.2,4c-0.7,0.5-0.4,1.5-1.2,1.8c-0.2-0.6,0.1-1.1,0.3-1.7c-0.6-0.2-0.8-0.7-1.3-1
		c-0.3,0.6-0.2,1.5-0.5,2.5c2.5,1.7,5.9,2.8,8.3,4.6c2.2,2,4.3,4.1,5.6,6.7c0.6,0.3,1,1.3,1.8,1.4c0.5,0.1,1.3-0.4,2.1-0.6
		c2.6-0.6,6.7-0.7,9.8-0.6c0.2,0,0.4,0,0.4,0c4,0.8,7.1,0.7,10.7,1.9c1.6-0.2,2.6-1.1,3.8-2.3c1-0.9,2.1-1.8,2.9-2.4
		c2.1-1.8,4.2-3.3,6-4.7c4.1-3.2,8.2-6.2,12.2-9.1c1.7-0.7,3.1-2.1,4.9-2.7c0.2-0.2,0.3-0.4,0.5-0.7c0.4,0.2,0.5-0.1,0.7-0.2
		c-0.2-1-0.8-1.7-1.3-2.5c-1.8-3.5-1.9-7.8-1.8-12.5c-0.4-1.1-0.2-2.6-0.4-3.7C148.2,91.4,147.9,91.2,147.6,91.1"/>
	<path class="st3" d="M103.4,5.3c0.3,0.4,0.9,0.4,1-0.2c0.1-0.7-0.8-2-1.2-0.7C103.1,4.7,103.3,5.1,103.4,5.3L103.4,5.3z M104.7,6.9
		c-1.8-0.1-2.5-1.8-1.8-3.6C105,2,106,5,104.7,6.9 M129,10c-0.5,0.2-1.2-0.2-1-0.8C128.4,8.4,130,9.5,129,10z M129.5,10.9
		c-1.1-0.1-1.9-0.4-2.1-1.1c0-1.5,1.3-1.7,2.3-1.2C130.1,9.3,130.3,10.5,129.5,10.9"/>
	<path class="st1" d="M183,26.6c0.3,0.2-0.3,0.4,0.2,0.5c-0.8,0.4-1.5,0.9-2.3,1.4c-1.7,3.2-4.2,5.1-5.6,8.8c3.1-2.5,6.5-6.3,10.9-7
		c-0.7,0.5-1.5,0.9-2.3,1.2c0.1,0.4-0.2,0.4-0.2,0.7c-3.3,2.2-6.8,4-8.9,8c3.6-3,7.5-5.5,11.9-7.2c-0.3,0.6-1.2,0.4-1.3,1.4
		c-0.5-0.1-0.6,0.2-0.8,0.4c-1.5,0.7-2.9,1.5-4.2,2.6c-1.4,0.4-2.2,1.7-3.6,2.3c-0.3,0.6-0.8,1-1.4,1.3c-0.2,0.9-0.9,1.1-1.4,1.5
		c-0.9,0-1-0.5-1.3-0.9c0.4-1.2,0.3-1.8-0.1-2.6c1.9-4.3,4.8-7.1,7.1-10.9C180.9,27.5,182,27,183,26.6"/>
	<g>
		<path class="st3" d="M123.7,43.2c-0.6,1.8-2.7,3.6-1.4,5.2c1.2-0.1,1.9-0.9,2.9-1.3c1.1-0.4,2.4-0.5,3.6-0.7
			c0.7-1.4,1.3-3.3,1-4.5C128,42,125.6,42.5,123.7,43.2L123.7,43.2z M130.5,40.9c1,1.4-0.1,5.3-1.4,6.4c-3-0.2-4.5,1.9-7.3,2
			c-1.4-1.4-0.7-3.1,0.3-5c1.2-2.3,1.9-2.5,4.5-3C128.1,41.1,129.2,41,130.5,40.9 M133.5,43.5c-0.6,1-1.2,2.1-1.1,3.4
			c0.7,1.1,1.7,1.6,2.8,2.3c1.4-0.8,2.9-1.3,4.5-1.8c0.4-0.7,0.1-1.3,0.1-2.2C137.8,44.6,135.4,44.3,133.5,43.5L133.5,43.5z
			 M134.7,42.8c1.7,1.1,4.9,0.7,6,2.2c-0.1,1.1,0,1.8-0.3,3c-0.5,0.5-1.6,0.7-2.9,1.2c-1,0.4-1.8,1.1-2.5,1
			c-1.4-0.2-2.3-1.9-3.4-2.8c-0.3-1.5,0.6-3.2,1.2-4.4c0.2-0.1,0.4-0.2,0.5-0.3C134,42.8,134,42.7,134.7,42.8 M100.1,42.2
			c-1.6-0.3-2.8,0.2-4.3,0.4c-0.3,1-0.2,1.1-0.5,2.1c-1,0.6-2.6,0.2-3,1.7c-0.3,0.1-0.7,0-0.9,0.4c0.6,1.4,2.5,2,3.6,2.8
			c1.5-0.7,3.1-1.3,4.5-2.1C99.8,45.6,100.5,44.1,100.1,42.2L100.1,42.2z M100.6,41.4c0.9,1.8-0.1,4.4-0.3,6.2
			c-1.4,1.6-3.5,2.2-5.5,2.8c-1.6-0.6-2.4-1.7-3.8-2.4c-0.2-0.6-0.4-1.1-0.2-1.6c0.2-0.4,0.4-0.3,0.9-0.7c0.7-0.6,1.6-1.8,2.8-1.4
			c0.2-0.4,0.2-1.6,0.4-1.9C96.2,41.4,98.6,41.2,100.6,41.4 M113,48.3c-1-3.2-5.5-4.1-9-5c-1,0.6-1,2.5-1.1,3.7c1,1.3,3.1,1,4.7,1.9
			c0,2.3,2.7,1.9,4.7,2C112.6,49.8,112.8,49.4,113,48.3L113,48.3z M106.8,49.4c-1.7-0.5-3-0.6-4.4-1.5c-0.8-1.1-0.2-3.4,0.5-4.6
			c-0.2-0.4-0.5,0-0.3-0.6c1.1-0.5,2.9-0.2,4.5,0.3c3.4,1.1,6.4,2.4,6.8,5.5c-0.5,0.9-0.2,2.5-1.3,3.1c-0.1,0.1-3.6,0.2-4.4-0.2
			C107.3,51.1,107.1,50.1,106.8,49.4 M114.8,92c-0.7-0.3-0.8-1.4-1-2.1c-0.7-2.4-1.2-6.6-1.9-9c1.2-2.6,3.5-5,1-7.4
			c-4.2-2.3-8.9-3.9-12.9-6.7c-1.4-1-3-1.8-3.9-3c-1.2-1.8-1.8-4.1-2.6-6.1c-0.8-2.1-1.6-4.1-3-5.9c-0.2-1.3-0.7-2.5-0.8-4
			c1,0.7,1.2,2.7,1.8,4c2.9,3.2,4.6,7.1,6.6,10.8c4.2,3.8,11.8,5.3,16.5,8.6c0,0.4,0.2,0.6,0.6,0.8c0,0.6,0.3,1,0.4,1.5
			c0.7-1.8,1.9-2.8,3.2-3.7c3.8-1.1,7.9-3,11.8-4.4c2.7-1,5.9-1.5,6.6-5.3c0.6-3.1-0.4-6.6,1.2-9.1c0.5-0.3,0.8-1,1.6-0.9
			c-0.3,1.1-1.3,2-1.5,3.4c-0.4,2.6,0.2,5.5-0.3,8c-0.4,2.2-1.4,3.9-3.3,5.4c-2.8,1-5.8,2.6-8.7,3.1c-2.3,1.2-5.7,1.9-7.6,4.2
			c-0.2,0.8-0.5,1-0.6,1.5c-0.3,1.3,1.1,2.4,0.9,3.8c-0.1,0.5-0.5,1.2-0.8,2c-0.8,1.9-1.3,4.7-1.9,7c-0.2,0.6-0.6,1.2-0.7,1.8
			C115.4,90.9,115.7,91.9,114.8,92 M132.1,51.8c0.4-2.5-7.9-4-6.7,0.6c1,0.9,2.5,1.5,3.5,2.3C129.5,53.8,132,52.9,132.1,51.8
			L132.1,51.8z M128.8,55.7c-1.5-0.7-2.7-1.7-4.1-2.4c-0.6-1.1,0-2.4,0.3-3.8c1.3-0.6,2.9-0.8,4.5-1c1.8,0.9,3.9,1.8,3.5,3.7
			c-0.2,0.9-1.3,1.4-2,2.1C130.3,54.8,129.6,55.4,128.8,55.7"/>
		<path class="st3" d="M120.8,53.9c-0.2,0.6-0.2,1.1-0.1,1.5c0.7,0,1.3-0.2,1.8-0.6c0-0.4-0.2-0.6-0.1-1
			C121.6,53.8,121.5,53.9,120.8,53.9z M123.1,53.2c0.1,0.7,0.4,1.2,0.2,2c-0.8,0.8-2.3,1.1-3.4,1c0-0.6-0.5-2.2,0.4-3.1
			C121.1,53.1,122.1,52.7,123.1,53.2 M135,57.5c-0.3-1.9-2.5-0.9-3,0.4c0.4,0.7,0.5,1.6,1,2.2c0.1-0.2,0.6,0.1,0.9,0.1
			C134.4,59.3,134.8,58.6,135,57.5L135,57.5z M134.4,61.1c-2.3,0.1-2.8-1.8-3.4-3.2c0.3-2.6,5-3.4,4.9-0.3
			C136,59,134.9,60,134.4,61.1 M100.4,50.2c-0.8,1-2.7,0.7-3,2.1c-0.2,1,2.1,3,3.2,3.4c1.4-1,2.6-2,3.7-3.5
			C103.8,50.9,102.2,50.4,100.4,50.2L100.4,50.2z M100.2,49.4c2.4,0.2,5,1.2,4.9,2.9c-0.1,0.7-1,1.6-1.8,2.3c-0.9,0.8-1.7,2-2.8,1.9
			c-1.4-0.1-3.1-2.2-3.6-3.1C95.7,51,99,50.4,100.2,49.4 M110.4,55c-0.4,0.5-1.4,0-2.1-0.1c-0.9,0.9-1.2,2.8-0.3,3.6
			C109.3,58.2,111.8,56.8,110.4,55L110.4,55z M107.6,59.4c-1.6-1-1.2-3.9,0.2-5.3c1-0.2,2.4,0.2,3.5,0.3
			C112.5,57.3,109.9,59.2,107.6,59.4 M99.4,60.4c0.3,0.2,1.1,0.5,1.7,0.3c0.1-0.5,0.3-1.1,0.2-1.5C100.5,58.4,98.9,59.1,99.4,60.4
			L99.4,60.4z M101.9,61.6c-1.1,0.6-2.4,0.1-3.3-0.6c0-1.1-0.3-1.9,0.5-2.7c1.5-0.4,2.9-0.4,3.2,1.2C102.1,60.2,102,61.1,101.9,61.6
			 M139,74.5c0.2,0,0.2,0.1,0.3,0.2c-0.1,2.3-0.7,4.9-1.4,7.6c-1.3,3.4-3.6,5.8-5.9,7.2c-1.6,0.2-2.7,1.7-4.4,1.2
			c0.9-0.7,1.7-1.6,3-1.8c2.7-2,5.1-5.5,5.7-9.8c-0.7,0.1-1.1,0.6-1.8,0.6c-1.4,5-5.3,10.8-10.8,8.8c-0.1,0.7-0.2,1-0.2,1.5
			c-0.4,0.4-0.6,1.9-1.4,1.4c-0.5-0.2,0.4-0.5,0.3-1c0.3-2.9-0.3-5.9,1.1-8.1C127.6,78.3,136.3,80.8,139,74.5"/>
	</g>
	<path class="st2" d="M136.2,79.1c-0.7,0.1-1.1,0.6-1.8,0.6c-1.4,5-5.3,10.8-10.8,8.8c-0.1,1.5-0.6,2.2,1.3,2.3
		c1.8,0,4.2-0.9,5.6-1.9C133.2,86.8,135.6,83.3,136.2,79.1"/>
	<path class="st3" d="M93.2,73.5c0.8,0.3,0.7,1.2,1.4,1.7c1,0.6,1.8,1.5,2.9,2.1c0.7,0,1.2,0.5,2,0.7c3.8,1.4,9.2,0.9,8.9,5.7
		c0,0.6-0.3,1.1-0.4,1.7c-0.4,2-0.5,3.8-0.6,5.5c-0.8-0.2-0.7-1.8-0.7-2.9c-5.2-0.6-7-4.8-7.7-9c-0.5-0.3-1.1-0.5-1.8-0.6
		c-0.1,3.4,1.2,5.7,2.5,8.1c0.6,0.3,0.8,1,1.4,1.5c0.5,0.5,1.7,0.6,1.6,1.5c-0.6,0.4-1.2-0.5-2-0.6c-3.8-3-5.8-7.2-7.3-11.8
		c0.2-0.6-0.1-0.9,0.1-1.4c-0.2-0.6-0.5-1-0.6-1.8c0-0.2,0.2-0.2,0.2-0.4C93.1,73.5,93.2,73.5,93.2,73.5"/>
	<path class="st2" d="M97.1,78.4c-0.1,3.4,1.2,5.7,2.5,8.1c0.6,0.3,0.8,1,1.4,1.5c0.9,0.8,5.8,2.7,5.5,0.1c-4.8-1.1-6.9-4.3-7.7-9.1
		C98.3,78.8,97.7,78.5,97.1,78.4"/>
	<g>
		<path class="st3" d="M65.4,97.2c-0.9-0.4-1.9-0.3-2.5,0.1c-0.3,1.1-0.4,1.8,0.1,2.5C65,100.4,66.3,98.5,65.4,97.2z M62.4,96.5
			c0.9-0.9,3-0.4,4.1,0.1c1.6,1.3,0.8,4.1-0.9,4.8c-0.9-0.3-1.5,0.1-2.2-0.1C61.5,100.8,61.6,98.3,62.4,96.5 M139.4,114.6
			c0,1.4-0.8,2.6-1.8,3c0.1-0.2,0-0.2-0.2-0.3C139,116.7,137.6,113.6,139.4,114.6"/>
		<path class="st3" d="M83.9,106.1c-0.1,0.2,0,0.3,0.2,0.4c-0.2,0.6-0.6,1.1-1.4,0.9c-0.2-0.1-0.1-0.4-0.4-0.4
			C82.3,105.8,83.2,105.6,83.9,106.1 M53.3,103.2c0.3,0.3,0.5,0.8,1,1.1c0.7-0.2,1.3-0.6,1.5-1.4c-0.1,0-0.1-0.2-0.1-0.3
			C54.9,101.9,53.2,101.4,53.3,103.2L53.3,103.2z M52.6,101.9c1.3-1.4,5.2-1.5,4.8,1.4c-0.6,1.1-1.2,2.2-2.5,2.3
			C53,105.2,52.1,104,52.6,101.9 M80.3,108.8c0.8-0.2,0.7-1.3-0.2-1.6C79.7,107.7,79.5,108.6,80.3,108.8z M80.6,109.8
			c-1.9,0-1.7-1.5-1.9-2.7C80.7,104.8,83.2,108.6,80.6,109.8 M48.9,105.3c0.2,0.4,0.3,1,1,0.9c0.2-0.4,0.6-0.6,0.7-1.3
			C50.1,104.3,49.2,104.6,48.9,105.3z M49.6,107.4c-1.4-0.6-2.1-2.3-0.8-3.5C51.9,102.4,52.7,107.4,49.6,107.4 M66.7,112.6
			c0.5,0.1,0.6-0.3,0.9-0.6C67.6,110.3,65.4,111.8,66.7,112.6z M67.2,110.4c1.7,0.2,1.8,3.3-0.2,3.3
			C65.1,113.7,64.5,110.2,67.2,110.4 M47.2,108.8c-0.3,0.5-0.2,1.3-0.1,1.7c1.2,0.2,1.7-0.4,1.7-1.4
			C48.3,108.6,47.8,108.7,47.2,108.8L47.2,108.8z M46.1,108.6c0.9-0.8,1.8-1.4,3.4-0.7c1.5,1.8-0.7,5-3,3.4
			C45.9,110.3,45.7,110,46.1,108.6 M97.7,119.7c0.4,0,0.5,0.2,0.7,0.2c-0.6,1.6-1.8,2.2-3,2.8c-0.2-0.2-0.5-0.7-0.3-1
			C96.3,121.4,97.5,121.3,97.7,119.7 M68.1,117c0.1,0.3,0.3,0.5,0.6,0.6c0-0.1,0.1-0.1,0.2-0.1c0.2-0.1,0.2-0.5,0.3-0.8
			c-0.2-0.1-0.4-0.3-0.6-0.4C68.4,116.6,68.1,116.6,68.1,117L68.1,117z M66.8,117.1c-0.1-1.4,1.4-2.1,2.8-1.4c0.9,1,0.2,3.2-1.2,3
			C67.6,118.6,67.3,117.7,66.8,117.1 M62.8,122.8c0.7,0.9,2.2,0.4,2.6-0.3C66.4,119.3,61.9,120,62.8,122.8z M61.6,123.4
			c-0.5-2.6,1.8-5.4,4.2-3.5c1.3,1.8,0.1,4.8-2.4,4.4C62.8,124.1,62.4,123.6,61.6,123.4 M58,124c0.5-0.6,0.5-1.6-0.5-1.8
			C56.7,122.8,56.7,124.2,58,124z M57.3,121.3c0.7-0.2,1.4,0.3,1.8,0.6c0.5,1.1,0.1,2.9-1.2,3.2c-2.3-0.2-2.2-1.9-1.7-3.3
			C56.6,121.7,56.8,121.4,57.3,121.3 M44.2,125.9c-0.2,0.6,0,1,0.1,1.4c0.9,0.2,1.6,0.1,1.6-0.9C45.5,126,44.7,125.7,44.2,125.9z
			 M43.6,128c-0.2-0.5-0.3-1-0.5-1.5c0-2.5,4.5-1.6,3.4,1.1C45.9,128.4,44.6,128.7,43.6,128 M40.1,128.3c0.6-0.2,1.2-0.3,1.3-1.3
			c-0.3-0.5-1-0.7-1.4-1.2C39.2,126.6,39.3,127.7,40.1,128.3z M40,125.1c2.1-0.3,2.8,1.8,2.2,3.3c-1.5,2.2-5,0-3.3-2.7
			C39.3,125.5,39.5,125.1,40,125.1 M17.1,135.7c-1.7,0.7-3.2,1.1-3.6,3.1c0.6,1.7,1.9-0.2,2.6-0.2c0.4,0.4-0.4,0.6-0.7,1.1
			c-0.9,1.5-1.1,3.5,0,4.8c-0.8,1.5-1.2,4.2,1.3,3.7c0.8-0.8,0.6-2.2,0.3-3c0.9-0.4,1,0.9,1.9,1.1c0.8,0.2,1.4-0.6,2.2-0.1
			c0,0.4,0,0.8,0.1,1.1c-2.2,2-2.1,7.9,1.5,7.2c0.3-0.4,0.4-0.7,0.6-1c1.1-2.9-1.4-4.3-1-7.1c0.4-0.3,0.3-1.2,0.8-1.4
			c0.5-0.2,0.9,0.2,1.4,0c1.1-0.6,1.1-2.2,1.5-3.1c1.1,0.5,3.1,0.5,3-1.2c-0.1-1.1-2-1.8-2.8-2.1c-0.5-0.5,0.2-1.1,0.3-1.6
			c0.3-2.4,0.5-4.4,0.1-5.8c1.5-1.8,3.2-3.2,4.4-5.3C25.3,127.7,21,131.5,17.1,135.7L17.1,135.7z M32.5,125.2
			c-0.6,3.1-2.7,4.2-4.1,6.4c0.1,1.9,0.4,4-0.3,6.1c2.6,0.8,3.8,6.1,0,6.3c-0.8,1.6-1.8,3.1-3.7,3.3c0.9,2.2,2.5,4,1.6,6.9
			c-0.6,0.8-1.3,1.4-1.9,2.1c-1.4,0.7-3.6,0.5-4.4-1c-0.3-0.6-0.1-1.3-0.7-1.6c-0.4-2-0.3-4.3,0.8-5.8c-0.6-0.5-0.8,0.4-0.9,1
			c-0.6,0.8-2,1.3-3.2,1c-1.7-0.7-2.4-2.7-1.4-4.6c-0.7-1.2-1-2.8-0.3-4.5c-3.5-1.6,0-5.4,2.5-5.7c0.8-0.8,1.5-1.8,2.2-2.6
			c3.9-2.8,7-6.5,12.6-7.2C31.6,124.6,32.1,125,32.5,125.2 M19.2,138.5c0.1-0.2,0.3-0.2,0.6-0.2c0.4-0.7,0.6-2.3,0.3-2.8
			c-1.1,0.2-1.4,1.2-1.7,2.4C18.7,138.1,19.3,138.3,19.2,138.5L19.2,138.5z M20.7,134.8c0.7,1.4,0.4,2.9-0.3,4.2
			C16.7,140.6,17.7,133.9,20.7,134.8"/>
		<path class="st3" d="M17.5,141.7c0.1,0,0.3,0,0.3,0.2c0.5-0.1,0.9-0.6,0.6-1.1l-0.9-0.1C17.5,141.1,17.3,141.4,17.5,141.7
			L17.5,141.7z M17.5,142.7c-0.2-0.4-0.5-0.8-0.8-1.2c0-1.8,2-2.3,2.6-0.8C19.3,142.1,18.3,142.3,17.5,142.7 M27.9,162.8
			c-0.3,0.4-0.7,1.6-0.3,2.2c0.9,0.2,1-0.6,1.5-1c0.2,0,0.3,0,0.5-0.1c0.3,1.3,1.3,2.9,3.3,2.3c1.2-0.9,1-3.3,0.1-4.1
			c-2.6-1-3-3.9-5.1-5.4C27.8,159.2,27.5,160.7,27.9,162.8L27.9,162.8z M29.1,165.5c-0.8,0.4-2.2,0.6-2.7-0.3
			c0.3-2.9,0.2-6.5,0.6-9.8c-0.3-0.1,0.2-0.2,0.1-0.3c0.2,0,0.3,0,0.4,0c1.7,1.6,3,3.7,4.6,5.4c0.3,0,0.4,0.2,0.9,0.2
			c1.8,1.4,2,4.9,0.1,6.3C31.7,167.8,29.5,167,29.1,165.5 M47.9,137.7c0.9-1.8,0.5-3.9-1.8-4.2c-1.2,0.2-2,1-2.6,1.9
			C43.8,137.3,46.2,139,47.9,137.7L47.9,137.7z M54,137.1c0.3-1,0.1-1.7-0.2-2.2c-1.1-0.8-2,0.2-3,0.4c-0.4,0.5-0.6,1.1-0.9,1.8
			C50.8,138.5,53.3,138.6,54,137.1z M42.9,132.7c1.2,0.5,2.4,0.2,2.6-1.2C44.4,129.3,42,130.8,42.9,132.7z M55.6,133
			c-0.5,0.9-0.9,1.7-0.4,2.6c1.4,1.2,3.4,1.1,3.9-1.1C58.7,132.8,57.1,132.4,55.6,133L55.6,133z M49.3,133.8
			c3.6,0.9,4.8-4.6,0.2-3.4c-0.2,0.4-0.3,1-1,0.7C48.1,132.1,48.5,133.1,49.3,133.8z M59.6,132.7c0,1,1.6,1.9,2.7,1.6
			c0.8-0.2,1.3-1,1.7-2.2C63,129.9,59.7,130.5,59.6,132.7L59.6,132.7z M57.5,128.2c-2.2-1.5-4.4,0.9-2.9,3c0.9,0.6,1.9,0.7,3,0.5
			C58.7,130.6,58.4,128.8,57.5,128.2L57.5,128.2z M59.3,127.6c-0.6,2.3,2.1,2.6,3.5,1.4c0.2-0.7,0.2-1.3,0.2-2
			C62,125.6,59.7,126,59.3,127.6L59.3,127.6z M64.4,127.2c-0.6,1.2-0.6,3.3,0.4,3.8c1.8,1,4.2-2.6,3.6-4.7
			C67,124.9,65.1,125.7,64.4,127.2z M70.4,125.1c1.5-0.7,2.9-3.2,2.3-4.9C69.2,119,67.8,123.9,70.4,125.1z M77.4,114.4
			c-0.6-0.3-1.4-0.4-1.7-0.9c-1.9,0.2-3.3,2.9-2.5,4.9c2.7,1,4.5-1.4,4.9-3.4C77.3,115.1,77.8,114.5,77.4,114.4L77.4,114.4z
			 M112.4,117.8c-0.8,0.7-1.8,2.1-0.9,3.1c1.3,0.8,2.8,0.9,3.9,0.2c0.2-2.3,0-5.1-1-7C113.6,115.3,112.5,116.3,112.4,117.8z
			 M107.9,119.4c0.4-0.3,0.8-0.6,1.1-1c0-3.6-0.4-6-0.6-9.4c-0.3,0-0.3-0.2-0.5-0.3c-1.7,2.5-2.6,5.7-3.4,9.4
			C105.3,119.1,106.4,119.3,107.9,119.4L107.9,119.4z M90.4,104.9c-0.1,0-0.1-0.1-0.2-0.2c-0.1,0.2-0.2,0.1-0.3,0.3
			c-1,3.8-0.8,7.9-0.4,10.5c1.6,1.4,4.8,1.7,5.6-0.2C93.6,111.7,92.4,108.1,90.4,104.9L90.4,104.9z M128.9,117.4
			c0.6,1,2.3,1.1,3.4,0.9c4-2.7,2.8-8.5,0.6-11.9C131.2,109.9,128.6,113.3,128.9,117.4L128.9,117.4z M81.8,111c1-0.2,2.4,1,3.3,0.4
			c0.8-0.6,0.1-1.8,1-2.2c0.6,0.3,1.5,1.1,2.1,0.5c0.3-1.9,0.2-4.7,1.7-5.9c0.4,0.2,0.9,0.3,1.5,0.4c1,1.6,1.7,3.4,2.6,5.1
			c2.9,0.5,5.9,0.7,8.1-0.4c1.4,0.8,2.6,1,4,1c0.4-1.2,1-2.2,2.1-2.4c0.2,0.4,0.4,0.4,0.9,0.4c0.5,0.8,0.2,1.9,0.5,3.1
			c2,0.7,3.6,0.4,5,0c1,0.9,2.6,1.7,3.7,2.2c0.8-0.3,1.5-0.6,2.1-1.1c0.1-1.1-0.1-2-0.2-2.9c-3.4-3.7-10.1-6.1-15-7.2
			c-0.2,0.7-0.4,1.6-0.9,1.9c-0.5-0.1-1-0.7-1.4-0.6c-0.9,1.8-0.4,4-1.7,5.1c-1.2,1-3.6-1.7-4.2-2.7c-1-1.5-1.7-3.2-2.2-4.4
			c-3.4-0.8-6.9-0.1-9.7-0.1c-2.7,0-5.3,0-7.4,1c-0.3,0.4-0.4,0.7-0.6,1.1c-2.6-0.6-5.2,0.3-6.8,2.4c-2.7-1.3-4.7,0.4-5.8,2.3
			c0.1,0.3,0.2,0.5,0.2,0.9c-0.2,0.2-0.4,0.5-0.8,0.6c-0.4-0.5-1.4-0.4-2-0.7c-0.3,0.2-0.5,0.5-0.9,0.5c-0.6,1-1.1,1.4-1.4,2.5
			c0.1,0.5-0.1,0.8-0.4,1c-0.2-0.1-0.3-0.3-0.7-0.4c-0.5,0.2-0.8,0.7-1.1,1.1c-0.2,0.5,0.5,0.7,0.1,1c-0.7,0.1-1.4,0-2.3,0.1
			c-0.5,0.7-1.4,0.9-1.8,1.7c-0.6,1-0.2,2.9-0.3,3.8c-0.5,0.2-0.6,0-1.2-0.2c-1.2,0.4-2.3,1.4-2.2,3.1c-0.2,0-0.3,0.2-0.5,0.2
			c-0.5-0.4-0.9-0.2-1.5-0.2c-0.6,0.6-0.3,1.7-1.4,1.5c-0.2-2,1-3.4,2.1-4.2c0.2-2.1,1.7-2.7,3-3.4c0.2-3.3,2.6-4.6,4.9-5.2
			c0.1-2.4,2.1-3.1,3.4-4.1c0.2-1.4,1-1.9,1.5-2.7c0.8-0.1,1.3-0.6,2.2-0.6c1.4-2.7,4.7-3.6,7.7-2.7c0.6-0.5,1.3-0.7,1.8-1.2
			c3.8-1.5,8.7-2.1,12.9-2.3c0.6,0,0.8,0.3,1.6,0.3c0.4-0.3,1-0.3,1.4-0.6c-3.5-1.7-7.9-2.4-11.5-2.9c-1.3-0.6-2.3-1.4-4-1.8
			c-0.9,0.3-1.5,0.9-2.7,0.8c-0.2-0.9-1-1.8-2.3-1.7c-0.2,0.4-0.5,0.9-0.8,1.3c-4.2,0.2-7.9,1.8-11.3,3.5c-1.2-0.4-2.1-0.8-3.1-0.5
			c-0.7,0.3-0.7,1.7-1.5,1.9c-0.8,0.1-1.4,0.3-1.8,0.9c-0.4,1.1,0.6,2.4-0.4,2.8c-0.6-0.7-1.6-0.3-2.3-0.1c-0.2,0.8,0.1,1.3,0.2,2
			c-0.6,0.4-1.3-0.2-2.1-0.1c-0.6,0.5-1.3,1-1.6,1.9c0.2,0.6,0.6,1,1.3,1.4c-0.2,0.3-0.2,0.5,0.2,0.7c-1,0.9-2.1,2.3-3,3.6
			c-0.2,0.6,0,1-0.6,1.2c-1.4-0.4-2.8,0.4-3.4,1.7c0.3,0.7,0.7,1.3,0.9,2c-1.4,0.4-3.1,0.8-3.7,2.4c-0.6,1.6,0.2,2.7,1.1,3.9
			c0.5,0.2,1,0.3,1.1,0.7c-1.3,1.1-2.6,3-1.4,4.6c0.9,0.4,1.5,1.2,2.8,1.1c0,2.3,1.1,5,4,4.5c-1.9-0.9-1.3-3.4,0.1-4.5
			c1.9,0.1,3.8,0.9,3.1,3c0.5,0.1,1,0.2,1.3,0.4c-0.4-3.3,2.7-3.7,5.7-3c0.2-3.2,3.3-3.5,5.2-1.9c0.1-2.6,3.8-3.5,5.4-1.5
			c0.9-1.5,3.4-2.5,5.1-1.2c-1.8-2.3,0.1-6.6,3.4-6c-1.9-3.4,2.6-8.7,6.2-5.6c0.3-0.5,0.2-1,0.8-0.9C79.5,113.5,82.3,113,81.8,111
			L81.8,111z M104.1,97.9c-2.2-2-6.1-4.5-9.7-3.4c-0.1,0.6-0.2,1-0.6,1.4c0.8,2.5,1.7,5,2.7,7.4c1.2,1.5,1.9,3.4,4,4.1
			c1.1-1.6,0.7-4.2,1.8-5.4c0.6-0.2,1.2,0.3,1.7,0.6C104.6,100.9,104.5,99.2,104.1,97.9L104.1,97.9z M128.7,99.6
			c-0.5-0.1-0.5-0.5-0.9-0.6c-1.5,0.6-1.2,2.1-1.4,3.7c-0.3,2.6-1.3,5.3,0,6.8c1.5-1.6,2.5-4,3.8-5.8c0.7-0.3,1.5,0.3,2.4,0.3
			c1.5-0.9,1.8-3.7,3-5.2c-0.2-0.5,0.2-0.8,0.1-1.4C132.9,95.5,130.2,97.8,128.7,99.6L128.7,99.6z M87.1,88.7c0.4,0.6,0.8,1.9,2,2.4
			c0.6-1,1.4-1.8,2-2.8c0.2-1.5-0.4-2.6-1-3.8C89,85.8,88.3,87.4,87.1,88.7L87.1,88.7z M139.1,92.6c-0.5-0.1-0.9-0.2-1.4-0.2
			c-4.4,2-8.2,5-13.3,5.9c-2.7-0.4-6.8-0.1-9.1-1.8c-0.3-0.4-0.5-0.9-0.8-1.3c-1.1,1.4-2.8,1.8-4.8,1.8c-4.7-1.1-7.4-3.6-11.3-5.2
			c0,0.6-0.6,0.4-0.9,0.6c-2.7-0.7-7.2-0.6-7.7,2.6c0.5,1.4,2.2,2,3.6,2.8c-0.5-1.4-1-3.1,0.5-4.1c3-1.7,9.9,1.4,11.1,3.9
			c0.3,0.7,0.3,1.4,0.4,2.2c2.5-0.4,6.3-1.2,8.3,0.7c0.6,0,0.7-0.1,1.2,0.2c3-0.2,6.1-1,9.4,0.5c0.2,0.1,0.9,1.1,1.3,0.8
			c-0.2-1.3,0.2-1.7,0.5-2.9c0.9-0.5,1.5-1.3,2.9-1.1c1.4-2.1,6.1-3.7,7.9-0.8c0,0.4,0,0.8-0.2,1.3
			C138.4,98.1,141.6,94.7,139.1,92.6L139.1,92.6z M147.6,91.1c-1.1,1-1.4,3.3-1.7,5.3c-0.5,3.2-0.2,6.6-1.4,9.4c0-1.9,0.1-4.9,0.2-7
			c0.2-2.7,1.1-5.7-0.1-7.4c-0.7,0.3-0.9,1.3-1,1.9c-0.6,2.4,0,5.2-0.7,8.1c0.3,1.2-0.4,2-0.7,2.9c-1.1,3.2-1.4,6.2-2.6,8.5
			c-1.1-0.4-2.4-2-3.6-1.1c0.1,3.1-1.2,6.4-3.3,7.6c-1,0-1.6,0.4-2.5,0.3c-2.6-0.4-2.8-2.6-2.2-5.1c-2,1.1-3.1,2.4-3.6,4.4
			c-0.1,0.4,0.1,1.4-0.6,1.4c-0.5-0.2-0.2-0.9-0.3-1.4c-1.9-1.1-3.2,0.7-4.5,1.4c0,0.4,0.5,1-0.1,1.2c-1.1-0.5-0.7-2.4-2.4-2.1
			c0,1-0.1,1.9-0.6,2.6c-2.6,2.2-8.2-0.8-4.9-4.2c-0.3-0.2-0.7-0.8-1.1-0.6c0.2,5.4-8.5,3.5-6.2-1.3c-1.3-0.2-2.4,0.1-3,1
			c0.1,0.5,0.3,1.1-0.2,1.3c-0.6-0.7-0.6-1.8-1.1-2.7c-1-1.1-2.1-3-4-2.9c-0.1,0.8,0.5,2,0.8,2.8c-0.3,0.4-0.3,0.9-0.6,1.1
			c-1.7,1.7-4.4,1.9-6.6,0.2c-1-0.8-1-2-1-3.3c-2-0.1-2.5,2.2-3.2,4c-0.7,0.5-0.4,1.5-1.2,1.8c-0.2-0.6,0.1-1.1,0.3-1.7
			c-0.6-0.2-0.8-0.7-1.3-1c-0.3,0.6-0.2,1.5-0.5,2.5c2.5,1.7,5.9,2.8,8.3,4.6c2.2,2,4.3,4.1,5.6,6.7c0.6,0.3,1,1.3,1.8,1.4
			c0.5,0.1,1.3-0.4,2.1-0.6c2.6-0.6,6.7-0.7,9.8-0.6c0.2,0,0.4,0,0.4,0c4,0.8,7.1,0.7,10.7,1.9c1.6-0.2,2.6-1.1,3.8-2.3
			c1-0.9,2.1-1.8,2.9-2.4c2.1-1.8,4.2-3.3,6-4.7c4.1-3.2,8.2-6.2,12.2-9.1c1.7-0.7,3.1-2.1,4.9-2.7c0.2-0.2,0.3-0.4,0.5-0.7
			c0.4,0.2,0.5-0.1,0.7-0.2c-0.2-1-0.8-1.7-1.3-2.5c-1.8-3.5-1.9-7.8-1.8-12.5c-0.4-1.1-0.2-2.6-0.4-3.7
			C148.2,91.4,147.9,91.2,147.6,91.1L147.6,91.1z M83.8,82.4c-1.3,0.3-1.6-0.6-2.6-0.7c0.3,1.1,1.3,1.8,1.8,2.9
			c-0.8,1.3-2.9,1.3-4.7,0.7c-0.2,2.2,1.8,2.8,3.6,3.6c1.6-0.5,3-1.3,4-2.6c1-2.3,3.1-4.8,2.8-7.8C87.6,79.8,85.6,81.9,83.8,82.4
			L83.8,82.4z M141.3,90.3c1,0,1.7-0.5,2.4-1c1.1-0.1,3-0.9,5-1c0.7-0.1,1.4,0.1,2,0c1.4-0.2,3.7-1.5,3-3.2c-3.2-0.5-5.9-1-8.2-2
			c-0.2-0.6,0.1-1.6,0.1-2.3c-0.5-0.4-0.7-1-1.3-1.3C143.9,82.9,141.5,86.6,141.3,90.3L141.3,90.3z M39.7,57.9c-0.1,0.2-0.1,1,0.5,1
			c0.1-0.3,0.1-0.6,0.2-0.9C39.9,58.1,39.9,57.7,39.7,57.9z M74.5,70.2c-0.1,0.8-0.8,0.6-0.9,1.5c0.3,0.6,0.3,1.3,0.9,1.7
			c0.8,0.1,2.3,0.1,3,0.1c0.9-1,2.7-2.2,4-3.4c0.4-0.4,1.4-1.3,1.6-1.8c0.3-1.1-0.4-2.6-0.5-3.9C80.8,67.8,77.3,68.6,74.5,70.2z
			 M36.5,56.5c0.5,0.2,1,0,0.8-0.7c-0.5-0.1-0.6-0.1-0.8-0.3C36.4,55.9,36.3,56.3,36.5,56.5z M67.8,66.5c1-0.1,3.8-0.7,4-0.4
			c0.5-0.6,1.6-0.2,2.3-0.6c1.5-1.8,3.8-3.1,4.7-5.3c-1.4,1.1-3,2.1-4.6,3c-1.7,0.4-3.3,0.9-4.8,1.5c-0.4-0.2-0.4-0.1-0.6-0.2
			c-2.6,0.6-5.6,0-8.6-0.7c-2.2-0.5-4.6-1.6-5.9-0.9C56.2,67.9,63.2,67.1,67.8,66.5L67.8,66.5z M83.1,79.2c1.9-1,3.3-2.7,4.6-4.5
			c0.2-1.3,0.4-2.8,0.4-4.2c0.9-1.4,2-3,2.6-4.4c-0.2-2-0.5-4.5-1.7-5.5c-0.1,0-0.2,0-0.2-0.1c-0.6,2.3-0.8,3.4-1.3,5.4
			c-0.5,1-1.4,1.4-1.8,2.7c-1.8,1.6-3.2,3.5-4.7,5.8c-0.6,0.2-0.9,0.7-1.5,0.9c-0.9,0.4-1.9,0.5-2.6,1.2
			C78.6,77.8,80.3,79.9,83.1,79.2L83.1,79.2z M84.8,57.8c-4.7,0.5-6.3,5.6-9.4,8.5c-1.7,0.3-4,1.6-6.5,1.8c-1.5,0.1-4.9,0-5.1,1.1
			c-0.3,1.5,2.9,1.7,4,2.2c1.8-0.1,3.1-0.7,4.6-1.4c3-1.4,5.9-2.9,8.4-4.6c1.2-2.6,3.9-4.2,4.2-7.3C85,58.1,84.9,58,84.8,57.8
			L84.8,57.8z M151.8,79c0.4-0.2,0.6-0.7,0.8-1.2c-5.8-1-7.9-6.1-10.1-10.1C143.3,72.8,144.9,79.4,151.8,79L151.8,79z M151.4,69.7
			c-0.5,0.7-1.2,1.2-1.6,2c-0.9,0.3-2.2,0.4-2.9,0.6c1.2,2,4.8,3.4,7.3,2.5c1.8-2,3.6-5.8,3.6-8.4c0-0.1,0-0.1-0.1-0.1
			C155.9,67.7,154.2,71.4,151.4,69.7L151.4,69.7z M62,46.2c0.6,0.5,1.3,1,2.2,1.3c0.5-0.2,1.1-0.3,1.4-0.8c-1.2-0.7-1.9-1.6-3.2-2.2
			C61.9,45.1,62.3,45.7,62,46.2L62,46.2z M77.7,45.9c0.6,1.1,1,2,1.5,3.1c2.1,1.4,3.6,3.2,5,5.1c0.4,0.4,0.2,1.1,0.8,1.4
			c0.5-2.2-0.6-4-1.3-5.7c-1.9-1.5-2.7-3.6-5.5-4.6C78.2,45.4,77.9,45.5,77.7,45.9L77.7,45.9z M56.1,46.1c0.1,0.3-0.1,0.4-0.1,0.9
			c1.5,4.1,4.8,8.6,10.1,9.6c3.6,0.2,6.6-0.6,8.7-2.6c-0.4-0.2-0.7-0.6-1.3-0.8c-1.9,1.1-4.9,1.2-7.5,0.6c-5-1.2-8.1-6.2-6.6-11.1
			c-0.8-0.9-2.1-1.6-3.3-2.2C55.7,42.3,55.7,44.4,56.1,46.1L56.1,46.1z M40.7,34.5c0,3.2,0.8,7.3,2.1,10c1.9,3.9,4.8,8,7.9,10.9
			c3,2.7,7.5,4.9,12.3,5.5c1.9,0.2,3.8-0.2,5.6,0c3.8-1.2,7.3-1.9,9.7-5.2c-0.4-0.1-2.1-0.7-2.4-1c-3.7,3.7-10.9,4.3-16.1,0.9
			c-1.4-1.7-3-3.4-4.2-5.3c-1.4-3.2-2-7-1.6-11.2c-4.2-2.2-8-3.6-13.2-4.8C40.7,34.3,40.7,34.4,40.7,34.5L40.7,34.5z M143.4,52.8
			c-1.6,1.7-1.9,3.9-1.8,6c0,0.8,0.5,1.6,0.4,2.3c0,2,0.7,4.2,1.3,5.8c1.2,1.1,2.7,2.1,4.5,2.9c0.6-0.2,1.4-0.2,1.8-0.6
			c-3.8-2-6-5.2-6.6-9.4c0.5-1.7,0.5-4.7,0.8-7c-0.2,0-0.1-0.2-0.3-0.2C143.5,52.7,143.4,52.6,143.4,52.8L143.4,52.8z M209.1,58.8
			c0.1,0.2,0.4,0.2,0.6,0.2c0.4-0.3,0.2-0.8-0.1-1C209.5,58.4,209,58.2,209.1,58.8z M213.3,56.7c-0.2,0.1-0.4,0.2-0.6,0.3
			c0.2,0.2,0.1,0.7,0.5,0.7c1,0,0.8-1.4,0-1.7C213,56.5,213.2,56.5,213.3,56.7L213.3,56.7z M154.9,43.3c-1.2,2.1-3.6,3.8-4.3,6.3
			c-0.5,1.7-0.2,3-0.4,4.7c-1.8-2-1.6-5.7-0.4-8.4c-0.5-0.1-1-0.1-1.4-0.1c-3.8,2.6-3.9,9.6-3.5,14.4c1.9,2.6,4.9,8,9.4,6.7
			c0.5-0.7,1.1-1.2,1.5-2c-0.9,0.2-1.3,1-2.1,1.1c-1.7-0.2-3.2-0.6-3.9-1.8c1.3,0.4,2.4,1.2,3.8,1c0.9-0.7,1.9-1.1,2.6-2.1
			c-2.2-0.7-4.5-1.6-5.2-3.5c0.2-2.7,0.2-6.4,1.6-9c0.2-0.4,0.9-0.9,1.3-1.5c1.6-2.1,3.4-3.8,4.6-6.1
			C157,42.1,156.1,43.2,154.9,43.3L154.9,43.3z M179.9,48.2c1.2,1,3.6,0.2,3-2.1C181.8,46.8,180.6,47.2,179.9,48.2z M66,36.3
			c0.1,0,0.1-0.1,0-0.2c-2.6-1.7-5-2.9-7.1-4.8c2.3,0.1,3.5,2.3,5.8,2.9c0.1,0.5,1,0.5,0.9,1c1.9,0.5,2.9,2.3,4.3,3.4
			c-0.7-1.7-2.1-3-3.2-4.4c-2.4-1.6-4.2-3.3-6.4-4.8c-0.7-0.2-1.3-0.4-1.5-1c2,0.2,4.5,1.9,5.8,3.4c1.6,0.6,2.4,2.1,3.8,2.5
			c-1.8-3.2-5-5.5-8-7.9c-0.7-0.2-1.5-0.5-1.7-1.1c0.7-0.6,1,0.5,2.2,0.6c1.9,1.6,4.1,3,6.2,4.8c-0.8-3.6-3.9-6.2-7.2-8.1
			c-0.7,0-1.5-0.3-1.3-0.9c1.2-0.3,2.3,1.1,3.5,1.2c1,0.9,2.6,1.3,3.8,2.3c1.8,2.7,3.6,5.6,5,8.7c1,3.6,2.5,6.7,3.8,9.8
			c0.6,0.4,1,0.9,0.9,1.8c0.9,0.3,1,1.5,1.7,1.6l-9.1-21.1c-1.1-1.1-1.8-2.5-3.2-3.4c-2.5-1.6-7-2.4-10.3-2.9c-1-0.2-2-0.6-3.1-0.7
			c-4.8-0.6-8,0.6-10.9,2.4c-2.1,2-4.2,4-6.2,6.1c3-0.8,6.2-0.4,9.7,0.1c2.6,0.4,4.3,1.4,6.6,2.1c1.9,1.6,7.7,2.5,9,5
			C53.2,31.8,46,28,37.5,28.2c-2.7,0.4-6.1,0.9-8,2.9c-0.5,1,0.1,2.5,0.1,4c0,1.8-0.5,3.4,0.9,4c2.4-0.1,5.7-1.4,7.8,0.1
			c0.3,0.7,0.6,1.5,1,2.1c1.8,6.4,5.2,12.2,9.8,16.7c5,3.2,12.3,5.9,18.7,5.6c0.4,0.1,0.8,0.1,1,0.3c3.9-1.2,7.4-2.9,10.5-5.3
			c0.4-0.9,0.1-1.5,0.2-2.4c-1.2,0.5-1.9,1.7-2.9,2.4c-1,0.7-2.2,1.3-3.5,1.6c-0.2,0.1-0.4,0.4-0.6,0.4c-1.8,0.6-3.6,1.1-5.7,1.2
			c-2.6-0.1-4.7-0.1-7.6-0.9c-10.6-2.8-16.4-12.1-19-21.1c0-1.2-0.3-2.2-0.3-3.3c-1.5-0.9-2.7-2.4-4.5-2.4c-1.5,0-2.3,1.4-3.7,1.1
			c1.5-2.1,4-2.5,6.5-2.7c0.9,0.4,2.2,0.2,3.3,0.5C45,34,48,35.7,51.7,36.8c4,2.2,8.6,4.5,12.3,6.9c2.7,2.1,5.3,4.1,7.9,6.2
			c2.5,2,5,4.4,8.8,5.6c0.6-0.9,1-2,1.1-2.9c-0.6-0.8-1.3-1.3-2.6-1.8c-2.5-1.8-4.2-4.6-6.6-6.7c-2.4-2.1-5.3-3.8-7.7-6
			c0.7-1,2,0.3,2.4,0.9c1,0.4,1.2,1,2.4,1.4c0.2,0.2,0.6,0.9,1,0.8C69.5,39.4,67.8,37.5,66,36.3L66,36.3z M168,41.3
			c-1.2,2.4-2.8,4.6-4.1,6.8c-0.5,0.7-1.2,1.6-1.4,2.3c-0.4,1-0.4,2.6-0.2,3.6c0.4,3.3,2.8,6.2,4.8,8.5c0.6,0.1,0.8,0.4,1.3,0.5
			c-1-1.6-1.4-3.5-1.8-5.4c-0.5-1.5-1.5-2.5-1.8-4.1c0.8-0.2,1,0.4,1.2,0.9c3.5,1.5,3,5.8,4.8,8.4c2.2,2.2,7.3,2.3,10.6,3.2
			c1.5-0.6,3.2-1.1,4.7-1.9c-3.2,0.1-6.3-0.5-9.4-2.2c-2.3-1.2-3.5-2.6-4.9-4.1c-1.2-1.3-2.2-2.5-2.9-3.9c-2.4-0.7-3-3.3-2.8-5.7
			c2-1.4,2.8-4.1,2.4-6.8C168.3,41.4,168.1,41.3,168,41.3L168,41.3z M165.5,40.5c-1.2,0.8-2.3,2.1-3.5,3.2c-0.1,0.1-0.5,0.1-0.6,0.2
			c-0.2,0.2-0.4,0.6-0.6,0.8c-0.9,0.9-1.8,1.8-2.6,2.7c-1.5,1.6-2.1,4.1-3,6.9c0.5,1,0.7,2.4,1.2,3.7c0.3,0.8,1.2,2.8,1.7,3.3
			c1,1,2.9,1,4.2,0.4c-1.9-2.4-2.6-5.6-3.6-8.6l0.8-4.7c1-1,1.9-2.3,3-3.1c1.2-2.4,3.9-3.2,4.8-5.6c0-0.1-0.1-0.2-0.2-0.2
			C166.9,40.2,166,40.2,165.5,40.5L165.5,40.5z M183,53.8c1.5-0.3,3.2-0.2,4.7-0.9c4.1-1.8,7.7-8.9,5.6-13.3c0-0.1,0-0.1-0.1-0.1
			c-0.8,0.5-1.8,0.8-2.4,1.6c0.6,6.4-4.6,11.9-11.9,9.8c-0.6-0.6-1.4-0.6-2-1.3c-0.2,0.5-0.7,0.5-0.9,0.8
			C177.8,51.9,179.5,53.5,183,53.8L183,53.8z M178.6,56.8c14.4,5.9,26.7-4.2,30.8-17.9c0.2-0.8,0.5-2,0.6-3c0.3-2,0.6-3.6,0-5
			c-0.4-0.2-0.7-0.5-1.1-0.6c-1.2,0.3-3.3,1.7-3.4,1.7c-3.6,1.9-7.3,3.8-10.4,6.4c0.5,0.2,0.2,1.1,0.7,1.6c1,2.9-0.2,6.3-1.2,8.6
			c-1.5,2.4-3.3,4.5-5.6,5.6c-1.2,0.2-2.3,0.5-3.4,0.8c-2.1,0-4.5,0.2-6.7-0.9c-1.3-0.6-3-2.2-3.5-3.2c-1.1,0.3-2,1-3,1.4
			C173.7,53.9,175.6,56.3,178.6,56.8L178.6,56.8z M138.8,43.2c-2.1-1-3.4-2.6-3.9-4.6c-1-4.3,1.2-9.2,3.8-13
			c1.3-1.9,6.4-7.4,6.9-9.6c0.4-1.9-0.7-3.4-1.5-4.9c-1.2-1.5-4.2-2.4-5.6-2.4c-1.3,0.2-3.3,0.6-5.2,0.4c-2.2-1.6-7.6-2.4-6.6,1.5
			c3.4,4.2,6.9-1.1,10.9-0.9c1.6,0.1,3.1,0.3,4.7,1.3c1.3,1.5,1.9,2.8,1.2,5.2c-0.6,1.9-3.8,4.9-4.9,6.1c-1.6,1.7-2.4,3.2-3.8,5.2
			c-2.3,3.1-3.2,6.6-5.2,10.3c-2.5,2.3-6.5,2.4-8.9,4.9c-0.1,0.5-0.4,0.8-0.7,1.1c-1,5.6-2.7,12.9-4.1,17.6c-0.3,2.4-0.4,4.8-0.1,7
			c0.1,0.6,0.8,1.5,0,1.9c-0.8-1-1-2.6-1.1-4.1c-0.1-1.4-0.4-3-0.3-4.6c0.2-6.5,1.9-14.1-1.7-18c-1.3-1-3-1-4.4-1.4
			c-0.9-0.2-2.8-1.2-3.2-1.6c-2.2-2.2,0.2-6.2,1.1-9.2c0.7-3.7,2.1-7,2.1-10.6c0-3.5-0.5-6.7-1.3-9.8c1-3,0.7-7.1-1.9-8.9
			c-1.1-0.2-1.7-0.5-2.5-0.4c-1,1-0.8,2.7-0.6,3.9c0.3,1.8,3.7,5.6,4,6.2c2.2,8.7-1.4,20.2-6.5,27.1c-1.5,0.5-2.5,1.2-3.9,2
			c-1.8,1-2.9,1.7-4.6,2.9c-0.6,0.5-1.8,1.2-2,1.7c-0.4,1-0.2,2.6-0.3,3.7c-0.1,1.2,0.1,2.4-0.2,3.7c1.9,4.1,5.4,7.6,5.2,12.8
			c-0.9,1.5-1.4,3.2-2.3,4.6c-0.3,0.5-0.7,0.7-0.9,1.3c-0.6,1.8-0.2,3.4,0.1,4.8c0.4,2.3,1,4,1.6,5.9c0.9,2.5,1.8,5.4,3,7.4
			c0.8,0.7,2.3,1.2,3.3,1.3c2.2,1.1,4.9,2.3,7.3,3.6c2.5,1.4,4.9,2.4,7.2,1.1c0.8-0.4,1-1.3,2.1-1.5c0.4,0.7,0.6,1.5,1.3,1.9
			c2.8,1.4,5.8,1.2,9.5,1.3c3.3-1.4,6.9-3.2,10.1-5.2c0-0.6,0.8-1,1.1-1.7c0.4-0.6,0.9-1.2,1.4-1.8c1.5-4.4,4.2-7.8,4-12.3
			c-1.2-5.7-1.9-11.2-2.4-17.2c-0.1-1.4-0.6-3.2-0.4-4.4c0.2-1.2,1.2-2.3,1.9-3.5c1.2-2.1,2.4-3.8,2.3-6.2
			C142.5,43.8,140.4,43.7,138.8,43.2L138.8,43.2z M199.3,20.5c-2.2,0.5-3.9,1-5.8,1.6c-0.7,0.2-1.4,0.4-2.2,0.7
			c-1.9,0.6-4,1.6-5.6,2.1c-0.4,0.1-1,0.3-1.4,0.4c-0.8,0.2-1.2,0.3-1.8,0.4c-0.7,0.2-1.4,0.1-2.1,0.4c-2,1.4-3,3.8-4.4,5.9
			c-0.7,1.1-1.8,2.2-2.5,3.5c-0.2,0.4-0.2,0.9-0.3,1.3c-0.7,1.5-1.7,3.2-1.6,5.6c0.5,0.7,0.6,1.6,1.6,2c1.8-0.6,3.1-1.8,4.7-2.6
			c1-0.9,1.9-2,3.3-2.3c-0.4,1.1-1.1,1.6-2,1.9c-3,2.9-6.9,4.6-10.5,6.7c-0.9,0.9-0.5,1.5,0,2.4c1,2.2,2.2,1.1,4.2,0.7
			c0.2-0.4,0.5-0.5,0.8-0.6c0.8-0.2,1.4-0.7,2.2-0.9c7.3-5.2,22.9-15,23.3-15c1.5-1,2.7-1.9,4.3-2.7c4.1-2.1,9.1-5.1,15.1-3.4
			c0.3,0.2,0.5,0.6,1,0.7c-0.1,0.8,1,1,0.4,1.8c-1.2-0.1-1.1-1.1-1.8-1.6c-0.6,0.1-1.3,0-2.1-0.2c-1.5,0.6-3.3,1-4.4,2.2
			c-0.7,2.2-0.7,4.9-1.2,7c-0.3,1.3-0.9,2.5-1.4,3.6c-1.9,5.2-4.8,8.7-8.1,11.9c-0.5,0.5-1.1,0.7-1.7,1.1c-0.3,0.2-0.6,0.9-0.9,1
			c-0.9,0.4-1.6,1-2.4,1.4c-1.2,0.7-3.2,1.4-4.4,1.7c-6.2,1.5-16.2-0.2-20-5.8c-0.8-0.2-1.1-0.1-1.6,0.4c0.3,2.3,2.6,3.3,3.7,5.1
			c0.3,0.1,0.7,0.3,0.8,0.6c2.7,1.1,5.9,2.9,9.1,2.3c0,0.2,0.5,0.2,0.7,0.2c0.8-0.2,1.2-0.2,2,0c6.3-0.7,11.1-3.8,15.8-6.8
			c2.1-0.5,3.3-2.3,5.1-3.3c2.3-4.2,2.6-9.7,4.2-13.9c1.8-3,4.8-4.9,8.5-3.9c0.6-0.6,1.1-1.8,1.7-2.9c0.7-1.4,2-2.9,1.6-4
			c-1.7-2.4-5.8-4.2-9.3-3.7c-3,0.6-5.8,1.7-8.5,2.7c-2.4,1.3-4.7,2.8-6.9,4.4c-2.3,1.3-4.5,3.5-6.9,4.2c0.5-0.5,0.8-1,1.4-1.8
			c3.1-1.9,6.1-4.3,9.2-6.2c0.6-0.4,1.2-0.6,1.7-0.9c0.6-0.3,1.2-0.6,1.5-1c-1,0.2-1.6,0.6-2.7,0.6c-3,1.8-6.5,3.4-9.4,5
			c-1,0.6-1.9,1.9-3.1,1.3c4-3,8.6-5,13.1-7.4c-2.4,0.2-4.2,1-6.4,1.5c-0.2,0.4-0.7,0.4-1,0.7c-1.4,0.4-2.8,1-4.1,1.6
			c-1.3,0.6-2.4,1.8-3.9,1.7c0.9-1.1,2.4-1.4,3.4-2.2c0.4,0,0.6-0.2,1-0.2c1.3-1,2.9-1,4.2-2.1c0.6,0.1,1-0.4,1.5-0.5
			c0.4-0.2,1.4-0.2,1.4-0.6c-1,0.2-2.5,0.7-3.3,0.4c-2.3,0.8-4.6,1.8-7,2.5c-0.6,0.3-1.8,1.1-2.3,0.8c0.4-0.9,1.3-1,2.2-1.1
			c1.4-0.9,3.2-1.3,4.7-2.1c1.2-0.2,2-0.7,3-0.6c0-0.1,0.1-0.1,0.2-0.1c0.4-0.5,1.1-0.6,1.6-1c-1.4,0.1-2.7,0-3.8,0.8
			c-2-0.2-3.9,0.9-5.5,1.6c-1.5,0.1-3,0.8-4.2,1c0.4-0.4,0.8-0.6,1.3-0.9c1-0.5,2-0.5,3.1-1c0.8-0.4,1.6-1,2.7-1.3
			c1-0.3,2-0.4,3-0.7c2.1-0.6,4.4-1.5,6.2-1.5c0.9,0,1.9,0.6,3,0.8c1.2,0.3,2.6,0.1,3.7,0.5c0.6,0.2,1.2,0.9,2,1
			c0.1-0.3,0.7-0.1,0.9-0.4C207.1,21.2,203,19.7,199.3,20.5L199.3,20.5z M212.4,54.6c1.6,0.5,2.6,1.4,2.3,3.2
			c-0.6,0.6-1.5,1.3-2.6,0.7c-0.3-1.1-1.1-2.6-2.7-2.3c0.2,1.1,2,1.5,1.4,2.9c-0.2,0.6-1.2,1-2.1,0.6c-0.8-0.3-0.7-1.2-1.1-1.8
			c-0.5-0.6-1.9-0.6-2.4-0.7c-7.7,3.5-16.1,6.2-22.3,12c-1.9,0.7-5.7-0.6-8.4-1.3c-1.5-0.4-3-0.6-4-1.5c-1.3-0.1-3,0.5-4.5-0.3
			c-0.8-0.4-1.4-1.7-2.2-1.8c-1,0-1,1.6-1.4,2.6c-0.8,2.3-3,6.1-4.3,8.9c0.1,0.5-0.4,1-0.5,1.6c-0.3,0.1-0.7,0.1-1,0.2
			c-0.4,1.8-1.7,2.4-2.8,3.4c0.7,1.3,2.9,1,4.7,1.5c0.8,2.3-1,4.4-0.6,6.3c-1.5,1-3.4,1.3-4.8,2.5c-2,8.3,0.3,14.6,4.7,19.2
			c-0.2,0.8-0.5,1.6-0.9,2.2c-0.4,0.1-1,0.3-1.4,0c-2.4,0.7-4.7,2.7-6.8,4.2c-2,1.4-3.7,3-5.4,4.5c-5.7,3.6-10.8,8.1-15.7,12.8
			c-0.5,1.1-1.5,1.4-2,2.6c-0.8,0.4-1.5,1.1-2.3,1.6c-2.4,0.4-3.6-0.6-5.4-1.7c-6-1.7-12-2-17.3-0.9c-0.2,0.4-0.8,0.2-0.9,0.8
			c-1.1-0.1-1.8,0.6-2.8,0.6c-2.1-0.2-3.3-2.3-4.6-3.2c-0.7-2.3-2.9-3.5-3.9-5.5c-1.4-1.2-3.3-2.2-5.7-3.1c-2.3-0.9-4.9-1.3-5.2-3.2
			c-0.5,0-0.7,0.3-1.2,0.4c-0.1,2.6-2.1,5.6-4.9,5.8c0,3.1-2.4,5.3-5,5.9c-0.7,3-3,4.1-5.8,3.4c-0.7,2.2-2.9,3.4-5.1,2
			c-0.9,2.1-4.3,2.8-6.4,1c-1.1,0.6-2.2,1.2-3.7,1.3c-1.5-0.1-2.4-0.7-3.3-1.2c-0.9-1-1.4-2.3-2-3.5c-2.7-0.3-4.6-2.4-4.4-5.3
			c-3-1.5-4.8-4.7-3.3-7.9c-0.7-0.7-1.3-1.5-2-2.3c-0.5-3,1.3-7,4.1-7.8c-0.2-3.4,2.1-5.7,5.4-5.1c0.2-0.1,0.2-0.5,0.4-0.5
			c0-1.1-0.6-2.3-0.2-3.7c0.5-1.7,1.9-2.7,3.3-3.1c0.3-1.6,1.3-2.1,2.5-2.5c0.4-1.9,1.4-3,3.1-3.2c0.2-1,0.7-1.6,1.2-2.2
			c1.3-0.7,3.9-0.7,5.5,0.2c3.1-1.4,6.7-2.1,10.2-2.9c0.7-0.5,1.4-1.1,2.4-1.3c1.1,0.1,2,0.5,3,1c0.7-0.5,1.6-0.6,2.5-0.7
			c1.8,1.2,3.4,1.8,5.9,2c-2-0.9-5.1-2-5.5-3.8c-0.3-1.4,0.8-3.6,1.2-5.2c0.1-0.5,0-1,0.3-1.4c1,0.3,1.8,0.5,2.6,0.7
			c-0.7-0.9-2.2-1.5-3.3-2.4c-1.1-0.9-2-1.9-3-2.7c-0.1-1.3-0.5-2-1-3.1c-3.4,0.6-9-0.3-9.6-3.7c-2.9-0.7-5.9-1.8-8.3-3
			c-1.4-2.6-4.7-5.8-7.6-8.3c-0.8-0.7-1.8-1.8-2.6-1.8c-1.9-0.2-1.4,2.9-3.4,3c-2.7-1.2-0.7-3.9,1.2-4.3c-1.3-0.2-2.5,0.7-3.2,1.8
			c-2.2,0.7-3.2-1.5-2.1-3.5c0.9-1.1,2.9,0.2,4-0.6c-0.7-3.4-1.1-7.7-2.8-10.7c-1.3-0.3-1.9-0.7-2.9-0.6c-2,0.2-3.4,2.7-5,2.4
			c-1.5-0.3-2.8-5.1-2.9-6.5c1.1-2.8-0.2-5.5-1-7.7c0-1-0.3-1.9,0.3-2.6c0.4-0.5,1.4-0.6,2.3-1.1c1.4-0.7,2.4-1.6,3.8-2
			c0.1-0.4,0.5-0.4,0.5-0.9c2.6-0.5,3.7-3.1,4.9-5.6c3.3-1.6,7-2.1,10.1-3.8c1.4-0.1,3-1.2,4.3-0.1c5.7,1.3,11.7,3.8,17.7,5.1
			c1.2,0.9,2.3,1.9,3,3.2c1,3.8,2.4,7.2,3.2,11c1.1,2.4,1.5,5.3,3,7.5c2.8,1.2,4.4,2.8,6.3,4.5c-0.1-1-0.3-2.2,0-3
			c1.4,0,1.9-0.7,3.2-1.4c1.5-0.8,3-1.5,4.4-2.6c0.5-0.4,0.9-1,1.4-1.5c0.5-0.4,1.1-0.8,1.6-1.2c1.4-1.4,2.6-2.8,4.6-2.7
			c3.6-5.7,7.8-13.8,5.6-20.9c-0.6-1.8-1.7-2.3-2.6-3.8c-0.5-0.8-0.9-1.7-1.4-2.5c-0.1-1.4-0.4-4.5,1.1-5.4c1-0.5,2.1-0.1,3.3,0.2
			c2.8,1.9,3.6,6,2.6,9.7c0.6,2.5,2.2,10.4,1.9,13.8c-0.3,3.6-1.6,7.7-2,11.4c1.2,2.7,5.9,3.4,8.8,3.8c0.4,0.4,0.7,0.9,1.1,1.3
			c0.9-2.5,3.8-3.1,5.8-4.1c1.7-0.9,3.1-1.8,4.7-2.4c2.3-6.8,6.5-10.5,11.2-14.5c1.4-1.7,3.9-3.4,3.6-6.2c-0.7-2.4-2.5-3.1-5.3-3.1
			c-2.4-0.1-4.6,2.4-7.4,2.5c-1.5,0.1-3-0.7-4.3-1.9c-0.2-0.6-0.3-1.4-0.4-1.8c1-3.8,5.7-2.7,8.6-1.2c3.4-0.6,7.9-0.7,10.6,2
			c1.4,2.2,2.8,4.6,1.3,7.6c-1.1,1.8-8.4,10.1-8.8,13.4c-0.2,1.5-0.2,3.1,0.3,4.6c1.5,2.3,5.5,3,8.5,2.5c1.8,1.2,2.7,3.4,3.5,5
			c0.6,0.2,0.9-0.3,1.6-0.1c1-0.9,2-3.3,3.4-3.3c0.4,0,0.8,0.2,1.3,0.2c1.5-0.1,3.2-0.2,5.1,0.4c0.9-0.6,1.8-1.2,2.2-2.5
			c1.9-0.6,3.9-1,5.9-1.4c0.1-1,0.8-2.2,1.2-3.3c1.4-1.8,2.7-3.7,4.1-5.7c1.3-1.9,2.3-4.2,4.1-5.8c0.8,0.1,1.4-0.2,2.2-0.1
			c2.3-0.6,4.4-1.3,6.4-2.3c2.4-0.8,5.2-1,7.6-1.8c2.5,0.1,5.4-1.7,7.9-1.8c1.3-0.1,3.5,1,5,1.4c2.5,0.7,4.9,1.4,6.7,2.6
			c2.4-0.2,4.6,0.1,7.3,0.8c2.9,1.8,4.9,4.2,5.8,7.4c-2.1,4.4-3.9,8.9-7.2,11c-1.6,0-2.2-1.2-3.8-1.2c-1.8,0.4-3,1.9-3.6,3.8
			C211.7,45.8,211.7,51.1,212.4,54.6"/>
	</g>
	<path class="st1" d="M46.6,20.9c-0.7,0.6-1.6,0.8-2.3,1.4c2.6,0.5,3,0,5.2,0.8c-2.5,0.5-5.8-0.3-7.7,1c0.9,0.3,2.4,0.4,2.9,0.1
		c3.5,0.5,7.1,1.7,10.2,3.5c-2-0.5-4.3-1.4-6.6-2c-2.6-0.6-5-0.5-7.3-0.3c1.9,0.5,5.1,0.4,6.9,1.8c1.1,0.4,2.6,0.7,3.1,1.5
		c-0.4-0.1-0.8-0.2-1-0.3c-1.2,0.1-2.2-0.8-3.5-1.1c-2.6-0.7-5.8-0.4-8.5-0.8c0-0.5-0.2-1.1,0.2-1.2c0.2-0.3,0.4-0.1,0.8-0.3
		c0.1-0.2,0.1-0.4,0.1-0.5c1.3-0.5,2.6-1.5,3.2-2.5C43.7,22.2,45,19.9,46.6,20.9"/>
	<g>
		<path class="st0" d="M42.9,132.7c1.2,0.5,2.4,0.2,2.6-1.2C44.4,129.3,42,130.8,42.9,132.7 M65.4,97.2c-0.9-0.4-1.9-0.3-2.5,0.1
			c-0.3,1.1-0.4,1.8,0.1,2.5C65,100.4,66.3,98.5,65.4,97.2 M53.3,103.2c0.3,0.3,0.5,0.8,1,1.1c0.7-0.2,1.3-0.6,1.5-1.4
			c-0.1,0-0.1-0.2-0.1-0.3C54.9,101.9,53.2,101.4,53.3,103.2 M80.3,108.8c0.8-0.2,0.7-1.3-0.2-1.6C79.7,107.7,79.5,108.6,80.3,108.8
			 M48.9,105.3c0.2,0.4,0.3,1,1,0.9c0.2-0.4,0.6-0.6,0.7-1.3C50.1,104.3,49.2,104.6,48.9,105.3 M66.7,112.6c0.5,0.1,0.6-0.3,0.9-0.6
			C67.6,110.3,65.4,111.8,66.7,112.6 M47.2,108.8c-0.3,0.5-0.2,1.3-0.1,1.7c1.2,0.2,1.7-0.4,1.7-1.4
			C48.3,108.6,47.8,108.7,47.2,108.8 M68.1,117c0.1,0.3,0.3,0.5,0.6,0.6c0-0.1,0.1-0.1,0.2-0.1c0.2-0.1,0.2-0.5,0.3-0.8
			c-0.2-0.1-0.4-0.3-0.6-0.4C68.4,116.6,68.1,116.6,68.1,117"/>
		<path class="st0" d="M62.8,122.8c0.7,0.9,2.2,0.4,2.6-0.3C66.4,119.3,61.9,120,62.8,122.8 M58,124c0.5-0.6,0.5-1.6-0.5-1.8
			C56.7,122.8,56.7,124.2,58,124 M44.2,125.9c-0.2,0.6,0,1,0.1,1.4c0.9,0.2,1.6,0.1,1.6-0.9C45.5,126,44.7,125.7,44.2,125.9
			 M40.1,128.3c0.6-0.2,1.2-0.3,1.3-1.3c-0.3-0.5-1-0.7-1.4-1.2C39.2,126.6,39.3,127.7,40.1,128.3"/>
	</g>
	<path class="st1" d="M19.2,138.5c0.1-0.2,0.3-0.2,0.6-0.2c0.4-0.7,0.6-2.3,0.3-2.8c-1.1,0.2-1.4,1.2-1.7,2.4
		C18.7,138.1,19.3,138.3,19.2,138.5 M17.5,141.7c0.1,0,0.3,0,0.3,0.2c0.5-0.1,0.9-0.6,0.6-1.1l-0.9-0.1
		C17.5,141.1,17.3,141.4,17.5,141.7"/>
</g>
</svg>
